%TF.GenerationSoftware,Altium Limited,Altium Designer,24.9.1 (31)*%
G04 Layer_Color=16711935*
%FSLAX44Y44*%
%MOMM*%
%TF.SameCoordinates,F87BDF86-A0D3-4CC8-9358-94790697CDC4*%
%TF.FilePolarity,Negative*%
%TF.FileFunction,Soldermask,Bot*%
%TF.Part,Single*%
G01*
G75*
%TA.AperFunction,ComponentPad*%
%ADD55C,1.2446*%
%ADD56P,1.7601X4X180.0*%
%TA.AperFunction,ViaPad*%
%ADD67C,1.9812*%
%TA.AperFunction,ComponentPad*%
%ADD98R,2.1532X2.1532*%
%ADD99C,2.1532*%
%ADD100C,1.8032*%
%ADD101R,1.8032X1.8032*%
%ADD102C,2.2352*%
%ADD103C,2.4032*%
%ADD104R,2.4032X2.4032*%
%TA.AperFunction,ViaPad*%
%ADD105C,1.7272*%
%TA.AperFunction,ComponentPad*%
%ADD106R,1.8034X1.8034*%
%ADD107R,1.8032X1.8032*%
G04:AMPARAMS|DCode=108|XSize=2.4032mm|YSize=2.4032mm|CornerRadius=0.6516mm|HoleSize=0mm|Usage=FLASHONLY|Rotation=90.000|XOffset=0mm|YOffset=0mm|HoleType=Round|Shape=RoundedRectangle|*
%AMROUNDEDRECTD108*
21,1,2.4032,1.1000,0,0,90.0*
21,1,1.1000,2.4032,0,0,90.0*
1,1,1.3032,0.5500,0.5500*
1,1,1.3032,0.5500,-0.5500*
1,1,1.3032,-0.5500,-0.5500*
1,1,1.3032,-0.5500,0.5500*
%
%ADD108ROUNDEDRECTD108*%
%ADD109C,2.0032*%
%ADD110O,2.2032X2.4032*%
%ADD111C,1.7632*%
%ADD112R,1.7632X1.7632*%
%ADD113C,1.7232*%
%ADD114R,1.7232X1.7232*%
%ADD115R,2.7432X4.2672*%
%ADD116R,4.2672X2.7432*%
%TA.AperFunction,ViaPad*%
%ADD117C,1.2192*%
%ADD118C,1.4732*%
%ADD119C,2.1844*%
%ADD120C,2.2352*%
D55*
X990637Y564097D02*
D03*
D56*
X1025144Y529590D02*
D03*
D67*
X387096Y537210D02*
D03*
X560070Y538226D02*
D03*
X1527048Y539242D02*
D03*
X387858Y421894D02*
D03*
X1057148Y815086D02*
D03*
X1057402Y964184D02*
D03*
X796544Y915162D02*
D03*
X560070Y663702D02*
D03*
X1192276Y813562D02*
D03*
X1399032Y599186D02*
D03*
D98*
X1081570Y66040D02*
D03*
D99*
X1131570D02*
D03*
D100*
X533400Y398780D02*
D03*
X508000D02*
D03*
X728440Y782320D02*
D03*
X753840D02*
D03*
X963930Y40000D02*
D03*
X1440688Y527050D02*
D03*
Y577850D02*
D03*
Y552450D02*
D03*
X1046480Y348234D02*
D03*
X1071880D02*
D03*
X795020Y643128D02*
D03*
Y668528D02*
D03*
X990029Y780996D02*
D03*
X964629D02*
D03*
X534670Y588010D02*
D03*
X509270D02*
D03*
X938530Y276860D02*
D03*
X913130Y276860D02*
D03*
X887730Y276860D02*
D03*
X862330Y276860D02*
D03*
X731520Y960000D02*
D03*
X706120D02*
D03*
X534670Y497840D02*
D03*
X509270D02*
D03*
X1301750Y960000D02*
D03*
X1403350D02*
D03*
X1200150D02*
D03*
X838200D02*
D03*
X863600D02*
D03*
X965200D02*
D03*
X990600D02*
D03*
X939800D02*
D03*
X914400D02*
D03*
X889000D02*
D03*
X1600200Y746760D02*
D03*
Y772160D02*
D03*
Y797560D02*
D03*
Y848360D02*
D03*
Y822960D02*
D03*
Y721360D02*
D03*
X1097280Y960000D02*
D03*
X1047242Y200660D02*
D03*
X1021842D02*
D03*
X1072642D02*
D03*
X856996Y58964D02*
D03*
X831596D02*
D03*
X729996D02*
D03*
X704596D02*
D03*
X755396D02*
D03*
X780796D02*
D03*
X806196D02*
D03*
X1513840Y960000D02*
D03*
X1564640D02*
D03*
X1539240D02*
D03*
X1242568Y724662D02*
D03*
X1217168D02*
D03*
X1191768D02*
D03*
X1166368D02*
D03*
X1140968D02*
D03*
X1610000Y615950D02*
D03*
Y565150D02*
D03*
Y590550D02*
D03*
X1346454Y527050D02*
D03*
Y577850D02*
D03*
Y552450D02*
D03*
X636270Y588010D02*
D03*
X661670D02*
D03*
X87376Y605536D02*
D03*
X112776D02*
D03*
X138176D02*
D03*
X188976D02*
D03*
X163576D02*
D03*
X61976D02*
D03*
X36576D02*
D03*
D101*
X558800Y398780D02*
D03*
X703040Y782320D02*
D03*
X1097280Y348234D02*
D03*
X939229Y780996D02*
D03*
X560070Y588010D02*
D03*
X963930Y276860D02*
D03*
X756920Y960000D02*
D03*
X560070Y497840D02*
D03*
X1327150Y960000D02*
D03*
X1428750D02*
D03*
X1225550D02*
D03*
X1016000D02*
D03*
X1122680D02*
D03*
X996442Y200660D02*
D03*
X679196Y58964D02*
D03*
X1590040Y960000D02*
D03*
X1267968Y724662D02*
D03*
X687070Y588010D02*
D03*
X214376Y605536D02*
D03*
D102*
X179400Y57150D02*
D03*
X279400D02*
D03*
D103*
X42310Y196850D02*
D03*
X1611646Y192780D02*
D03*
X1610666Y318946D02*
D03*
X1610634Y448851D02*
D03*
X1611634Y78741D02*
D03*
D104*
X92310Y196850D02*
D03*
D105*
X616458Y834390D02*
D03*
Y185551D02*
D03*
X1358900Y50038D02*
D03*
D106*
X938530Y40000D02*
D03*
D107*
X1440688Y603250D02*
D03*
X795020Y693928D02*
D03*
X1600200Y873760D02*
D03*
X1610000Y539750D02*
D03*
X1346454Y603250D02*
D03*
D108*
X1611646Y154681D02*
D03*
X1610666Y280846D02*
D03*
X1610634Y410751D02*
D03*
X1611634Y40641D02*
D03*
D109*
X1387320Y154651D02*
D03*
Y200651D02*
D03*
Y280846D02*
D03*
Y326846D02*
D03*
Y410751D02*
D03*
Y456750D02*
D03*
X1503172Y63501D02*
D03*
X1553972Y40641D02*
D03*
D110*
X1502320Y154651D02*
D03*
X1572320D02*
D03*
X1502320Y280846D02*
D03*
X1572320D02*
D03*
X1502320Y410751D02*
D03*
X1572320D02*
D03*
D111*
X42152Y706000D02*
D03*
X67552D02*
D03*
X92952D02*
D03*
X118352D02*
D03*
X143752D02*
D03*
X169152D02*
D03*
X194552D02*
D03*
X219952D02*
D03*
X245352D02*
D03*
X270752D02*
D03*
X296152D02*
D03*
X321552D02*
D03*
X346952D02*
D03*
X372352D02*
D03*
X397752D02*
D03*
X423152D02*
D03*
X448552D02*
D03*
X473952D02*
D03*
X499352D02*
D03*
X67552Y960000D02*
D03*
X92952D02*
D03*
X118352D02*
D03*
X143752D02*
D03*
X169152D02*
D03*
X194552D02*
D03*
X219952D02*
D03*
X245352D02*
D03*
X270752D02*
D03*
X296152D02*
D03*
X321552D02*
D03*
X346952D02*
D03*
X372352D02*
D03*
X397752D02*
D03*
X423152D02*
D03*
X448552D02*
D03*
X42152D02*
D03*
X473952D02*
D03*
D112*
X499352D02*
D03*
D113*
X276860Y407924D02*
D03*
Y331724D02*
D03*
Y357124D02*
D03*
Y382524D02*
D03*
Y458724D02*
D03*
Y433324D02*
D03*
D114*
Y484124D02*
D03*
D115*
X115570Y81280D02*
D03*
X52070D02*
D03*
D116*
X90170Y30480D02*
D03*
D117*
X98298Y520192D02*
D03*
X1294892Y475488D02*
D03*
D118*
X560578Y473456D02*
D03*
X1143000Y275844D02*
D03*
D119*
X1455388Y448851D02*
D03*
D120*
X1454658Y319024D02*
D03*
Y192780D02*
D03*
%TF.MD5,b3212bf394ac24ca09fa0e5cf1b15a7d*%
M02*
