%TF.GenerationSoftware,Altium Limited,Altium Designer,24.9.1 (31)*%
G04 Layer_Color=255*
%FSLAX44Y44*%
%MOMM*%
%TF.SameCoordinates,F87BDF86-A0D3-4CC8-9358-94790697CDC4*%
%TF.FilePolarity,Positive*%
%TF.FileFunction,Pads,Bot*%
%TF.Part,Single*%
G01*
G75*
%TA.AperFunction,ComponentPad*%
%ADD42R,1.9500X1.9500*%
%ADD43C,1.9500*%
%ADD44C,1.6000*%
%ADD45R,1.6000X1.6000*%
%ADD46C,2.0320*%
%ADD47C,2.2000*%
%ADD48R,2.2000X2.2000*%
%TA.AperFunction,ViaPad*%
%ADD49C,1.5240*%
%TA.AperFunction,ComponentPad*%
%ADD50R,1.6002X1.6002*%
%ADD51R,1.6000X1.6000*%
G04:AMPARAMS|DCode=52|XSize=2.2mm|YSize=2.2mm|CornerRadius=0.55mm|HoleSize=0mm|Usage=FLASHONLY|Rotation=90.000|XOffset=0mm|YOffset=0mm|HoleType=Round|Shape=RoundedRectangle|*
%AMROUNDEDRECTD52*
21,1,2.2000,1.1000,0,0,90.0*
21,1,1.1000,2.2000,0,0,90.0*
1,1,1.1000,0.5500,0.5500*
1,1,1.1000,0.5500,-0.5500*
1,1,1.1000,-0.5500,-0.5500*
1,1,1.1000,-0.5500,0.5500*
%
%ADD52ROUNDEDRECTD52*%
%ADD53C,1.8000*%
%ADD54O,2.0000X2.2000*%
%ADD55C,1.2446*%
%ADD56P,1.7601X4X180.0*%
%ADD57C,1.5600*%
%ADD58R,1.5600X1.5600*%
%ADD59C,1.5200*%
%ADD60R,1.5200X1.5200*%
%ADD61R,2.5400X4.0640*%
%ADD62R,4.0640X2.5400*%
D42*
X1081570Y66040D02*
D03*
D43*
X1131570D02*
D03*
D44*
X533400Y398780D02*
D03*
X508000D02*
D03*
X728440Y782320D02*
D03*
X753840D02*
D03*
X963930Y40000D02*
D03*
X1440688Y527050D02*
D03*
Y577850D02*
D03*
Y552450D02*
D03*
X1046480Y348234D02*
D03*
X1071880D02*
D03*
X795020Y643128D02*
D03*
Y668528D02*
D03*
X990029Y780996D02*
D03*
X964629D02*
D03*
X534670Y588010D02*
D03*
X509270D02*
D03*
X938530Y276860D02*
D03*
X913130Y276860D02*
D03*
X887730Y276860D02*
D03*
X862330Y276860D02*
D03*
X731520Y960000D02*
D03*
X706120D02*
D03*
X534670Y497840D02*
D03*
X509270D02*
D03*
X1301750Y960000D02*
D03*
X1403350D02*
D03*
X1200150D02*
D03*
X838200D02*
D03*
X863600D02*
D03*
X965200D02*
D03*
X990600D02*
D03*
X939800D02*
D03*
X914400D02*
D03*
X889000D02*
D03*
X1600200Y746760D02*
D03*
Y772160D02*
D03*
Y797560D02*
D03*
Y848360D02*
D03*
Y822960D02*
D03*
Y721360D02*
D03*
X1097280Y960000D02*
D03*
X1047242Y200660D02*
D03*
X1021842D02*
D03*
X1072642D02*
D03*
X856996Y58964D02*
D03*
X831596D02*
D03*
X729996D02*
D03*
X704596D02*
D03*
X755396D02*
D03*
X780796D02*
D03*
X806196D02*
D03*
X1513840Y960000D02*
D03*
X1564640D02*
D03*
X1539240D02*
D03*
X1242568Y724662D02*
D03*
X1217168D02*
D03*
X1191768D02*
D03*
X1166368D02*
D03*
X1140968D02*
D03*
X1610000Y615950D02*
D03*
Y565150D02*
D03*
Y590550D02*
D03*
X1346454Y527050D02*
D03*
Y577850D02*
D03*
Y552450D02*
D03*
X636270Y588010D02*
D03*
X661670D02*
D03*
X87376Y605536D02*
D03*
X112776D02*
D03*
X138176D02*
D03*
X188976D02*
D03*
X163576D02*
D03*
X61976D02*
D03*
X36576D02*
D03*
D45*
X558800Y398780D02*
D03*
X703040Y782320D02*
D03*
X1097280Y348234D02*
D03*
X939229Y780996D02*
D03*
X560070Y588010D02*
D03*
X963930Y276860D02*
D03*
X756920Y960000D02*
D03*
X560070Y497840D02*
D03*
X1327150Y960000D02*
D03*
X1428750D02*
D03*
X1225550D02*
D03*
X1016000D02*
D03*
X1122680D02*
D03*
X996442Y200660D02*
D03*
X679196Y58964D02*
D03*
X1590040Y960000D02*
D03*
X1267968Y724662D02*
D03*
X687070Y588010D02*
D03*
X214376Y605536D02*
D03*
D46*
X179400Y57150D02*
D03*
X279400D02*
D03*
D47*
X42310Y196850D02*
D03*
X1611646Y192780D02*
D03*
X1610666Y318946D02*
D03*
X1610634Y448851D02*
D03*
X1611634Y78741D02*
D03*
D48*
X92310Y196850D02*
D03*
D49*
X616458Y834390D02*
D03*
Y185551D02*
D03*
X1358900Y50038D02*
D03*
D50*
X938530Y40000D02*
D03*
D51*
X1440688Y603250D02*
D03*
X795020Y693928D02*
D03*
X1600200Y873760D02*
D03*
X1610000Y539750D02*
D03*
X1346454Y603250D02*
D03*
D52*
X1611646Y154681D02*
D03*
X1610666Y280846D02*
D03*
X1610634Y410751D02*
D03*
X1611634Y40641D02*
D03*
D53*
X1387320Y154651D02*
D03*
Y200651D02*
D03*
Y280846D02*
D03*
Y326846D02*
D03*
Y410751D02*
D03*
Y456750D02*
D03*
X1503172Y63501D02*
D03*
X1553972Y40641D02*
D03*
D54*
X1502320Y154651D02*
D03*
X1572320D02*
D03*
X1502320Y280846D02*
D03*
X1572320D02*
D03*
X1502320Y410751D02*
D03*
X1572320D02*
D03*
D55*
X990637Y564097D02*
D03*
D56*
X1025144Y529590D02*
D03*
D57*
X42152Y706000D02*
D03*
X67552D02*
D03*
X92952D02*
D03*
X118352D02*
D03*
X143752D02*
D03*
X169152D02*
D03*
X194552D02*
D03*
X219952D02*
D03*
X245352D02*
D03*
X270752D02*
D03*
X296152D02*
D03*
X321552D02*
D03*
X346952D02*
D03*
X372352D02*
D03*
X397752D02*
D03*
X423152D02*
D03*
X448552D02*
D03*
X473952D02*
D03*
X499352D02*
D03*
X67552Y960000D02*
D03*
X92952D02*
D03*
X118352D02*
D03*
X143752D02*
D03*
X169152D02*
D03*
X194552D02*
D03*
X219952D02*
D03*
X245352D02*
D03*
X270752D02*
D03*
X296152D02*
D03*
X321552D02*
D03*
X346952D02*
D03*
X372352D02*
D03*
X397752D02*
D03*
X423152D02*
D03*
X448552D02*
D03*
X42152D02*
D03*
X473952D02*
D03*
D58*
X499352D02*
D03*
D59*
X276860Y407924D02*
D03*
Y331724D02*
D03*
Y357124D02*
D03*
Y382524D02*
D03*
Y458724D02*
D03*
Y433324D02*
D03*
D60*
Y484124D02*
D03*
D61*
X115570Y81280D02*
D03*
X52070D02*
D03*
D62*
X90170Y30480D02*
D03*
%TF.MD5,6df17b585f2ee32a404fdbd3edfe7566*%
M02*
