%TF.GenerationSoftware,Altium Limited,Altium Designer,24.9.1 (31)*%
G04 Layer_Physical_Order=2*
G04 Layer_Color=16711680*
%FSLAX44Y44*%
%MOMM*%
%TF.SameCoordinates,F87BDF86-A0D3-4CC8-9358-94790697CDC4*%
%TF.FilePolarity,Positive*%
%TF.FileFunction,Copper,L2,Bot,Signal*%
%TF.Part,Single*%
G01*
G75*
%TA.AperFunction,Conductor*%
%ADD29C,2.0320*%
%ADD30C,0.6350*%
%ADD31C,0.2032*%
%ADD32C,1.2700*%
%ADD33C,1.0160*%
%ADD34C,0.2540*%
%ADD35C,0.5080*%
%ADD37C,0.3048*%
%ADD38C,0.3810*%
%TA.AperFunction,ComponentPad*%
%ADD42R,1.9500X1.9500*%
%ADD43C,1.9500*%
%ADD44C,1.6000*%
%ADD45R,1.6000X1.6000*%
%ADD46C,2.0320*%
%ADD47C,2.2000*%
%ADD48R,2.2000X2.2000*%
%TA.AperFunction,ViaPad*%
%ADD49C,1.5240*%
%TA.AperFunction,ComponentPad*%
%ADD50R,1.6002X1.6002*%
%ADD51R,1.6000X1.6000*%
G04:AMPARAMS|DCode=52|XSize=2.2mm|YSize=2.2mm|CornerRadius=0.55mm|HoleSize=0mm|Usage=FLASHONLY|Rotation=90.000|XOffset=0mm|YOffset=0mm|HoleType=Round|Shape=RoundedRectangle|*
%AMROUNDEDRECTD52*
21,1,2.2000,1.1000,0,0,90.0*
21,1,1.1000,2.2000,0,0,90.0*
1,1,1.1000,0.5500,0.5500*
1,1,1.1000,0.5500,-0.5500*
1,1,1.1000,-0.5500,-0.5500*
1,1,1.1000,-0.5500,0.5500*
%
%ADD52ROUNDEDRECTD52*%
%ADD53C,1.8000*%
%ADD54O,2.0000X2.2000*%
%ADD55C,1.2446*%
%ADD56P,1.7601X4X180.0*%
%ADD57C,1.5600*%
%ADD58R,1.5600X1.5600*%
%ADD59C,1.5200*%
%ADD60R,1.5200X1.5200*%
%ADD61R,2.5400X4.0640*%
%ADD62R,4.0640X2.5400*%
%TA.AperFunction,ViaPad*%
%ADD63C,1.0160*%
%ADD64C,1.7780*%
%ADD65C,0.6096*%
%ADD66C,1.2700*%
%ADD67C,1.9812*%
%ADD68C,2.0320*%
G36*
X732833Y972135D02*
X732963Y971542D01*
X733180Y970919D01*
X733483Y970265D01*
X733873Y969582D01*
X734349Y968868D01*
X734912Y968124D01*
X736297Y966547D01*
X737120Y965713D01*
X725920D01*
X726743Y966547D01*
X728128Y968124D01*
X728691Y968868D01*
X729167Y969582D01*
X729557Y970265D01*
X729860Y970919D01*
X730077Y971542D01*
X730207Y972135D01*
X730250Y972699D01*
X732790D01*
X732833Y972135D01*
D02*
G37*
G36*
X1052773Y976013D02*
X1054655Y974374D01*
X1055201Y973974D01*
X1055705Y973647D01*
X1056168Y973394D01*
X1056591Y973214D01*
X1056973Y973107D01*
X1057313Y973074D01*
X1048512Y964273D01*
X1048479Y964613D01*
X1048372Y964995D01*
X1048192Y965418D01*
X1047939Y965881D01*
X1047612Y966385D01*
X1047212Y966931D01*
X1046192Y968145D01*
X1044879Y969522D01*
X1052064Y976707D01*
X1052773Y976013D01*
D02*
G37*
G36*
X801635Y926800D02*
X801807Y924310D01*
X801910Y923641D01*
X802036Y923053D01*
X802184Y922547D01*
X802355Y922121D01*
X802550Y921775D01*
X802767Y921511D01*
X790321D01*
X790538Y921775D01*
X790732Y922121D01*
X790904Y922547D01*
X791052Y923053D01*
X791178Y923641D01*
X791281Y924310D01*
X791418Y925889D01*
X791464Y927792D01*
X801624D01*
X801635Y926800D01*
D02*
G37*
G36*
X1048344Y867986D02*
X1048133Y867763D01*
X1047944Y867537D01*
X1047777Y867309D01*
X1047633Y867079D01*
X1047511Y866848D01*
X1047412Y866615D01*
X1047336Y866379D01*
X1047282Y866142D01*
X1047251Y865903D01*
X1047242Y865663D01*
X1044224Y868680D01*
X1044465Y868689D01*
X1044704Y868720D01*
X1044941Y868774D01*
X1045177Y868850D01*
X1045410Y868949D01*
X1045641Y869071D01*
X1045871Y869215D01*
X1046099Y869382D01*
X1046324Y869571D01*
X1046548Y869782D01*
X1048344Y867986D01*
D02*
G37*
G36*
X512602Y996576D02*
X513130Y937540D01*
X511342Y935736D01*
X431864D01*
X432020Y740766D01*
X518668Y740543D01*
Y681228D01*
X677938D01*
Y994709D01*
X679734Y996504D01*
X743232Y996477D01*
X744204Y994130D01*
X728604Y978530D01*
X727396Y975614D01*
Y972203D01*
X727308Y971951D01*
X727112Y971527D01*
X726827Y971027D01*
X726450Y970462D01*
X725997Y969864D01*
X724730Y968421D01*
X723963Y967644D01*
X723761Y967147D01*
X720980Y964366D01*
Y955634D01*
X727154Y949460D01*
X732557D01*
X732570Y949428D01*
X735486Y948220D01*
X738402Y949428D01*
X739610Y952344D01*
Y952392D01*
X739378Y952952D01*
X742060Y955634D01*
Y964366D01*
X739279Y967147D01*
X739077Y967644D01*
X738310Y968421D01*
X737043Y969864D01*
X736590Y970462D01*
X736213Y971027D01*
X735928Y971527D01*
X735732Y971950D01*
X735644Y972203D01*
Y973906D01*
X752532Y990794D01*
X801770D01*
X802338Y988534D01*
X802346Y988254D01*
X790712Y976620D01*
X788296Y970788D01*
Y923431D01*
X788254Y923326D01*
X788196Y923255D01*
X788173Y923177D01*
X788142Y923123D01*
X788133Y923047D01*
X788076Y922858D01*
X785114Y919896D01*
Y910427D01*
X791809Y903732D01*
X801279D01*
X807974Y910427D01*
Y919896D01*
X805012Y922858D01*
X804955Y923047D01*
X804946Y923123D01*
X804915Y923178D01*
X804892Y923255D01*
X804834Y923326D01*
X804792Y923431D01*
Y967372D01*
X811644Y974224D01*
X1035698D01*
X1045723Y964199D01*
X1045768Y964095D01*
X1045776Y964004D01*
X1045815Y963932D01*
X1045831Y963873D01*
X1045879Y963812D01*
X1045972Y963638D01*
Y959449D01*
X1052667Y952754D01*
X1062137D01*
X1063123Y953741D01*
X1065470Y952769D01*
Y892740D01*
X1044158Y871429D01*
X1044124Y871427D01*
X1043671Y871220D01*
X1041879D01*
X1038606Y867947D01*
Y863317D01*
X1041879Y860044D01*
X1046509D01*
X1049782Y863317D01*
Y865109D01*
X1049989Y865562D01*
X1049990Y865596D01*
X1072510Y888116D01*
X1073718Y891032D01*
Y977392D01*
X1072510Y980308D01*
X1058824Y993994D01*
X1059796Y996341D01*
X1645666Y996089D01*
X1645666Y498647D01*
X1399032Y498031D01*
Y464951D01*
X1396492Y463899D01*
X1392100Y468290D01*
X1382540D01*
X1375780Y461531D01*
Y451970D01*
X1382540Y445211D01*
X1392100D01*
X1396492Y449603D01*
X1399032Y448550D01*
Y418951D01*
X1396492Y417899D01*
X1392100Y422290D01*
X1382540D01*
X1375780Y415531D01*
Y405970D01*
X1382540Y399211D01*
X1392100D01*
X1396492Y403602D01*
X1399032Y402550D01*
Y335046D01*
X1396492Y333994D01*
X1392100Y338386D01*
X1382540D01*
X1375780Y331626D01*
Y322066D01*
X1382540Y315306D01*
X1392100D01*
X1396492Y319698D01*
X1399032Y318645D01*
Y289046D01*
X1396492Y287994D01*
X1392100Y292386D01*
X1382540D01*
X1375780Y285626D01*
Y276066D01*
X1382540Y269306D01*
X1392100D01*
X1396492Y273697D01*
X1399032Y272645D01*
Y208852D01*
X1396492Y207800D01*
X1392100Y212192D01*
X1382540D01*
X1375780Y205432D01*
Y195872D01*
X1382540Y189112D01*
X1392100D01*
X1396492Y193503D01*
X1399032Y192451D01*
Y162852D01*
X1396492Y161800D01*
X1392100Y166192D01*
X1382540D01*
X1375780Y159432D01*
Y149872D01*
X1382540Y143112D01*
X1392100D01*
X1396492Y147503D01*
X1399032Y146451D01*
Y97536D01*
X1267715Y96691D01*
X1267713Y3503D01*
X3810D01*
X3810Y266192D01*
X76200D01*
Y530223D01*
X78547Y531195D01*
X90678Y519064D01*
Y517036D01*
X95142Y512572D01*
X101454D01*
X105918Y517036D01*
Y523348D01*
X101454Y527812D01*
X99426D01*
X42762Y584476D01*
Y596816D01*
X47116Y601170D01*
Y609902D01*
X40942Y616076D01*
X32210D01*
X26036Y609902D01*
Y601170D01*
X30390Y596816D01*
Y581914D01*
X32202Y577540D01*
X59768Y549974D01*
X58791Y547629D01*
X3810Y547872D01*
X3810Y996710D01*
X202180D01*
X512602Y996576D01*
D02*
G37*
%LPC*%
G36*
X509692Y970340D02*
X489012D01*
Y949660D01*
X509692D01*
Y970340D01*
D02*
G37*
G36*
X478235D02*
X469669D01*
X463612Y964283D01*
Y955717D01*
X469669Y949660D01*
X478235D01*
X484292Y955717D01*
Y964283D01*
X478235Y970340D01*
D02*
G37*
G36*
X452835D02*
X444269D01*
X438212Y964283D01*
Y955717D01*
X444269Y949660D01*
X452835D01*
X458892Y955717D01*
Y964283D01*
X452835Y970340D01*
D02*
G37*
G36*
X427435D02*
X418869D01*
X412812Y964283D01*
Y955717D01*
X418869Y949660D01*
X427435D01*
X433492Y955717D01*
Y964283D01*
X427435Y970340D01*
D02*
G37*
G36*
X402035D02*
X393469D01*
X387412Y964283D01*
Y955717D01*
X393469Y949660D01*
X402035D01*
X408092Y955717D01*
Y964283D01*
X402035Y970340D01*
D02*
G37*
G36*
X376635D02*
X368069D01*
X362012Y964283D01*
Y955717D01*
X368069Y949660D01*
X376635D01*
X382692Y955717D01*
Y964283D01*
X376635Y970340D01*
D02*
G37*
G36*
X351235D02*
X342669D01*
X336612Y964283D01*
Y955717D01*
X342669Y949660D01*
X351235D01*
X357292Y955717D01*
Y964283D01*
X351235Y970340D01*
D02*
G37*
G36*
X325835D02*
X317269D01*
X311212Y964283D01*
Y955717D01*
X317269Y949660D01*
X325835D01*
X331892Y955717D01*
Y964283D01*
X325835Y970340D01*
D02*
G37*
G36*
X300435D02*
X291869D01*
X285812Y964283D01*
Y955717D01*
X291869Y949660D01*
X300435D01*
X306492Y955717D01*
Y964283D01*
X300435Y970340D01*
D02*
G37*
G36*
X275035D02*
X266469D01*
X260412Y964283D01*
Y955717D01*
X266469Y949660D01*
X275035D01*
X281092Y955717D01*
Y964283D01*
X275035Y970340D01*
D02*
G37*
G36*
X249635D02*
X241069D01*
X235012Y964283D01*
Y955717D01*
X241069Y949660D01*
X249635D01*
X255692Y955717D01*
Y964283D01*
X249635Y970340D01*
D02*
G37*
G36*
X224235D02*
X215669D01*
X209612Y964283D01*
Y955717D01*
X215669Y949660D01*
X224235D01*
X230292Y955717D01*
Y964283D01*
X224235Y970340D01*
D02*
G37*
G36*
X198835D02*
X190269D01*
X184212Y964283D01*
Y955717D01*
X190269Y949660D01*
X198835D01*
X204892Y955717D01*
Y964283D01*
X198835Y970340D01*
D02*
G37*
G36*
X148035D02*
X139469D01*
X133412Y964283D01*
Y955717D01*
X139469Y949660D01*
X148035D01*
X154092Y955717D01*
Y964283D01*
X148035Y970340D01*
D02*
G37*
G36*
X122635D02*
X114069D01*
X108012Y964283D01*
Y955717D01*
X114069Y949660D01*
X122635D01*
X128692Y955717D01*
Y964283D01*
X122635Y970340D01*
D02*
G37*
G36*
X97235D02*
X88669D01*
X82612Y964283D01*
Y955717D01*
X88669Y949660D01*
X97235D01*
X103292Y955717D01*
Y964283D01*
X97235Y970340D01*
D02*
G37*
G36*
X71835D02*
X63269D01*
X57212Y964283D01*
Y955717D01*
X63269Y949660D01*
X71835D01*
X77892Y955717D01*
Y964283D01*
X71835Y970340D01*
D02*
G37*
G36*
X46435D02*
X37869D01*
X31812Y964283D01*
Y955717D01*
X37869Y949660D01*
X46435D01*
X52492Y955717D01*
Y964283D01*
X46435Y970340D01*
D02*
G37*
G36*
X1600580Y970540D02*
X1579500D01*
Y949460D01*
X1600580D01*
Y970540D01*
D02*
G37*
G36*
X1543606D02*
X1534874D01*
X1528700Y964366D01*
Y955634D01*
X1534874Y949460D01*
X1543606D01*
X1549780Y955634D01*
Y964366D01*
X1543606Y970540D01*
D02*
G37*
G36*
X1439290D02*
X1418210D01*
Y949460D01*
X1439290D01*
Y970540D01*
D02*
G37*
G36*
X1337690D02*
X1316610D01*
Y949460D01*
X1337690D01*
Y970540D01*
D02*
G37*
G36*
X1236090D02*
X1215010D01*
Y949460D01*
X1236090D01*
Y970540D01*
D02*
G37*
G36*
X1133220D02*
X1112140D01*
Y949460D01*
X1133220D01*
Y970540D01*
D02*
G37*
G36*
X1026540D02*
X1005460D01*
Y949460D01*
X1026540D01*
Y970540D01*
D02*
G37*
G36*
X994966D02*
X986234D01*
X980060Y964366D01*
Y955634D01*
X986234Y949460D01*
X994966D01*
X1001140Y955634D01*
Y964366D01*
X994966Y970540D01*
D02*
G37*
G36*
X969566D02*
X960834D01*
X954660Y964366D01*
Y955634D01*
X960834Y949460D01*
X969566D01*
X975740Y955634D01*
Y964366D01*
X969566Y970540D01*
D02*
G37*
G36*
X944166D02*
X935434D01*
X929260Y964366D01*
Y955634D01*
X935434Y949460D01*
X944166D01*
X950340Y955634D01*
Y964366D01*
X944166Y970540D01*
D02*
G37*
G36*
X918766D02*
X910034D01*
X903860Y964366D01*
Y955634D01*
X910034Y949460D01*
X918766D01*
X924940Y955634D01*
Y964366D01*
X918766Y970540D01*
D02*
G37*
G36*
X867966D02*
X859234D01*
X853060Y964366D01*
Y955634D01*
X859234Y949460D01*
X867966D01*
X874140Y955634D01*
Y964366D01*
X867966Y970540D01*
D02*
G37*
G36*
X842566D02*
X833834D01*
X827660Y964366D01*
Y955634D01*
X833834Y949460D01*
X842566D01*
X848740Y955634D01*
Y964366D01*
X842566Y970540D01*
D02*
G37*
G36*
X767460D02*
X746380D01*
Y949460D01*
X767460D01*
Y970540D01*
D02*
G37*
G36*
X1636551Y913892D02*
X1631921D01*
X1631832Y913802D01*
X1579160D01*
X1579071Y913892D01*
X1574442D01*
X1571168Y910619D01*
Y905989D01*
X1574442Y902716D01*
X1579071D01*
X1579160Y902805D01*
X1631832D01*
X1631921Y902716D01*
X1636551D01*
X1639824Y905989D01*
Y910619D01*
X1636551Y913892D01*
D02*
G37*
G36*
X1610740Y884300D02*
X1589660D01*
Y863220D01*
X1610740D01*
Y884300D01*
D02*
G37*
G36*
X1363501Y863829D02*
X1358871D01*
X1358095Y863053D01*
X1336225D01*
X1335448Y863829D01*
X1330819D01*
X1327545Y860556D01*
Y855927D01*
X1330819Y852653D01*
X1335448D01*
X1336225Y853430D01*
X1358095D01*
X1358871Y852653D01*
X1363501D01*
X1366774Y855927D01*
Y860556D01*
X1363501Y863829D01*
D02*
G37*
G36*
X1151134D02*
X1146505D01*
X1145238Y862562D01*
X1144771Y862389D01*
X1144746Y862365D01*
X1126016D01*
X1125991Y862389D01*
X1125524Y862562D01*
X1124257Y863829D01*
X1119628D01*
X1116355Y860556D01*
Y855927D01*
X1119628Y852653D01*
X1124257D01*
X1125524Y853920D01*
X1125991Y854093D01*
X1126016Y854117D01*
X1144746D01*
X1144771Y854093D01*
X1145238Y853920D01*
X1146505Y852653D01*
X1151134D01*
X1154407Y855927D01*
Y860556D01*
X1151134Y863829D01*
D02*
G37*
G36*
X1604566Y858900D02*
X1595834D01*
X1589660Y852726D01*
Y843994D01*
X1595834Y837820D01*
X1604566D01*
X1610740Y843994D01*
Y852726D01*
X1604566Y858900D01*
D02*
G37*
G36*
X1519203Y879348D02*
X1514573D01*
X1513797Y878571D01*
X1480312D01*
X1476910Y877162D01*
X1462317Y862569D01*
X1438445D01*
X1437669Y863346D01*
X1433039D01*
X1429766Y860073D01*
Y855443D01*
X1433039Y852170D01*
X1437669D01*
X1438445Y852947D01*
X1464310D01*
X1467712Y854356D01*
X1482305Y868949D01*
X1512510D01*
Y852845D01*
X1512338Y852474D01*
X1510792Y850929D01*
Y846299D01*
X1512338Y844754D01*
X1512510Y844383D01*
Y826007D01*
X1512506Y826000D01*
X1512501Y825992D01*
X1512424Y825895D01*
X1512322Y825535D01*
X1511300Y824513D01*
Y819883D01*
X1514573Y816610D01*
X1519203D01*
X1522476Y819883D01*
Y824513D01*
X1520930Y826058D01*
X1520758Y826429D01*
Y844805D01*
X1520762Y844812D01*
X1520767Y844820D01*
X1520844Y844917D01*
X1520946Y845277D01*
X1521968Y846299D01*
Y850929D01*
X1520946Y851951D01*
X1520844Y852311D01*
X1520768Y852408D01*
X1520762Y852416D01*
X1520758Y852423D01*
Y869529D01*
X1520930Y869900D01*
X1522476Y871445D01*
Y876075D01*
X1519203Y879348D01*
D02*
G37*
G36*
X1604566Y833500D02*
X1595834D01*
X1589660Y827326D01*
Y818594D01*
X1595834Y812420D01*
X1604566D01*
X1610740Y818594D01*
Y827326D01*
X1604566Y833500D01*
D02*
G37*
G36*
X1061882Y826516D02*
X1052413D01*
X1045718Y819820D01*
Y810351D01*
X1052413Y803656D01*
X1061882D01*
X1064342Y806115D01*
X1064346Y806116D01*
X1064473Y806123D01*
X1064561Y806165D01*
X1064619Y806178D01*
X1064655Y806203D01*
X1183135D01*
X1183253Y806161D01*
X1183329Y806124D01*
X1183392Y806062D01*
X1183483Y806024D01*
X1183528Y805994D01*
X1183585Y805982D01*
X1183767Y805906D01*
X1187542Y802132D01*
X1197010D01*
X1203706Y808828D01*
Y818297D01*
X1197010Y824992D01*
X1187542D01*
X1185293Y822743D01*
X1185225Y822741D01*
X1185128Y822699D01*
X1066066D01*
X1065975Y822730D01*
X1065883Y822772D01*
X1065816Y822836D01*
X1065726Y822870D01*
X1065683Y822898D01*
X1065625Y822909D01*
X1065406Y822992D01*
X1061882Y826516D01*
D02*
G37*
G36*
X1604566Y808100D02*
X1595834D01*
X1589660Y801926D01*
Y793194D01*
X1595834Y787020D01*
X1604566D01*
X1610740Y793194D01*
Y801926D01*
X1604566Y808100D01*
D02*
G37*
G36*
X1226341Y864108D02*
X1221711D01*
X1218438Y860835D01*
Y856205D01*
X1221711Y852932D01*
X1226341D01*
X1227117Y853709D01*
X1238265D01*
Y786935D01*
X1237488Y786159D01*
Y781529D01*
X1240761Y778256D01*
X1245391D01*
X1248664Y781529D01*
Y786159D01*
X1247887Y786935D01*
Y852653D01*
X1251970D01*
X1255243Y855927D01*
Y860556D01*
X1251970Y863829D01*
X1247341D01*
X1246843Y863331D01*
X1227117D01*
X1226341Y864108D01*
D02*
G37*
G36*
X732806Y792860D02*
X724074D01*
X717900Y786686D01*
Y777954D01*
X724074Y771780D01*
X732806D01*
X738980Y777954D01*
Y786686D01*
X732806Y792860D01*
D02*
G37*
G36*
X713580D02*
X692500D01*
Y771780D01*
X713580D01*
Y792860D01*
D02*
G37*
G36*
X968995Y791536D02*
X960263D01*
X954089Y785362D01*
Y776630D01*
X960263Y770456D01*
X968995D01*
X975169Y776630D01*
Y785362D01*
X968995Y791536D01*
D02*
G37*
G36*
X949769D02*
X928689D01*
Y770456D01*
X949769D01*
Y791536D01*
D02*
G37*
G36*
X1604566Y782700D02*
X1595834D01*
X1589660Y776526D01*
Y767794D01*
X1595834Y761620D01*
X1604566D01*
X1610740Y767794D01*
Y776526D01*
X1604566Y782700D01*
D02*
G37*
G36*
Y757300D02*
X1595834D01*
X1589660Y751126D01*
Y742394D01*
X1595834Y736220D01*
X1604566D01*
X1610740Y742394D01*
Y751126D01*
X1604566Y757300D01*
D02*
G37*
G36*
X1275938Y735381D02*
X1275695Y735280D01*
X1275437Y735335D01*
X1275232Y735202D01*
X1257428D01*
Y714122D01*
X1275232D01*
X1275437Y713989D01*
X1275695Y714044D01*
X1275938Y713943D01*
X1276369Y714122D01*
X1278508D01*
Y715932D01*
X1278663Y716013D01*
X1279242Y716215D01*
X1280099Y716414D01*
X1359548D01*
X1390784Y685178D01*
Y607455D01*
X1390742Y607350D01*
X1390684Y607280D01*
X1390661Y607201D01*
X1390630Y607147D01*
X1390621Y607071D01*
X1390564Y606882D01*
X1387602Y603921D01*
Y594451D01*
X1394297Y587756D01*
X1403766D01*
X1410462Y594451D01*
Y603921D01*
X1407500Y606882D01*
X1407443Y607071D01*
X1407434Y607147D01*
X1407403Y607202D01*
X1407380Y607280D01*
X1407322Y607350D01*
X1407280Y607455D01*
Y688594D01*
X1404864Y694426D01*
X1368796Y730494D01*
X1362964Y732910D01*
X1280099D01*
X1279242Y733109D01*
X1278663Y733311D01*
X1278508Y733392D01*
Y735202D01*
X1276369D01*
X1275938Y735381D01*
D02*
G37*
G36*
X1246934Y735202D02*
X1238202D01*
X1232028Y729028D01*
Y720296D01*
X1238202Y714122D01*
X1246934D01*
X1253108Y720296D01*
Y729028D01*
X1246934Y735202D01*
D02*
G37*
G36*
X1221534D02*
X1212802D01*
X1206628Y729028D01*
Y720296D01*
X1212802Y714122D01*
X1221534D01*
X1227708Y720296D01*
Y729028D01*
X1221534Y735202D01*
D02*
G37*
G36*
X1196134D02*
X1187402D01*
X1181228Y729028D01*
Y720296D01*
X1187402Y714122D01*
X1196134D01*
X1202308Y720296D01*
Y729028D01*
X1196134Y735202D01*
D02*
G37*
G36*
X1170734D02*
X1162002D01*
X1155828Y729028D01*
Y720296D01*
X1162002Y714122D01*
X1170734D01*
X1176908Y720296D01*
Y729028D01*
X1170734Y735202D01*
D02*
G37*
G36*
X1604566Y731900D02*
X1595834D01*
X1589660Y725726D01*
Y716994D01*
X1595834Y710820D01*
X1604566D01*
X1610740Y716994D01*
Y725726D01*
X1604566Y731900D01*
D02*
G37*
G36*
X478235Y716340D02*
X469669D01*
X463612Y710283D01*
Y701717D01*
X469669Y695660D01*
X478235D01*
X484292Y701717D01*
Y710283D01*
X478235Y716340D01*
D02*
G37*
G36*
X452835D02*
X444269D01*
X438212Y710283D01*
Y701717D01*
X444269Y695660D01*
X452835D01*
X458892Y701717D01*
Y710283D01*
X452835Y716340D01*
D02*
G37*
G36*
X427435D02*
X418869D01*
X412812Y710283D01*
Y701717D01*
X418869Y695660D01*
X427435D01*
X433492Y701717D01*
Y710283D01*
X427435Y716340D01*
D02*
G37*
G36*
X402035D02*
X393469D01*
X387412Y710283D01*
Y701717D01*
X393469Y695660D01*
X402035D01*
X408092Y701717D01*
Y710283D01*
X402035Y716340D01*
D02*
G37*
G36*
X376635D02*
X368069D01*
X362012Y710283D01*
Y701717D01*
X368069Y695660D01*
X376635D01*
X382692Y701717D01*
Y710283D01*
X376635Y716340D01*
D02*
G37*
G36*
X325835D02*
X317269D01*
X311212Y710283D01*
Y701717D01*
X317269Y695660D01*
X325835D01*
X331892Y701717D01*
Y710283D01*
X325835Y716340D01*
D02*
G37*
G36*
X275035D02*
X266469D01*
X260412Y710283D01*
Y701717D01*
X266469Y695660D01*
X275035D01*
X281092Y701717D01*
Y710283D01*
X275035Y716340D01*
D02*
G37*
G36*
X249635D02*
X241069D01*
X235012Y710283D01*
Y701717D01*
X241069Y695660D01*
X249635D01*
X255692Y701717D01*
Y710283D01*
X249635Y716340D01*
D02*
G37*
G36*
X224235D02*
X215669D01*
X209612Y710283D01*
Y701717D01*
X215669Y695660D01*
X224235D01*
X230292Y701717D01*
Y710283D01*
X224235Y716340D01*
D02*
G37*
G36*
X198835D02*
X190269D01*
X184212Y710283D01*
Y701717D01*
X190269Y695660D01*
X198835D01*
X204892Y701717D01*
Y710283D01*
X198835Y716340D01*
D02*
G37*
G36*
X173435D02*
X164869D01*
X158812Y710283D01*
Y701717D01*
X164869Y695660D01*
X173435D01*
X179492Y701717D01*
Y710283D01*
X173435Y716340D01*
D02*
G37*
G36*
X148035D02*
X139469D01*
X133412Y710283D01*
Y701717D01*
X139469Y695660D01*
X148035D01*
X154092Y701717D01*
Y710283D01*
X148035Y716340D01*
D02*
G37*
G36*
X122635D02*
X114069D01*
X108012Y710283D01*
Y701717D01*
X114069Y695660D01*
X122635D01*
X128692Y701717D01*
Y710283D01*
X122635Y716340D01*
D02*
G37*
G36*
X97235D02*
X88669D01*
X82612Y710283D01*
Y701717D01*
X88669Y695660D01*
X97235D01*
X103292Y701717D01*
Y710283D01*
X97235Y716340D01*
D02*
G37*
G36*
X71835D02*
X63269D01*
X57212Y710283D01*
Y701717D01*
X63269Y695660D01*
X71835D01*
X77892Y701717D01*
Y710283D01*
X71835Y716340D01*
D02*
G37*
G36*
X46435D02*
X37869D01*
X31812Y710283D01*
Y701717D01*
X37869Y695660D01*
X46435D01*
X52492Y701717D01*
Y710283D01*
X46435Y716340D01*
D02*
G37*
G36*
X1569006Y970540D02*
X1560274D01*
X1554100Y964366D01*
Y955634D01*
X1556675Y953059D01*
X1556846Y952598D01*
X1557604Y951781D01*
X1558858Y950274D01*
X1559311Y949647D01*
X1559689Y949058D01*
X1559975Y948539D01*
X1560173Y948100D01*
X1560262Y947840D01*
Y696635D01*
X1560090Y696264D01*
X1558544Y694719D01*
Y690089D01*
X1561817Y686816D01*
X1566447D01*
X1569720Y690089D01*
Y694719D01*
X1568698Y695741D01*
X1568596Y696101D01*
X1568519Y696198D01*
X1568514Y696206D01*
X1568510Y696213D01*
Y947761D01*
X1568596Y948006D01*
X1568790Y948414D01*
X1569073Y948893D01*
X1569449Y949435D01*
X1569901Y950005D01*
X1571178Y951384D01*
X1571953Y952122D01*
X1572179Y952633D01*
X1575180Y955634D01*
Y964366D01*
X1569006Y970540D01*
D02*
G37*
G36*
X805560Y704468D02*
X784480D01*
Y700812D01*
X784347Y700567D01*
X784331Y700412D01*
X784245Y700360D01*
X783906Y700222D01*
X783502Y700114D01*
X750062D01*
X745688Y698302D01*
X682696Y635310D01*
X680884Y630936D01*
Y599528D01*
X680776Y599124D01*
X680638Y598785D01*
X680586Y598699D01*
X680431Y598683D01*
X680186Y598550D01*
X676530D01*
Y577470D01*
X680135D01*
X680437Y577306D01*
X680595Y577290D01*
X680645Y577208D01*
X680781Y576873D01*
X680889Y576476D01*
Y482092D01*
X681138Y481489D01*
Y473710D01*
X681736Y472267D01*
Y471395D01*
X682352Y470779D01*
X682950Y469336D01*
X684393Y468738D01*
X685009Y468122D01*
X685881D01*
X687324Y467524D01*
X688767Y468122D01*
X689639D01*
X690255Y468738D01*
X691698Y469336D01*
X692296Y470779D01*
X692912Y471395D01*
Y472267D01*
X693510Y473710D01*
Y475906D01*
X726031D01*
X727084Y473366D01*
X725932Y472215D01*
Y467585D01*
X728697Y464820D01*
X725932Y462055D01*
Y457425D01*
X729205Y454152D01*
X733835D01*
X737108Y457425D01*
Y459217D01*
X737315Y459670D01*
X737317Y459704D01*
X740848Y463236D01*
X850724D01*
X851777Y460696D01*
X850366Y459286D01*
Y454656D01*
X853639Y451383D01*
X858269D01*
X861810Y451341D01*
X863317Y449834D01*
X865815D01*
X866062Y449758D01*
X870875Y444945D01*
X867664Y441735D01*
Y439943D01*
X867457Y439490D01*
X867456Y439456D01*
X857636Y429636D01*
X856428Y426720D01*
Y404113D01*
X856424Y404106D01*
X856419Y404098D01*
X856342Y404001D01*
X856240Y403641D01*
X855218Y402619D01*
Y397989D01*
X858491Y394716D01*
X863121D01*
X865124Y396719D01*
X867127Y394716D01*
X871757D01*
X875030Y397989D01*
Y402619D01*
X871757Y405892D01*
X867127D01*
X864676Y407033D01*
Y425012D01*
X873288Y433624D01*
X873322Y433625D01*
X873775Y433832D01*
X875567D01*
X878777Y437043D01*
X901386Y414434D01*
Y399980D01*
X884646Y383241D01*
X884612Y383239D01*
X884159Y383032D01*
X882367D01*
X879094Y379759D01*
Y375129D01*
X882367Y371856D01*
X886997D01*
X890270Y375129D01*
Y376921D01*
X890477Y377374D01*
X890479Y377408D01*
X908426Y395356D01*
X909634Y398272D01*
Y411921D01*
X911981Y412893D01*
X913809Y411065D01*
X916725Y409857D01*
X969805D01*
X970777Y407510D01*
X962106Y398840D01*
X942096D01*
X942070Y398864D01*
X941603Y399037D01*
X940337Y400304D01*
X935707D01*
X932434Y397031D01*
Y392401D01*
X935707Y389128D01*
X940337D01*
X941603Y390395D01*
X942070Y390568D01*
X942096Y390592D01*
X963814D01*
X966730Y391800D01*
X978281Y403350D01*
X979727Y403173D01*
X980652Y400506D01*
X928334Y348189D01*
X928300Y348187D01*
X927847Y347980D01*
X926055D01*
X922782Y344707D01*
Y340077D01*
X925876Y336984D01*
X925801Y336804D01*
X922528Y333531D01*
Y328901D01*
X925801Y325628D01*
X930431D01*
X933704Y328901D01*
Y330693D01*
X933911Y331146D01*
X933913Y331180D01*
X987552Y384820D01*
X990092Y383768D01*
Y381479D01*
X991492Y380079D01*
X991683Y379622D01*
Y352940D01*
X991625Y352872D01*
X991488Y352452D01*
X990346Y351311D01*
Y346681D01*
X993619Y343408D01*
X998249D01*
X1001522Y346681D01*
Y351311D01*
X1000122Y352711D01*
X999931Y353168D01*
Y379850D01*
X999989Y379918D01*
X1000126Y380338D01*
X1001268Y381479D01*
Y386109D01*
X997995Y389382D01*
X995706D01*
X994654Y391922D01*
X997134Y394402D01*
X1112774D01*
X1115690Y395610D01*
X1282482Y562402D01*
X1282516Y562403D01*
X1282969Y562610D01*
X1284761D01*
X1288034Y565883D01*
Y570513D01*
X1284761Y573786D01*
X1284377Y574711D01*
X1286292Y576626D01*
X1286326Y576627D01*
X1286779Y576834D01*
X1288571D01*
X1291844Y580107D01*
Y584737D01*
X1290349Y586232D01*
X1291111Y588772D01*
X1294384Y592045D01*
Y596675D01*
X1291111Y599948D01*
X1286481D01*
X1283208Y596675D01*
Y594883D01*
X1283001Y594430D01*
X1283000Y594396D01*
X1280038Y591435D01*
X1279652Y591595D01*
X1276379Y594868D01*
X1271749D01*
X1268476Y591595D01*
Y589803D01*
X1268269Y589350D01*
X1268268Y589316D01*
X1266005Y587053D01*
X1264964Y587485D01*
X1261691Y590758D01*
X1257062D01*
X1253788Y587485D01*
Y585693D01*
X1253581Y585240D01*
X1251579Y583854D01*
X1248693Y586740D01*
X1244063D01*
X1240790Y583467D01*
Y581675D01*
X1240583Y581222D01*
X1240582Y581188D01*
X1090879Y431485D01*
X933285D01*
X930431Y434340D01*
X925801D01*
X922528Y431067D01*
Y428752D01*
X919705D01*
X916432Y425479D01*
Y423698D01*
X913892Y422646D01*
X892038Y444500D01*
X893090Y447040D01*
X896141D01*
X899414Y450313D01*
Y453644D01*
X901983D01*
X905256Y456917D01*
Y461547D01*
X901983Y464820D01*
X899815D01*
X899424Y464964D01*
X890723Y473665D01*
X890649Y476285D01*
X890985Y476721D01*
X907832Y493568D01*
X907866Y493569D01*
X908319Y493776D01*
X910111D01*
X913384Y497049D01*
Y501679D01*
X910365Y504698D01*
X912114Y506447D01*
Y511077D01*
X910363Y512827D01*
X910250Y516306D01*
X912907Y518963D01*
X913188Y519012D01*
X915661Y518125D01*
X915768Y517017D01*
X915162Y516411D01*
Y511781D01*
X918435Y508508D01*
X921258D01*
Y506193D01*
X924531Y502920D01*
X926846D01*
Y498827D01*
X930119Y495554D01*
X930532Y495178D01*
X931603Y493046D01*
X931442Y492672D01*
X930530Y491744D01*
X928849D01*
X925576Y488471D01*
Y484184D01*
X912886D01*
X912860Y484208D01*
X912393Y484381D01*
X911127Y485648D01*
X906497D01*
X903224Y482375D01*
Y477745D01*
X906497Y474472D01*
X911127D01*
X911352Y474379D01*
Y470887D01*
X914625Y467614D01*
X919255D01*
X920521Y468881D01*
X920988Y469054D01*
X921014Y469078D01*
X925948D01*
X936932Y458094D01*
X939848Y456886D01*
X941473D01*
X942445Y454539D01*
X941578Y453673D01*
Y450088D01*
X937485D01*
X934212Y446815D01*
Y442185D01*
X937485Y438912D01*
X942115D01*
X943381Y440179D01*
X943848Y440352D01*
X943874Y440376D01*
X1091184D01*
X1094100Y441584D01*
X1154466Y501950D01*
X1154500Y501951D01*
X1154953Y502158D01*
X1156745D01*
X1160018Y505431D01*
Y510061D01*
X1156745Y513334D01*
X1152115D01*
X1150174Y511392D01*
X1148326Y510442D01*
X1146897Y511497D01*
X1144807Y513588D01*
X1140177D01*
X1136904Y510315D01*
Y508523D01*
X1136697Y508070D01*
X1136695Y508036D01*
X1084142Y455482D01*
X1078012D01*
X1077506Y458022D01*
X1077680Y458094D01*
X1107073Y487486D01*
X1107096Y487496D01*
X1107130Y487508D01*
X1107154Y487514D01*
X1107281Y487536D01*
X1107510Y487680D01*
X1108739D01*
X1112012Y490953D01*
Y495583D01*
X1108739Y498856D01*
X1104109D01*
X1100836Y495583D01*
Y493085D01*
X1100760Y492838D01*
X1097217Y489295D01*
X1094007Y492506D01*
X1093374Y494034D01*
X1135835Y536495D01*
X1135919Y536501D01*
X1136319Y536702D01*
X1137949D01*
X1141222Y539975D01*
Y544605D01*
X1138060Y547767D01*
X1139901Y549608D01*
Y554237D01*
X1137405Y556733D01*
X1139190Y558517D01*
Y563147D01*
X1135917Y566420D01*
X1131287D01*
X1128014Y563147D01*
Y561337D01*
X1127806Y560865D01*
X1127801Y560654D01*
X1127792Y560555D01*
X1127778Y560477D01*
X1127770Y560443D01*
X1053014Y485687D01*
X1016081D01*
X1016051Y485705D01*
X1015986Y485751D01*
X1015910Y485814D01*
X1015757Y485960D01*
X1015276Y486147D01*
X1013997Y487426D01*
X1009367D01*
X1006094Y484153D01*
Y479612D01*
X966342D01*
X960583Y485372D01*
X960581Y485406D01*
X960374Y485859D01*
Y487651D01*
X957101Y490924D01*
X952471D01*
X949745Y488198D01*
X947205Y488971D01*
Y593020D01*
X957445Y603260D01*
X957479Y603268D01*
X957557Y603282D01*
X957656Y603291D01*
X957867Y603296D01*
X958339Y603504D01*
X960149D01*
X963422Y606777D01*
Y611407D01*
X960149Y614680D01*
X955519D01*
X953262Y612423D01*
X950751Y614934D01*
X946121D01*
X943610Y612423D01*
X941099Y614934D01*
X936469D01*
X934339Y612804D01*
X932017Y615125D01*
X954626Y637734D01*
X997702D01*
X997728Y637710D01*
X998195Y637537D01*
X999461Y636270D01*
X1004091D01*
X1007364Y639543D01*
Y644173D01*
X1004091Y647446D01*
X999461D01*
X998195Y646179D01*
X997728Y646006D01*
X997702Y645982D01*
X952918D01*
X950002Y644774D01*
X920617Y615389D01*
X918270Y616361D01*
Y649802D01*
X922568Y654100D01*
X922678Y654110D01*
X923045Y654304D01*
X924589D01*
X927862Y657577D01*
Y662207D01*
X924589Y665480D01*
X919959D01*
X916686Y662207D01*
Y660143D01*
X916518Y659714D01*
X911230Y654426D01*
X910022Y651510D01*
Y613167D01*
X907482Y612571D01*
X904631Y615422D01*
X900001D01*
X896728Y612149D01*
Y607520D01*
X897995Y606253D01*
X898168Y605786D01*
X898192Y605761D01*
Y566375D01*
X895676Y565358D01*
X895652Y565358D01*
X895640Y565359D01*
X892870Y568128D01*
Y633212D01*
X892894Y633238D01*
X893067Y633705D01*
X894334Y634971D01*
Y639601D01*
X891061Y642874D01*
X886431D01*
X883158Y639601D01*
Y634971D01*
X884425Y633705D01*
X884598Y633238D01*
X884622Y633212D01*
Y566420D01*
X885830Y563504D01*
X889808Y559526D01*
X889809Y559492D01*
X890016Y559039D01*
Y557247D01*
X893289Y553974D01*
X897919D01*
X898192Y553861D01*
Y526072D01*
X885154Y513035D01*
X885120Y513033D01*
X884667Y512826D01*
X882875D01*
X879602Y509553D01*
Y504923D01*
X882367Y502158D01*
X879602Y499393D01*
Y497143D01*
X877345Y495808D01*
X875553D01*
X875100Y496015D01*
X875066Y496017D01*
X869360Y501723D01*
X869359Y501723D01*
X857056Y514026D01*
Y531876D01*
X855848Y534792D01*
X831551Y559090D01*
X831549Y559124D01*
X831342Y559577D01*
Y561369D01*
X828069Y564642D01*
X823439D01*
X820166Y561369D01*
Y556739D01*
X823439Y553466D01*
X825231D01*
X825684Y553259D01*
X825718Y553257D01*
X848808Y530168D01*
Y518922D01*
X844267D01*
X840994Y515649D01*
X839889Y515191D01*
X832312Y522768D01*
X832311Y522802D01*
X832104Y523255D01*
Y525047D01*
X828831Y528320D01*
X824201D01*
X820928Y525047D01*
Y520417D01*
X824201Y517144D01*
X824700D01*
X826335Y514977D01*
X826304Y514421D01*
X824230Y512347D01*
Y507717D01*
X827503Y504444D01*
X829295D01*
X829748Y504237D01*
X829782Y504235D01*
X855422Y478596D01*
X854370Y476056D01*
X784287D01*
X782994Y478596D01*
X783228Y479161D01*
X783844Y479777D01*
Y480649D01*
X784442Y482092D01*
X783844Y483535D01*
Y484407D01*
X783228Y485023D01*
X782630Y486466D01*
X781187Y487064D01*
X780571Y487680D01*
X779699D01*
X778256Y488278D01*
X693260D01*
Y576476D01*
X693367Y576873D01*
X693504Y577208D01*
X693554Y577290D01*
X693712Y577306D01*
X694014Y577470D01*
X697610D01*
Y598550D01*
X693954D01*
X693709Y598683D01*
X693554Y598699D01*
X693502Y598785D01*
X693364Y599124D01*
X693256Y599528D01*
Y628374D01*
X752624Y687742D01*
X783502D01*
X783906Y687634D01*
X784245Y687496D01*
X784331Y687444D01*
X784347Y687289D01*
X784480Y687044D01*
Y683388D01*
X805560D01*
Y704468D01*
D02*
G37*
G36*
X1244121Y675132D02*
X1239491D01*
X1239402Y675042D01*
X1146166D01*
X1146077Y675132D01*
X1141447D01*
X1138174Y671859D01*
Y667229D01*
X1141447Y663956D01*
X1146077D01*
X1146166Y664045D01*
X1239402D01*
X1239491Y663956D01*
X1244121D01*
X1244210Y664045D01*
X1295408D01*
X1328002Y631452D01*
Y534788D01*
X1327912Y534699D01*
Y530069D01*
X1331185Y526796D01*
X1335815D01*
X1335914Y526755D01*
Y522684D01*
X1342088Y516510D01*
X1350820D01*
X1356994Y522684D01*
Y531416D01*
X1350820Y537590D01*
X1342088D01*
X1341539Y537040D01*
X1338999Y538092D01*
Y541681D01*
X1341345Y542653D01*
X1342088Y541910D01*
X1350820D01*
X1356994Y548084D01*
Y556816D01*
X1350820Y562990D01*
X1342088D01*
X1341345Y562247D01*
X1338999Y563219D01*
Y567081D01*
X1341345Y568053D01*
X1342088Y567310D01*
X1350820D01*
X1356994Y573484D01*
Y582216D01*
X1350820Y588390D01*
X1342088D01*
X1341345Y587647D01*
X1338999Y588619D01*
Y633730D01*
X1337388Y637618D01*
X1301574Y673432D01*
X1297686Y675042D01*
X1244210D01*
X1244121Y675132D01*
D02*
G37*
G36*
X1029745Y674624D02*
X1025115D01*
X1025026Y674535D01*
X967604D01*
X967515Y674624D01*
X962885D01*
X959612Y671351D01*
Y666721D01*
X962885Y663448D01*
X967515D01*
X967604Y663538D01*
X1025026D01*
X1025115Y663448D01*
X1029745D01*
X1033018Y666721D01*
Y671351D01*
X1029745Y674624D01*
D02*
G37*
G36*
X799386Y679068D02*
X790654D01*
X784480Y672894D01*
Y664162D01*
X790654Y657988D01*
X799386D01*
X805560Y664162D01*
Y672894D01*
X799386Y679068D01*
D02*
G37*
G36*
X300435Y716340D02*
X291869D01*
X285812Y710283D01*
Y706178D01*
X285609Y705685D01*
X285613Y703616D01*
X285562Y702818D01*
X285474Y702090D01*
X285359Y701465D01*
X285223Y700947D01*
X285075Y700538D01*
X284973Y700326D01*
X252106Y667459D01*
X252105Y667459D01*
X252097Y667458D01*
X251976Y667444D01*
X251636Y667258D01*
X250161D01*
X246888Y663985D01*
Y659355D01*
X250161Y656082D01*
X254791D01*
X258064Y659355D01*
Y661503D01*
X258213Y661902D01*
X290858Y694547D01*
X291082Y694658D01*
X291514Y694823D01*
X292060Y694982D01*
X292717Y695126D01*
X293449Y695245D01*
X295331Y695416D01*
X296403Y695454D01*
X296854Y695660D01*
X300435D01*
X306492Y701717D01*
Y710283D01*
X300435Y716340D01*
D02*
G37*
G36*
X799386Y653668D02*
X790654D01*
X784480Y647494D01*
Y638762D01*
X790654Y632588D01*
X799386D01*
X805560Y638762D01*
Y647494D01*
X799386Y653668D01*
D02*
G37*
G36*
X193342Y616076D02*
X184610D01*
X178436Y609902D01*
Y601170D01*
X184610Y594996D01*
X193342D01*
X199516Y601170D01*
Y609902D01*
X193342Y616076D01*
D02*
G37*
G36*
X167942D02*
X159210D01*
X153036Y609902D01*
Y601170D01*
X159210Y594996D01*
X167942D01*
X174116Y601170D01*
Y609902D01*
X167942Y616076D01*
D02*
G37*
G36*
X142542D02*
X133810D01*
X127636Y609902D01*
Y601170D01*
X133810Y594996D01*
X142542D01*
X148716Y601170D01*
Y609902D01*
X142542Y616076D01*
D02*
G37*
G36*
X117142D02*
X108410D01*
X102236Y609902D01*
Y601170D01*
X108410Y594996D01*
X117142D01*
X123316Y601170D01*
Y609902D01*
X117142Y616076D01*
D02*
G37*
G36*
X91742D02*
X83010D01*
X76836Y609902D01*
Y601170D01*
X83010Y594996D01*
X91742D01*
X97916Y601170D01*
Y609902D01*
X91742Y616076D01*
D02*
G37*
G36*
X66342D02*
X57610D01*
X51436Y609902D01*
Y601170D01*
X57610Y594996D01*
X66342D01*
X72516Y601170D01*
Y609902D01*
X66342Y616076D01*
D02*
G37*
G36*
X1614366Y601090D02*
X1605634D01*
X1599460Y594916D01*
Y586184D01*
X1605634Y580010D01*
X1614366D01*
X1620540Y586184D01*
Y594916D01*
X1614366Y601090D01*
D02*
G37*
G36*
X666036Y598550D02*
X657304D01*
X651130Y592376D01*
Y583644D01*
X657304Y577470D01*
X666036D01*
X672210Y583644D01*
Y592376D01*
X666036Y598550D01*
D02*
G37*
G36*
X539036D02*
X530304D01*
X524130Y592376D01*
Y583644D01*
X530304Y577470D01*
X539036D01*
X545210Y583644D01*
Y592376D01*
X539036Y598550D01*
D02*
G37*
G36*
X831371Y597662D02*
X826741D01*
X823468Y594389D01*
Y589759D01*
X826741Y586486D01*
X827825D01*
X827984Y586378D01*
X828112Y586351D01*
X828144Y586342D01*
X828187Y586326D01*
X828229Y586307D01*
X842488Y572048D01*
X842518Y571936D01*
Y569185D01*
X845791Y565912D01*
X850421D01*
X853694Y569185D01*
Y573815D01*
X850421Y577088D01*
X849337D01*
X849178Y577196D01*
X849050Y577223D01*
X849018Y577232D01*
X848975Y577248D01*
X848933Y577267D01*
X834674Y591526D01*
X834644Y591638D01*
Y594389D01*
X831371Y597662D01*
D02*
G37*
G36*
X748059Y575310D02*
X743429D01*
X740156Y572037D01*
Y567407D01*
X743429Y564134D01*
X748059D01*
X749200Y565275D01*
X749620Y565413D01*
X749688Y565471D01*
X801262D01*
X801719Y565280D01*
X803119Y563880D01*
X807749D01*
X811022Y567153D01*
Y571783D01*
X807749Y575056D01*
X803119D01*
X801978Y573914D01*
X801558Y573777D01*
X801490Y573719D01*
X749916D01*
X749459Y573910D01*
X748059Y575310D01*
D02*
G37*
G36*
X1614366Y575690D02*
X1605634D01*
X1599460Y569516D01*
Y560784D01*
X1605634Y554610D01*
X1614366D01*
X1620540Y560784D01*
Y569516D01*
X1614366Y575690D01*
D02*
G37*
G36*
X996371Y577940D02*
X984903D01*
X976794Y569831D01*
Y558363D01*
X984903Y550254D01*
X996371D01*
X1004480Y558363D01*
Y569831D01*
X996371Y577940D01*
D02*
G37*
G36*
X1445054Y562990D02*
X1436322D01*
X1430148Y556816D01*
Y548084D01*
X1436322Y541910D01*
X1445054D01*
X1451228Y548084D01*
Y556816D01*
X1445054Y562990D01*
D02*
G37*
G36*
X1620540Y550290D02*
X1599460D01*
Y529210D01*
X1620540D01*
Y550290D01*
D02*
G37*
G36*
X1445054Y588390D02*
X1436322D01*
X1430148Y582216D01*
Y573484D01*
X1436322Y567310D01*
X1445054D01*
X1447346Y569602D01*
X1468768D01*
X1504960Y533410D01*
X1510792Y530994D01*
X1518779D01*
X1518884Y530952D01*
X1518954Y530894D01*
X1519033Y530871D01*
X1519086Y530840D01*
X1519163Y530831D01*
X1519352Y530774D01*
X1522314Y527812D01*
X1531783D01*
X1538478Y534507D01*
Y543977D01*
X1531783Y550672D01*
X1522314D01*
X1519352Y547710D01*
X1519163Y547653D01*
X1519086Y547644D01*
X1519032Y547613D01*
X1518954Y547590D01*
X1518884Y547532D01*
X1518779Y547490D01*
X1514208D01*
X1478016Y583682D01*
X1472184Y586098D01*
X1447346D01*
X1445054Y588390D01*
D02*
G37*
G36*
Y537590D02*
X1436322D01*
X1430148Y531416D01*
Y522684D01*
X1436322Y516510D01*
X1445054D01*
X1451228Y522684D01*
Y531416D01*
X1445054Y537590D01*
D02*
G37*
G36*
X1025144Y549167D02*
X1005567Y529590D01*
X1025144Y510013D01*
X1044721Y529590D01*
X1025144Y549167D01*
D02*
G37*
G36*
X564804Y675132D02*
X555336D01*
X548640Y668437D01*
Y658968D01*
X551822Y655785D01*
Y598550D01*
X549530D01*
Y577470D01*
X551822D01*
Y546143D01*
X548640Y542961D01*
Y533492D01*
X551822Y530309D01*
Y508380D01*
X549530D01*
Y487300D01*
X570610D01*
Y508380D01*
X568318D01*
Y530309D01*
X571500Y533492D01*
Y542961D01*
X568318Y546143D01*
Y577470D01*
X570610D01*
Y598550D01*
X568318D01*
Y655785D01*
X571500Y658968D01*
Y668437D01*
X564804Y675132D01*
D02*
G37*
G36*
X539036Y508380D02*
X530304D01*
X524130Y502206D01*
Y493474D01*
X530304Y487300D01*
X539036D01*
X545210Y493474D01*
Y502206D01*
X539036Y508380D01*
D02*
G37*
G36*
X287000Y494264D02*
X266720D01*
Y473984D01*
X287000D01*
Y494264D01*
D02*
G37*
G36*
X1297207Y537972D02*
X1292577D01*
X1289304Y534699D01*
Y530069D01*
X1289521Y529853D01*
Y499745D01*
X1289558Y499654D01*
Y499582D01*
X1289521Y499491D01*
Y481240D01*
X1289519Y481236D01*
X1289484Y481153D01*
X1289481Y481147D01*
X1289416Y481077D01*
X1289396Y481024D01*
X1289387Y481011D01*
X1289380Y480980D01*
X1289244Y480616D01*
X1287272Y478644D01*
Y472332D01*
X1291736Y467868D01*
X1298048D01*
X1302512Y472332D01*
Y478644D01*
X1300769Y480387D01*
X1300660Y480727D01*
X1300657Y480743D01*
X1300653Y480749D01*
X1300637Y480801D01*
X1300569Y480881D01*
X1300555Y480909D01*
X1300517Y481006D01*
Y497087D01*
X1300734Y497303D01*
Y501933D01*
X1300517Y502149D01*
Y532257D01*
X1300480Y532348D01*
Y534699D01*
X1297207Y537972D01*
D02*
G37*
G36*
X1167667Y434594D02*
X1163037D01*
X1159764Y431321D01*
Y430016D01*
X1159096Y428925D01*
X1157224Y428167D01*
X1156208Y428588D01*
X1154765Y427990D01*
X1153893D01*
X1153277Y427374D01*
X1151834Y426776D01*
X1151236Y425333D01*
X1150620Y424717D01*
Y423845D01*
X1150022Y422402D01*
Y355896D01*
X1149928Y355615D01*
X1149722Y355231D01*
X1149492Y354950D01*
X1149211Y354720D01*
X1148827Y354514D01*
X1148546Y354420D01*
X1108798D01*
X1108394Y354528D01*
X1108055Y354666D01*
X1107970Y354718D01*
X1107953Y354873D01*
X1107820Y355118D01*
Y358774D01*
X1086740D01*
Y337694D01*
X1107820D01*
Y341350D01*
X1107953Y341595D01*
X1107970Y341750D01*
X1108055Y341802D01*
X1108394Y341940D01*
X1108798Y342048D01*
X1177888D01*
X1182262Y343860D01*
X1193856Y355454D01*
X1195668Y359828D01*
Y395732D01*
X1195070Y397175D01*
Y398047D01*
X1194454Y398663D01*
X1193856Y400106D01*
X1192413Y400704D01*
X1191797Y401320D01*
X1190925D01*
X1189482Y401918D01*
X1188039Y401320D01*
X1187167D01*
X1186551Y400704D01*
X1185108Y400106D01*
X1184510Y398663D01*
X1183894Y398047D01*
Y397175D01*
X1183296Y395732D01*
Y362390D01*
X1175326Y354420D01*
X1163870D01*
X1163589Y354514D01*
X1163205Y354720D01*
X1162924Y354950D01*
X1162694Y355231D01*
X1162488Y355615D01*
X1162394Y355896D01*
Y390280D01*
X1163291Y390652D01*
X1167921D01*
X1171194Y393925D01*
Y398555D01*
X1169794Y399955D01*
X1169603Y400412D01*
Y408968D01*
X1170149Y409194D01*
X1174779D01*
X1176324Y410740D01*
X1176695Y410912D01*
X1197426D01*
X1202101Y406237D01*
X1202102Y406203D01*
X1202309Y405750D01*
Y403958D01*
X1205582Y400685D01*
X1210212D01*
X1213485Y403958D01*
Y408588D01*
X1210212Y411861D01*
X1208420D01*
X1207967Y412068D01*
X1207933Y412070D01*
X1202050Y417952D01*
X1199134Y419160D01*
X1176273D01*
X1176266Y419164D01*
X1176257Y419169D01*
X1176161Y419246D01*
X1175800Y419348D01*
X1174779Y420370D01*
X1170149D01*
X1169603Y420596D01*
Y425062D01*
X1169661Y425130D01*
X1169799Y425550D01*
X1170940Y426691D01*
Y431321D01*
X1167667Y434594D01*
D02*
G37*
G36*
X281060Y443464D02*
X272660D01*
X266720Y437524D01*
Y429124D01*
X272660Y423184D01*
X281060D01*
X287000Y429124D01*
Y437524D01*
X281060Y443464D01*
D02*
G37*
G36*
X793525Y445770D02*
X788895D01*
X785622Y442497D01*
Y437867D01*
X788895Y434594D01*
X790687D01*
X791140Y434387D01*
X791174Y434385D01*
X802336Y423224D01*
X801284Y420684D01*
X777504D01*
X777478Y420708D01*
X777011Y420881D01*
X775745Y422148D01*
X771115D01*
X767842Y418875D01*
Y414245D01*
X771115Y410972D01*
X775745D01*
X777011Y412239D01*
X777478Y412412D01*
X777504Y412436D01*
X843080D01*
X845677Y413512D01*
X848897D01*
X852170Y416785D01*
Y421415D01*
X848897Y424688D01*
X845820D01*
Y427003D01*
X842547Y430276D01*
X837917D01*
X836651Y429009D01*
X836184Y428836D01*
X836158Y428812D01*
X808412D01*
X797007Y440218D01*
X797005Y440252D01*
X796798Y440705D01*
Y442497D01*
X793525Y445770D01*
D02*
G37*
G36*
X391830Y548640D02*
X382361D01*
X375666Y541945D01*
Y532476D01*
X377854Y530287D01*
Y428055D01*
X376428Y426628D01*
Y417160D01*
X383124Y410464D01*
X392593D01*
X399288Y417160D01*
Y426628D01*
X397099Y428817D01*
Y531049D01*
X398526Y532476D01*
Y541945D01*
X391830Y548640D01*
D02*
G37*
G36*
X1255522Y467776D02*
X1245870D01*
X1243926Y466971D01*
X1243121Y465027D01*
Y403813D01*
X1243926Y401869D01*
X1245870Y401064D01*
X1255522D01*
X1257466Y401869D01*
X1258271Y403813D01*
Y465027D01*
X1257466Y466971D01*
X1255522Y467776D01*
D02*
G37*
G36*
X281060Y418064D02*
X272660D01*
X266720Y412124D01*
Y403724D01*
X272660Y397784D01*
X281060D01*
X287000Y403724D01*
Y412124D01*
X281060Y418064D01*
D02*
G37*
G36*
X564260Y482346D02*
X556896D01*
X551688Y477138D01*
Y469774D01*
X552330Y469132D01*
Y412069D01*
X552121Y411224D01*
X551831Y410453D01*
X551552Y409955D01*
X551332Y409697D01*
X551188Y409593D01*
X551058Y409543D01*
X550518Y409481D01*
X550228Y409320D01*
X548260D01*
Y407181D01*
X548081Y406749D01*
X548145Y406596D01*
X548099Y406437D01*
X548260Y406147D01*
Y388240D01*
X569340D01*
Y406318D01*
X569519Y406749D01*
X569340Y407181D01*
X569340Y407226D01*
X569364Y407659D01*
X569340Y409320D01*
X569340D01*
X568826Y409834D01*
Y469132D01*
X569468Y469774D01*
Y477138D01*
X564260Y482346D01*
D02*
G37*
G36*
X537766Y409320D02*
X529034D01*
X522860Y403146D01*
Y394414D01*
X529034Y388240D01*
X537766D01*
X543940Y394414D01*
Y403146D01*
X537766Y409320D01*
D02*
G37*
G36*
X281060Y392664D02*
X272660D01*
X266720Y386724D01*
Y378324D01*
X272660Y372384D01*
X281060D01*
X287000Y378324D01*
Y386724D01*
X281060Y392664D01*
D02*
G37*
G36*
Y367264D02*
X272660D01*
X266720Y361324D01*
Y352924D01*
X272660Y346984D01*
X281060D01*
X287000Y352924D01*
Y361324D01*
X281060Y367264D01*
D02*
G37*
G36*
X1076246Y358774D02*
X1067514D01*
X1061340Y352600D01*
Y343868D01*
X1067514Y337694D01*
X1076246D01*
X1082420Y343868D01*
Y352600D01*
X1076246Y358774D01*
D02*
G37*
G36*
X1050846D02*
X1042114D01*
X1035940Y352600D01*
Y343868D01*
X1042114Y337694D01*
X1050846D01*
X1057020Y343868D01*
Y352600D01*
X1050846Y358774D01*
D02*
G37*
G36*
X872011Y376682D02*
X867381D01*
X864108Y373409D01*
Y371602D01*
X861031D01*
X857758Y368329D01*
Y363699D01*
X861031Y360426D01*
X862823D01*
X863276Y360219D01*
X863310Y360218D01*
X892094Y331434D01*
X892095Y331400D01*
X892302Y330947D01*
Y329155D01*
X895575Y325882D01*
X900205D01*
X903478Y329155D01*
Y333785D01*
X902416Y334846D01*
X902237Y337312D01*
X902522Y337597D01*
X905510Y340585D01*
Y345215D01*
X902237Y348488D01*
X898134D01*
X875492Y371130D01*
X875491Y371164D01*
X875284Y371617D01*
Y373409D01*
X872011Y376682D01*
D02*
G37*
G36*
X281060Y341864D02*
X272660D01*
X266720Y335924D01*
Y327524D01*
X272660Y321584D01*
X281060D01*
X287000Y327524D01*
Y335924D01*
X281060Y341864D01*
D02*
G37*
G36*
X1167667Y338328D02*
X1163037D01*
X1159764Y335055D01*
Y330425D01*
X1161031Y329159D01*
X1161204Y328692D01*
X1161228Y328666D01*
Y327336D01*
X1155262Y321370D01*
X870214D01*
X870188Y321394D01*
X869721Y321567D01*
X868455Y322834D01*
X863825D01*
X860552Y319561D01*
Y314931D01*
X863825Y311658D01*
X868455D01*
X869721Y312925D01*
X870188Y313098D01*
X870214Y313122D01*
X1156970D01*
X1159886Y314330D01*
X1168268Y322712D01*
X1169476Y325628D01*
Y328666D01*
X1169500Y328692D01*
X1169673Y329159D01*
X1170940Y330425D01*
Y335055D01*
X1167667Y338328D01*
D02*
G37*
G36*
X1254760Y337013D02*
X1245108D01*
X1243164Y336208D01*
X1242359Y334264D01*
Y273050D01*
X1243164Y271106D01*
X1245108Y270301D01*
X1254760D01*
X1256704Y271106D01*
X1257509Y273050D01*
Y334264D01*
X1256704Y336208D01*
X1254760Y337013D01*
D02*
G37*
G36*
X1146682Y284734D02*
X1139318D01*
X1138676Y284092D01*
X1027430D01*
X1021598Y281676D01*
X990610Y250688D01*
X988194Y244856D01*
Y212791D01*
X987995Y211934D01*
X987793Y211355D01*
X987712Y211200D01*
X985902D01*
Y209061D01*
X985723Y208629D01*
X985824Y208386D01*
X985769Y208129D01*
X985902Y207924D01*
Y193396D01*
X985769Y193191D01*
X985824Y192934D01*
X985723Y192691D01*
X985902Y192259D01*
Y190120D01*
X987712D01*
X987793Y189965D01*
X987995Y189386D01*
X988194Y188529D01*
Y157086D01*
X875932Y44824D01*
X690669D01*
X689841Y45927D01*
X689736Y48424D01*
X689736D01*
Y69504D01*
X668656D01*
Y48424D01*
X670807D01*
X670883Y48233D01*
X670948Y47991D01*
Y43434D01*
X673364Y37602D01*
X679753Y31212D01*
X679091Y28672D01*
X297610D01*
X289023Y37260D01*
Y48812D01*
X292100Y51890D01*
Y62410D01*
X284660Y69850D01*
X274139D01*
X266700Y62410D01*
Y51890D01*
X269778Y48812D01*
Y33274D01*
X272596Y26470D01*
X286820Y12246D01*
X293624Y9427D01*
X1074130D01*
X1080935Y12246D01*
X1088374Y19685D01*
X1091192Y26490D01*
Y51380D01*
X1091420Y52428D01*
X1091687Y53252D01*
X1091893Y53669D01*
X1092014Y53750D01*
X1093860D01*
Y55889D01*
X1094039Y56321D01*
X1093931Y56580D01*
X1093986Y56855D01*
X1093860Y57045D01*
Y78330D01*
X1069280D01*
Y57045D01*
X1069154Y56855D01*
X1069209Y56580D01*
X1069101Y56321D01*
X1069280Y55889D01*
Y53750D01*
X1071126D01*
X1071247Y53669D01*
X1071453Y53252D01*
X1071720Y52428D01*
X1071947Y51380D01*
Y30475D01*
X1070145Y28672D01*
X971100D01*
X970048Y31212D01*
X974470Y35634D01*
Y44366D01*
X968296Y50540D01*
X959564D01*
X953390Y44366D01*
Y35634D01*
X957812Y31212D01*
X956760Y28672D01*
X953409D01*
X952197Y29076D01*
X950988Y29727D01*
X950009Y30529D01*
X949207Y31508D01*
X949109Y31690D01*
X949250Y32030D01*
X949071Y32461D01*
Y50541D01*
X927989D01*
Y40116D01*
X927258Y38350D01*
X927989Y36584D01*
Y32461D01*
X927810Y32030D01*
X927951Y31690D01*
X927853Y31508D01*
X927051Y30529D01*
X926072Y29727D01*
X924863Y29076D01*
X923651Y28672D01*
X886311D01*
X885649Y31212D01*
X1002274Y147838D01*
X1004690Y153670D01*
Y188529D01*
X1004889Y189386D01*
X1005091Y189965D01*
X1005172Y190120D01*
X1006982D01*
Y192259D01*
X1007161Y192691D01*
X1007060Y192934D01*
X1007115Y193191D01*
X1006982Y193396D01*
Y207924D01*
X1007115Y208129D01*
X1007060Y208386D01*
X1007161Y208629D01*
X1006982Y209061D01*
Y211200D01*
X1005172D01*
X1005091Y211355D01*
X1004889Y211934D01*
X1004690Y212791D01*
Y241440D01*
X1030846Y267596D01*
X1138676D01*
X1139318Y266954D01*
X1146682D01*
X1151890Y272162D01*
Y279526D01*
X1146682Y284734D01*
D02*
G37*
G36*
X892096Y287400D02*
X883364D01*
X877190Y281226D01*
Y272494D01*
X883364Y266320D01*
X892096D01*
X898270Y272494D01*
Y281226D01*
X892096Y287400D01*
D02*
G37*
G36*
X974470Y287400D02*
X953390D01*
Y266320D01*
X974470D01*
Y287400D01*
D02*
G37*
G36*
X942896D02*
X934164D01*
X927990Y281226D01*
Y272494D01*
X934164Y266320D01*
X942896D01*
X949070Y272494D01*
Y281226D01*
X942896Y287400D01*
D02*
G37*
G36*
X866696D02*
X857964D01*
X851790Y281226D01*
Y272494D01*
X857964Y266320D01*
X866696D01*
X872870Y272494D01*
Y281226D01*
X866696Y287400D01*
D02*
G37*
G36*
X1077008Y211200D02*
X1068276D01*
X1062102Y205026D01*
Y196294D01*
X1068276Y190120D01*
X1077008D01*
X1083182Y196294D01*
Y205026D01*
X1077008Y211200D01*
D02*
G37*
G36*
X1051608D02*
X1042876D01*
X1036702Y205026D01*
Y196294D01*
X1042876Y190120D01*
X1051608D01*
X1057782Y196294D01*
Y205026D01*
X1051608Y211200D01*
D02*
G37*
G36*
X105850Y210390D02*
X78770D01*
Y183310D01*
X105850D01*
Y210390D01*
D02*
G37*
G36*
X620144Y204083D02*
X612772D01*
X605961Y201262D01*
X600747Y196049D01*
X597926Y189238D01*
Y181865D01*
X600747Y175054D01*
X605961Y169841D01*
X612772Y167020D01*
X620144D01*
X626955Y169841D01*
X632169Y175054D01*
X634990Y181865D01*
Y189238D01*
X632169Y196049D01*
X626955Y201262D01*
X620144Y204083D01*
D02*
G37*
G36*
X1254438Y210571D02*
X1244786D01*
X1242842Y209766D01*
X1242037Y207822D01*
Y146608D01*
X1242842Y144663D01*
X1244786Y143858D01*
X1254438D01*
X1256383Y144663D01*
X1257188Y146608D01*
Y207822D01*
X1256383Y209766D01*
X1254438Y210571D01*
D02*
G37*
G36*
X130810Y104140D02*
X100330D01*
Y58420D01*
X130810D01*
Y104140D01*
D02*
G37*
G36*
X1136661Y78330D02*
X1126479D01*
X1119280Y71131D01*
Y60949D01*
X1126479Y53750D01*
X1136661D01*
X1143860Y60949D01*
Y71131D01*
X1136661Y78330D01*
D02*
G37*
G36*
X861362Y69504D02*
X852630D01*
X846456Y63330D01*
Y54598D01*
X852630Y48424D01*
X861362D01*
X867536Y54598D01*
Y63330D01*
X861362Y69504D01*
D02*
G37*
G36*
X810562D02*
X801830D01*
X795656Y63330D01*
Y54598D01*
X801830Y48424D01*
X810562D01*
X816736Y54598D01*
Y63330D01*
X810562Y69504D01*
D02*
G37*
G36*
X785162D02*
X776430D01*
X770256Y63330D01*
Y54598D01*
X776430Y48424D01*
X785162D01*
X791336Y54598D01*
Y63330D01*
X785162Y69504D01*
D02*
G37*
G36*
X759762D02*
X751030D01*
X744856Y63330D01*
Y54598D01*
X751030Y48424D01*
X759762D01*
X765936Y54598D01*
Y63330D01*
X759762Y69504D01*
D02*
G37*
G36*
X734362D02*
X725630D01*
X719456Y63330D01*
Y54598D01*
X725630Y48424D01*
X734362D01*
X740536Y54598D01*
Y63330D01*
X734362Y69504D01*
D02*
G37*
G36*
X708962D02*
X700230D01*
X694056Y63330D01*
Y54598D01*
X700230Y48424D01*
X708962D01*
X715136Y54598D01*
Y63330D01*
X708962Y69504D01*
D02*
G37*
G36*
X184660Y69850D02*
X174139D01*
X166700Y62410D01*
Y51890D01*
X174139Y44450D01*
X184660D01*
X192100Y51890D01*
Y62410D01*
X184660Y69850D01*
D02*
G37*
%LPD*%
G36*
X1359009Y856108D02*
X1358949Y856151D01*
X1358856Y856190D01*
X1358732Y856224D01*
X1358577Y856254D01*
X1358389Y856279D01*
X1357920Y856316D01*
X1356978Y856336D01*
Y860146D01*
X1357323Y860148D01*
X1358577Y860229D01*
X1358732Y860258D01*
X1358856Y860293D01*
X1358949Y860331D01*
X1359009Y860375D01*
Y856108D01*
D02*
G37*
G36*
X1335371Y860331D02*
X1335463Y860293D01*
X1335587Y860258D01*
X1335742Y860229D01*
X1335930Y860203D01*
X1336399Y860167D01*
X1337341Y860146D01*
Y856336D01*
X1336996Y856334D01*
X1335742Y856254D01*
X1335587Y856224D01*
X1335463Y856190D01*
X1335371Y856151D01*
X1335310Y856108D01*
Y860375D01*
X1335371Y860331D01*
D02*
G37*
G36*
X1146643Y856108D02*
X1146466Y856272D01*
X1146275Y856419D01*
X1146069Y856548D01*
X1145849Y856660D01*
X1145614Y856755D01*
X1145364Y856833D01*
X1145100Y856893D01*
X1144821Y856937D01*
X1144528Y856963D01*
X1144220Y856971D01*
Y859511D01*
X1144528Y859520D01*
X1144821Y859546D01*
X1145100Y859589D01*
X1145364Y859649D01*
X1145614Y859727D01*
X1145849Y859822D01*
X1146069Y859934D01*
X1146275Y860064D01*
X1146466Y860211D01*
X1146643Y860375D01*
Y856108D01*
D02*
G37*
G36*
X1124296Y860211D02*
X1124487Y860064D01*
X1124693Y859934D01*
X1124913Y859822D01*
X1125148Y859727D01*
X1125398Y859649D01*
X1125662Y859589D01*
X1125941Y859546D01*
X1126234Y859520D01*
X1126542Y859511D01*
Y856971D01*
X1126234Y856963D01*
X1125941Y856937D01*
X1125662Y856893D01*
X1125398Y856833D01*
X1125148Y856755D01*
X1124913Y856660D01*
X1124693Y856548D01*
X1124487Y856419D01*
X1124296Y856272D01*
X1124119Y856108D01*
Y860375D01*
X1124296Y860211D01*
D02*
G37*
G36*
X1514711Y871758D02*
X1518833Y871413D01*
X1518656Y871251D01*
X1518498Y871073D01*
X1518359Y870878D01*
X1518238Y870667D01*
X1518136Y870439D01*
X1518053Y870196D01*
X1517988Y869936D01*
X1517941Y869659D01*
X1517913Y869367D01*
X1517904Y869057D01*
X1515364Y869292D01*
X1515356Y869599D01*
X1515333Y869893D01*
X1515293Y870173D01*
X1515239Y870441D01*
X1515168Y870695D01*
X1515082Y870937D01*
X1514980Y871164D01*
X1514863Y871379D01*
X1514729Y871581D01*
X1514669Y871657D01*
X1514651Y871670D01*
X1514558Y871709D01*
X1514434Y871743D01*
X1514279Y871773D01*
X1514091Y871798D01*
X1513622Y871834D01*
X1512680Y871855D01*
Y875665D01*
X1513026Y875667D01*
X1514279Y875747D01*
X1514434Y875777D01*
X1514558Y875811D01*
X1514651Y875850D01*
X1514711Y875894D01*
Y871758D01*
D02*
G37*
G36*
X1437591Y859848D02*
X1437684Y859809D01*
X1437808Y859775D01*
X1437963Y859745D01*
X1438151Y859720D01*
X1438620Y859684D01*
X1439562Y859663D01*
Y855853D01*
X1439216Y855851D01*
X1437963Y855771D01*
X1437808Y855741D01*
X1437684Y855707D01*
X1437591Y855668D01*
X1437531Y855624D01*
Y859892D01*
X1437591Y859848D01*
D02*
G37*
G36*
X1517904Y853082D02*
X1517912Y852775D01*
X1517935Y852481D01*
X1517975Y852200D01*
X1518029Y851933D01*
X1518100Y851679D01*
X1518186Y851438D01*
X1518288Y851210D01*
X1518405Y850995D01*
X1518539Y850794D01*
X1518688Y850605D01*
X1514435Y850961D01*
X1514612Y851123D01*
X1514770Y851301D01*
X1514909Y851496D01*
X1515030Y851707D01*
X1515132Y851935D01*
X1515215Y852178D01*
X1515280Y852438D01*
X1515327Y852715D01*
X1515355Y853008D01*
X1515364Y853316D01*
X1517904Y853082D01*
D02*
G37*
G36*
X1518539Y846434D02*
X1518405Y846233D01*
X1518288Y846018D01*
X1518186Y845790D01*
X1518100Y845549D01*
X1518029Y845295D01*
X1517975Y845027D01*
X1517935Y844747D01*
X1517912Y844453D01*
X1517904Y844146D01*
X1515364Y843912D01*
X1515355Y844221D01*
X1515327Y844513D01*
X1515280Y844790D01*
X1515215Y845050D01*
X1515132Y845293D01*
X1515030Y845521D01*
X1514909Y845732D01*
X1514770Y845927D01*
X1514612Y846105D01*
X1514435Y846267D01*
X1518688Y846623D01*
X1518539Y846434D01*
D02*
G37*
G36*
X1517913Y826591D02*
X1517941Y826299D01*
X1517988Y826022D01*
X1518053Y825762D01*
X1518136Y825519D01*
X1518238Y825291D01*
X1518359Y825080D01*
X1518498Y824885D01*
X1518656Y824707D01*
X1518833Y824545D01*
X1514580Y824189D01*
X1514729Y824378D01*
X1514863Y824579D01*
X1514980Y824794D01*
X1515082Y825022D01*
X1515168Y825263D01*
X1515239Y825517D01*
X1515293Y825785D01*
X1515333Y826065D01*
X1515356Y826359D01*
X1515364Y826666D01*
X1517904Y826900D01*
X1517913Y826591D01*
D02*
G37*
G36*
X1064188Y820591D02*
X1064531Y820368D01*
X1064955Y820172D01*
X1065459Y820002D01*
X1066044Y819858D01*
X1066710Y819740D01*
X1067457Y819649D01*
X1069192Y819544D01*
X1070181Y819531D01*
X1069292Y809371D01*
X1068296Y809362D01*
X1065135Y809135D01*
X1064550Y809031D01*
X1064048Y808908D01*
X1063628Y808766D01*
X1063291Y808605D01*
X1063036Y808425D01*
X1063925Y820840D01*
X1064188Y820591D01*
D02*
G37*
G36*
X1185337Y808005D02*
X1185078Y808265D01*
X1184737Y808497D01*
X1184316Y808702D01*
X1183814Y808879D01*
X1183231Y809029D01*
X1182567Y809153D01*
X1181822Y809248D01*
X1180090Y809357D01*
X1179102Y809371D01*
X1180354Y819531D01*
X1181352Y819540D01*
X1184510Y819745D01*
X1185091Y819840D01*
X1185589Y819951D01*
X1186003Y820080D01*
X1186334Y820226D01*
X1186581Y820389D01*
X1185337Y808005D01*
D02*
G37*
G36*
X1226263Y860610D02*
X1226356Y860571D01*
X1226480Y860537D01*
X1226635Y860507D01*
X1226823Y860482D01*
X1227292Y860446D01*
X1228234Y860425D01*
Y856615D01*
X1227888Y856613D01*
X1226635Y856533D01*
X1226480Y856503D01*
X1226356Y856469D01*
X1226263Y856430D01*
X1226203Y856386D01*
Y860654D01*
X1226263Y860610D01*
D02*
G37*
G36*
X1247292Y856316D02*
X1247228Y856373D01*
X1247133Y856423D01*
X1247006Y856468D01*
X1246848Y856507D01*
X1246659Y856540D01*
X1246188Y856588D01*
X1245593Y856612D01*
X1245248Y856615D01*
X1245700Y860425D01*
X1246047Y860426D01*
X1247551Y860515D01*
X1247633Y860538D01*
X1247683Y860565D01*
X1247292Y856316D01*
D02*
G37*
G36*
X1244983Y787707D02*
X1245063Y786453D01*
X1245093Y786298D01*
X1245127Y786174D01*
X1245166Y786081D01*
X1245210Y786021D01*
X1240942D01*
X1240986Y786081D01*
X1241025Y786174D01*
X1241059Y786298D01*
X1241089Y786453D01*
X1241114Y786641D01*
X1241150Y787110D01*
X1241171Y788052D01*
X1244981D01*
X1244983Y787707D01*
D02*
G37*
G36*
X1276039Y732083D02*
X1276344Y731591D01*
X1276852Y731158D01*
X1277563Y730782D01*
X1278477Y730464D01*
X1279595Y730204D01*
X1280916Y730002D01*
X1282440Y729858D01*
X1286098Y729742D01*
Y719582D01*
X1284167Y719553D01*
X1280916Y719322D01*
X1279595Y719120D01*
X1278477Y718860D01*
X1277563Y718542D01*
X1276852Y718166D01*
X1276344Y717733D01*
X1276039Y717242D01*
X1275938Y716693D01*
Y732632D01*
X1276039Y732083D01*
D02*
G37*
G36*
X1404123Y610824D02*
X1404295Y608334D01*
X1404398Y607665D01*
X1404523Y607077D01*
X1404672Y606571D01*
X1404843Y606144D01*
X1405038Y605799D01*
X1405255Y605535D01*
X1392809D01*
X1393026Y605799D01*
X1393221Y606144D01*
X1393392Y606571D01*
X1393540Y607077D01*
X1393666Y607665D01*
X1393769Y608334D01*
X1393906Y609913D01*
X1393952Y611816D01*
X1404112D01*
X1404123Y610824D01*
D02*
G37*
G36*
X1570056Y954112D02*
X1569220Y953315D01*
X1567812Y951796D01*
X1567240Y951074D01*
X1566756Y950377D01*
X1566360Y949705D01*
X1566052Y949057D01*
X1565832Y948435D01*
X1565700Y947837D01*
X1565656Y947265D01*
X1563116Y947346D01*
X1563073Y947900D01*
X1562946Y948488D01*
X1562733Y949112D01*
X1562435Y949771D01*
X1562052Y950465D01*
X1561584Y951195D01*
X1561031Y951960D01*
X1559670Y953596D01*
X1558861Y954468D01*
X1570056Y954112D01*
D02*
G37*
G36*
X1565656Y696872D02*
X1565664Y696565D01*
X1565687Y696271D01*
X1565726Y695991D01*
X1565781Y695723D01*
X1565852Y695469D01*
X1565938Y695228D01*
X1566040Y695000D01*
X1566158Y694785D01*
X1566291Y694584D01*
X1566440Y694395D01*
X1562187Y694751D01*
X1562364Y694913D01*
X1562522Y695091D01*
X1562661Y695286D01*
X1562782Y695497D01*
X1562884Y695725D01*
X1562967Y695968D01*
X1563032Y696228D01*
X1563079Y696505D01*
X1563107Y696797D01*
X1563116Y697106D01*
X1565656Y696872D01*
D02*
G37*
G36*
X787081Y687578D02*
X787017Y688181D01*
X786826Y688721D01*
X786507Y689197D01*
X786060Y689610D01*
X785486Y689959D01*
X784784Y690245D01*
X783954Y690467D01*
X782998Y690626D01*
X781913Y690721D01*
X780701Y690753D01*
Y697103D01*
X781913Y697135D01*
X782998Y697230D01*
X783954Y697389D01*
X784784Y697611D01*
X785486Y697897D01*
X786060Y698246D01*
X786507Y698659D01*
X786826Y699135D01*
X787017Y699675D01*
X787081Y700278D01*
Y687578D01*
D02*
G37*
G36*
X922423Y656848D02*
X922184Y656825D01*
X921946Y656782D01*
X921710Y656718D01*
X921476Y656632D01*
X921244Y656526D01*
X921013Y656398D01*
X920785Y656250D01*
X920558Y656080D01*
X920333Y655890D01*
X920110Y655678D01*
X918197Y657357D01*
X918409Y657582D01*
X918597Y657808D01*
X918761Y658037D01*
X918900Y658267D01*
X919016Y658498D01*
X919107Y658731D01*
X919175Y658967D01*
X919219Y659203D01*
X919238Y659442D01*
X919233Y659682D01*
X922423Y656848D01*
D02*
G37*
G36*
X999599Y639724D02*
X999423Y639888D01*
X999231Y640035D01*
X999026Y640165D01*
X998805Y640277D01*
X998570Y640372D01*
X998321Y640450D01*
X998057Y640510D01*
X997778Y640554D01*
X997484Y640579D01*
X997176Y640588D01*
Y643128D01*
X997484Y643137D01*
X997778Y643163D01*
X998057Y643206D01*
X998321Y643266D01*
X998570Y643344D01*
X998805Y643439D01*
X999026Y643551D01*
X999231Y643681D01*
X999423Y643828D01*
X999599Y643992D01*
Y639724D01*
D02*
G37*
G36*
X890715Y634933D02*
X890569Y634742D01*
X890439Y634536D01*
X890327Y634315D01*
X890232Y634080D01*
X890154Y633831D01*
X890094Y633567D01*
X890051Y633288D01*
X890025Y632994D01*
X890016Y632686D01*
X887476D01*
X887467Y632994D01*
X887441Y633288D01*
X887398Y633567D01*
X887338Y633831D01*
X887260Y634080D01*
X887165Y634315D01*
X887053Y634536D01*
X886923Y634742D01*
X886777Y634933D01*
X886612Y635109D01*
X890880D01*
X890715Y634933D01*
D02*
G37*
G36*
X948406Y606298D02*
X948098Y606291D01*
X947802Y606263D01*
X947516Y606215D01*
X947242Y606146D01*
X946979Y606057D01*
X946727Y605947D01*
X946486Y605817D01*
X946256Y605666D01*
X946037Y605494D01*
X945829Y605302D01*
X944392Y606739D01*
X944584Y606947D01*
X944756Y607166D01*
X944907Y607396D01*
X945037Y607637D01*
X945147Y607889D01*
X945236Y608152D01*
X945305Y608426D01*
X945353Y608712D01*
X945381Y609008D01*
X945388Y609315D01*
X948406Y606298D01*
D02*
G37*
G36*
X938754D02*
X938446Y606291D01*
X938150Y606263D01*
X937864Y606215D01*
X937590Y606146D01*
X937327Y606057D01*
X937075Y605947D01*
X936834Y605817D01*
X936604Y605666D01*
X936385Y605494D01*
X936177Y605302D01*
X934740Y606739D01*
X934932Y606947D01*
X935104Y607166D01*
X935255Y607396D01*
X935385Y607637D01*
X935495Y607889D01*
X935584Y608152D01*
X935653Y608426D01*
X935701Y608712D01*
X935729Y609008D01*
X935736Y609315D01*
X938754Y606298D01*
D02*
G37*
G36*
X930314Y606628D02*
X930031Y606556D01*
X929757Y606470D01*
X929491Y606371D01*
X929234Y606258D01*
X928986Y606132D01*
X928746Y605992D01*
X928515Y605838D01*
X928292Y605671D01*
X928078Y605490D01*
X927872Y605296D01*
X926128Y606425D01*
X926311Y606626D01*
X926468Y606833D01*
X926596Y607046D01*
X926697Y607266D01*
X926770Y607493D01*
X926816Y607725D01*
X926834Y607965D01*
X926824Y608210D01*
X926787Y608462D01*
X926722Y608720D01*
X930314Y606628D01*
D02*
G37*
G36*
X904285Y607481D02*
X904139Y607290D01*
X904009Y607084D01*
X903897Y606864D01*
X903802Y606629D01*
X903724Y606379D01*
X903664Y606115D01*
X903620Y605836D01*
X903595Y605543D01*
X903586Y605235D01*
X901046D01*
X901037Y605543D01*
X901011Y605836D01*
X900968Y606115D01*
X900908Y606379D01*
X900830Y606629D01*
X900735Y606864D01*
X900623Y607084D01*
X900493Y607290D01*
X900346Y607481D01*
X900182Y607658D01*
X904449D01*
X904285Y607481D01*
D02*
G37*
G36*
X957803Y606044D02*
X957496Y606037D01*
X957200Y606009D01*
X956914Y605961D01*
X956640Y605892D01*
X956377Y605803D01*
X956125Y605693D01*
X955884Y605563D01*
X955654Y605412D01*
X955435Y605240D01*
X955227Y605048D01*
X953790Y606485D01*
X953982Y606693D01*
X954154Y606912D01*
X954305Y607142D01*
X954435Y607383D01*
X954545Y607635D01*
X954634Y607898D01*
X954703Y608172D01*
X954751Y608458D01*
X954779Y608754D01*
X954786Y609062D01*
X957803Y606044D01*
D02*
G37*
G36*
X690277Y601117D02*
X690372Y600033D01*
X690531Y599076D01*
X690753Y598246D01*
X691039Y597544D01*
X691388Y596970D01*
X691801Y596523D01*
X692277Y596204D01*
X692817Y596013D01*
X693420Y595949D01*
X680720D01*
X681323Y596013D01*
X681863Y596204D01*
X682339Y596523D01*
X682752Y596970D01*
X683101Y597544D01*
X683387Y598246D01*
X683609Y599076D01*
X683768Y600033D01*
X683863Y601117D01*
X683895Y602329D01*
X690245D01*
X690277Y601117D01*
D02*
G37*
G36*
X1288766Y591312D02*
X1288525Y591303D01*
X1288286Y591272D01*
X1288049Y591218D01*
X1287813Y591142D01*
X1287580Y591043D01*
X1287348Y590921D01*
X1287119Y590777D01*
X1286891Y590610D01*
X1286665Y590421D01*
X1286442Y590210D01*
X1284646Y592006D01*
X1284857Y592229D01*
X1285046Y592455D01*
X1285213Y592683D01*
X1285357Y592912D01*
X1285479Y593144D01*
X1285578Y593377D01*
X1285654Y593613D01*
X1285708Y593850D01*
X1285739Y594089D01*
X1285748Y594329D01*
X1288766Y591312D01*
D02*
G37*
G36*
X1274034Y586232D02*
X1273793Y586223D01*
X1273554Y586192D01*
X1273316Y586138D01*
X1273081Y586062D01*
X1272848Y585963D01*
X1272617Y585841D01*
X1272387Y585697D01*
X1272159Y585530D01*
X1271934Y585341D01*
X1271710Y585130D01*
X1269914Y586926D01*
X1270125Y587150D01*
X1270314Y587375D01*
X1270481Y587603D01*
X1270625Y587832D01*
X1270747Y588064D01*
X1270845Y588297D01*
X1270922Y588532D01*
X1270976Y588770D01*
X1271007Y589009D01*
X1271016Y589249D01*
X1274034Y586232D01*
D02*
G37*
G36*
X1259346Y582122D02*
X1259105Y582113D01*
X1258866Y582082D01*
X1258629Y582028D01*
X1258393Y581951D01*
X1258160Y581852D01*
X1257929Y581731D01*
X1257699Y581587D01*
X1257471Y581420D01*
X1257246Y581231D01*
X1257022Y581020D01*
X1255226Y582816D01*
X1255437Y583039D01*
X1255627Y583265D01*
X1255793Y583493D01*
X1255937Y583722D01*
X1256059Y583954D01*
X1256158Y584187D01*
X1256234Y584422D01*
X1256288Y584660D01*
X1256320Y584899D01*
X1256328Y585140D01*
X1259346Y582122D01*
D02*
G37*
G36*
X1286225Y579374D02*
X1285985Y579365D01*
X1285746Y579334D01*
X1285509Y579280D01*
X1285273Y579203D01*
X1285040Y579105D01*
X1284809Y578983D01*
X1284579Y578839D01*
X1284351Y578672D01*
X1284126Y578483D01*
X1283902Y578272D01*
X1282106Y580068D01*
X1282317Y580291D01*
X1282506Y580517D01*
X1282673Y580745D01*
X1282817Y580975D01*
X1282939Y581206D01*
X1283038Y581439D01*
X1283114Y581674D01*
X1283168Y581912D01*
X1283199Y582151D01*
X1283208Y582392D01*
X1286225Y579374D01*
D02*
G37*
G36*
X1246348Y578104D02*
X1246107Y578095D01*
X1245868Y578064D01*
X1245630Y578010D01*
X1245395Y577934D01*
X1245162Y577835D01*
X1244930Y577713D01*
X1244701Y577569D01*
X1244473Y577402D01*
X1244248Y577213D01*
X1244024Y577002D01*
X1242228Y578798D01*
X1242439Y579021D01*
X1242628Y579247D01*
X1242795Y579475D01*
X1242939Y579705D01*
X1243061Y579936D01*
X1243159Y580169D01*
X1243236Y580405D01*
X1243290Y580642D01*
X1243321Y580881D01*
X1243330Y581121D01*
X1246348Y578104D01*
D02*
G37*
G36*
X692821Y579977D02*
X692281Y579786D01*
X691805Y579469D01*
X691392Y579025D01*
X691043Y578453D01*
X690757Y577755D01*
X690535Y576929D01*
X690376Y575976D01*
X690281Y574897D01*
X690249Y573690D01*
X683899D01*
X683868Y574897D01*
X683772Y575976D01*
X683614Y576929D01*
X683391Y577755D01*
X683106Y578453D01*
X682756Y579025D01*
X682344Y579469D01*
X681867Y579786D01*
X681328Y579977D01*
X680724Y580041D01*
X693424D01*
X692821Y579977D01*
D02*
G37*
G36*
X1282415Y565150D02*
X1282175Y565141D01*
X1281936Y565110D01*
X1281698Y565056D01*
X1281463Y564980D01*
X1281230Y564881D01*
X1280999Y564759D01*
X1280769Y564615D01*
X1280541Y564448D01*
X1280316Y564259D01*
X1280092Y564048D01*
X1278296Y565844D01*
X1278507Y566068D01*
X1278696Y566293D01*
X1278863Y566521D01*
X1279007Y566750D01*
X1279129Y566982D01*
X1279228Y567215D01*
X1279304Y567450D01*
X1279358Y567688D01*
X1279389Y567927D01*
X1279398Y568167D01*
X1282415Y565150D01*
D02*
G37*
G36*
X893474Y563501D02*
X893699Y563312D01*
X893927Y563145D01*
X894156Y563001D01*
X894388Y562879D01*
X894621Y562780D01*
X894856Y562704D01*
X895094Y562650D01*
X895333Y562619D01*
X895574Y562610D01*
X892556Y559593D01*
X892547Y559833D01*
X892516Y560072D01*
X892462Y560309D01*
X892385Y560545D01*
X892287Y560778D01*
X892165Y561009D01*
X892021Y561239D01*
X891854Y561467D01*
X891665Y561693D01*
X891454Y561916D01*
X893250Y563712D01*
X893474Y563501D01*
D02*
G37*
G36*
X1133571Y557784D02*
X1133264Y557777D01*
X1132968Y557749D01*
X1132682Y557701D01*
X1132408Y557632D01*
X1132145Y557543D01*
X1131893Y557433D01*
X1131652Y557303D01*
X1131422Y557152D01*
X1131203Y556980D01*
X1130995Y556788D01*
X1129558Y558225D01*
X1129750Y558433D01*
X1129922Y558652D01*
X1130073Y558882D01*
X1130203Y559123D01*
X1130313Y559375D01*
X1130402Y559638D01*
X1130471Y559912D01*
X1130519Y560198D01*
X1130547Y560494D01*
X1130554Y560802D01*
X1133571Y557784D01*
D02*
G37*
G36*
X828811Y558783D02*
X828842Y558544D01*
X828896Y558307D01*
X828972Y558071D01*
X829071Y557838D01*
X829193Y557607D01*
X829337Y557377D01*
X829504Y557149D01*
X829693Y556923D01*
X829904Y556700D01*
X828108Y554904D01*
X827885Y555115D01*
X827659Y555304D01*
X827431Y555471D01*
X827202Y555615D01*
X826970Y555737D01*
X826737Y555835D01*
X826501Y555912D01*
X826264Y555966D01*
X826025Y555997D01*
X825785Y556006D01*
X828802Y559024D01*
X828811Y558783D01*
D02*
G37*
G36*
X1134062Y548885D02*
X1133822Y548893D01*
X1133584Y548876D01*
X1133347Y548835D01*
X1133112Y548769D01*
X1132879Y548680D01*
X1132647Y548565D01*
X1132418Y548427D01*
X1132189Y548264D01*
X1131963Y548076D01*
X1131738Y547864D01*
X1130086Y549804D01*
X1130297Y550027D01*
X1130488Y550252D01*
X1130658Y550478D01*
X1130808Y550706D01*
X1130937Y550936D01*
X1131045Y551168D01*
X1131133Y551402D01*
X1131199Y551637D01*
X1131245Y551874D01*
X1131271Y552113D01*
X1134062Y548885D01*
D02*
G37*
G36*
X1135719Y539243D02*
X1135479Y539226D01*
X1135241Y539187D01*
X1135004Y539126D01*
X1134770Y539044D01*
X1134537Y538940D01*
X1134306Y538815D01*
X1134077Y538667D01*
X1133850Y538499D01*
X1133624Y538309D01*
X1133401Y538097D01*
X1131530Y539818D01*
X1131742Y540043D01*
X1131930Y540269D01*
X1132095Y540497D01*
X1132236Y540727D01*
X1132354Y540958D01*
X1132448Y541192D01*
X1132518Y541427D01*
X1132566Y541664D01*
X1132589Y541903D01*
X1132589Y542144D01*
X1135719Y539243D01*
D02*
G37*
G36*
X829573Y522461D02*
X829604Y522222D01*
X829658Y521984D01*
X829734Y521749D01*
X829833Y521516D01*
X829955Y521284D01*
X830099Y521055D01*
X830266Y520827D01*
X830455Y520602D01*
X830666Y520378D01*
X828870Y518582D01*
X828646Y518793D01*
X828421Y518982D01*
X828193Y519149D01*
X827963Y519293D01*
X827732Y519415D01*
X827499Y519514D01*
X827263Y519590D01*
X827026Y519644D01*
X826787Y519675D01*
X826546Y519684D01*
X829564Y522701D01*
X829573Y522461D01*
D02*
G37*
G36*
X922029Y518388D02*
X922055Y518094D01*
X922098Y517815D01*
X922158Y517551D01*
X922236Y517302D01*
X922331Y517067D01*
X922443Y516846D01*
X922573Y516641D01*
X922719Y516449D01*
X922884Y516273D01*
X918616D01*
X918781Y516449D01*
X918927Y516641D01*
X919057Y516846D01*
X919169Y517067D01*
X919264Y517302D01*
X919342Y517551D01*
X919402Y517815D01*
X919445Y518094D01*
X919471Y518388D01*
X919480Y518696D01*
X922020D01*
X922029Y518388D01*
D02*
G37*
G36*
X889340Y509592D02*
X889129Y509369D01*
X888940Y509143D01*
X888773Y508915D01*
X888629Y508685D01*
X888507Y508454D01*
X888409Y508221D01*
X888332Y507985D01*
X888278Y507748D01*
X888247Y507509D01*
X888238Y507268D01*
X885220Y510286D01*
X885461Y510295D01*
X885700Y510326D01*
X885938Y510380D01*
X886173Y510457D01*
X886406Y510555D01*
X886637Y510677D01*
X886867Y510821D01*
X887095Y510988D01*
X887320Y511177D01*
X887544Y511388D01*
X889340Y509592D01*
D02*
G37*
G36*
X832875Y509761D02*
X832906Y509522D01*
X832960Y509285D01*
X833036Y509049D01*
X833135Y508816D01*
X833257Y508585D01*
X833401Y508355D01*
X833568Y508127D01*
X833757Y507901D01*
X833968Y507678D01*
X832172Y505882D01*
X831948Y506093D01*
X831723Y506282D01*
X831495Y506449D01*
X831265Y506593D01*
X831034Y506715D01*
X830801Y506814D01*
X830565Y506890D01*
X830328Y506944D01*
X830089Y506975D01*
X829848Y506984D01*
X832866Y510001D01*
X832875Y509761D01*
D02*
G37*
G36*
X906496Y505714D02*
X906255Y505705D01*
X906016Y505674D01*
X905779Y505620D01*
X905543Y505544D01*
X905310Y505445D01*
X905079Y505323D01*
X904849Y505179D01*
X904621Y505012D01*
X904396Y504823D01*
X904172Y504612D01*
X902376Y506408D01*
X902587Y506632D01*
X902776Y506857D01*
X902943Y507085D01*
X903087Y507314D01*
X903209Y507546D01*
X903307Y507779D01*
X903384Y508014D01*
X903438Y508252D01*
X903469Y508491D01*
X903478Y508731D01*
X906496Y505714D01*
D02*
G37*
G36*
X1142461Y504952D02*
X1142221Y504943D01*
X1141982Y504912D01*
X1141745Y504858D01*
X1141509Y504781D01*
X1141276Y504683D01*
X1141044Y504561D01*
X1140815Y504417D01*
X1140587Y504250D01*
X1140361Y504061D01*
X1140138Y503850D01*
X1138342Y505646D01*
X1138553Y505869D01*
X1138742Y506095D01*
X1138909Y506323D01*
X1139053Y506553D01*
X1139175Y506784D01*
X1139274Y507017D01*
X1139350Y507253D01*
X1139404Y507490D01*
X1139435Y507729D01*
X1139444Y507970D01*
X1142461Y504952D01*
D02*
G37*
G36*
X1154399Y504698D02*
X1154159Y504689D01*
X1153920Y504658D01*
X1153682Y504604D01*
X1153447Y504528D01*
X1153214Y504429D01*
X1152982Y504307D01*
X1152753Y504163D01*
X1152525Y503996D01*
X1152299Y503807D01*
X1152076Y503596D01*
X1150280Y505392D01*
X1150491Y505616D01*
X1150680Y505841D01*
X1150847Y506069D01*
X1150991Y506298D01*
X1151113Y506530D01*
X1151211Y506763D01*
X1151288Y506998D01*
X1151342Y507236D01*
X1151373Y507475D01*
X1151382Y507715D01*
X1154399Y504698D01*
D02*
G37*
G36*
X933958Y505610D02*
X933967Y505335D01*
X933996Y505062D01*
X934043Y504790D01*
X934109Y504520D01*
X934194Y504251D01*
X934297Y503984D01*
X934420Y503719D01*
X934561Y503455D01*
X934721Y503193D01*
X934901Y502933D01*
X930693Y503644D01*
X930927Y503822D01*
X931137Y504012D01*
X931322Y504214D01*
X931482Y504429D01*
X931618Y504656D01*
X931729Y504895D01*
X931815Y505147D01*
X931877Y505411D01*
X931914Y505687D01*
X931926Y505976D01*
X933958Y505610D01*
D02*
G37*
G36*
X889340Y499432D02*
X889129Y499208D01*
X888940Y498983D01*
X888773Y498755D01*
X888629Y498526D01*
X888507Y498294D01*
X888409Y498061D01*
X888332Y497826D01*
X888278Y497588D01*
X888247Y497349D01*
X888238Y497108D01*
X885220Y500126D01*
X885461Y500135D01*
X885700Y500166D01*
X885938Y500220D01*
X886173Y500297D01*
X886406Y500395D01*
X886637Y500517D01*
X886867Y500661D01*
X887095Y500828D01*
X887320Y501017D01*
X887544Y501228D01*
X889340Y499432D01*
D02*
G37*
G36*
X907766Y496316D02*
X907525Y496307D01*
X907286Y496276D01*
X907048Y496222D01*
X906813Y496146D01*
X906580Y496047D01*
X906348Y495925D01*
X906119Y495781D01*
X905891Y495614D01*
X905666Y495425D01*
X905442Y495214D01*
X903646Y497010D01*
X903857Y497234D01*
X904046Y497459D01*
X904213Y497687D01*
X904357Y497916D01*
X904479Y498148D01*
X904577Y498381D01*
X904654Y498616D01*
X904708Y498854D01*
X904739Y499093D01*
X904748Y499333D01*
X907766Y496316D01*
D02*
G37*
G36*
X872899Y494159D02*
X873125Y493970D01*
X873353Y493803D01*
X873583Y493659D01*
X873814Y493537D01*
X874047Y493438D01*
X874283Y493362D01*
X874520Y493308D01*
X874759Y493277D01*
X874999Y493268D01*
X871982Y490251D01*
X871973Y490491D01*
X871942Y490730D01*
X871888Y490967D01*
X871812Y491203D01*
X871713Y491436D01*
X871591Y491668D01*
X871447Y491897D01*
X871280Y492125D01*
X871091Y492351D01*
X870880Y492574D01*
X872676Y494370D01*
X872899Y494159D01*
D02*
G37*
G36*
X1106817Y490245D02*
X1106583Y490205D01*
X1106350Y490146D01*
X1106119Y490068D01*
X1105889Y489971D01*
X1105660Y489854D01*
X1105432Y489719D01*
X1105206Y489564D01*
X1104981Y489390D01*
X1104758Y489197D01*
X1104536Y488985D01*
X1102462Y490503D01*
X1102674Y490729D01*
X1102860Y490956D01*
X1103020Y491185D01*
X1103154Y491414D01*
X1103262Y491645D01*
X1103344Y491876D01*
X1103399Y492109D01*
X1103429Y492343D01*
X1103432Y492578D01*
X1103410Y492815D01*
X1106817Y490245D01*
D02*
G37*
G36*
X935208Y488763D02*
X935016Y488555D01*
X934844Y488336D01*
X934693Y488106D01*
X934563Y487865D01*
X934453Y487613D01*
X934364Y487350D01*
X934295Y487076D01*
X934247Y486790D01*
X934219Y486494D01*
X934212Y486186D01*
X931195Y489204D01*
X931502Y489211D01*
X931798Y489239D01*
X932084Y489287D01*
X932358Y489356D01*
X932621Y489445D01*
X932873Y489555D01*
X933114Y489685D01*
X933344Y489836D01*
X933563Y490008D01*
X933771Y490200D01*
X935208Y488763D01*
D02*
G37*
G36*
X940941Y482304D02*
X940752Y482101D01*
X940579Y481885D01*
X940422Y481658D01*
X940282Y481419D01*
X940158Y481168D01*
X940050Y480904D01*
X939959Y480629D01*
X939884Y480342D01*
X939825Y480042D01*
X939782Y479731D01*
X937141Y483083D01*
X937439Y483056D01*
X937727Y483054D01*
X938005Y483077D01*
X938273Y483124D01*
X938532Y483195D01*
X938782Y483292D01*
X939022Y483413D01*
X939253Y483558D01*
X939474Y483728D01*
X939685Y483922D01*
X940941Y482304D01*
D02*
G37*
G36*
X1091662Y483870D02*
X1091421Y483861D01*
X1091182Y483830D01*
X1090945Y483776D01*
X1090709Y483699D01*
X1090476Y483601D01*
X1090245Y483479D01*
X1090015Y483335D01*
X1089787Y483168D01*
X1089561Y482979D01*
X1089338Y482768D01*
X1087542Y484564D01*
X1087753Y484787D01*
X1087942Y485013D01*
X1088109Y485241D01*
X1088253Y485471D01*
X1088375Y485702D01*
X1088474Y485935D01*
X1088550Y486171D01*
X1088604Y486408D01*
X1088635Y486647D01*
X1088644Y486888D01*
X1091662Y483870D01*
D02*
G37*
G36*
X957843Y485065D02*
X957874Y484826D01*
X957928Y484589D01*
X958005Y484353D01*
X958103Y484120D01*
X958225Y483889D01*
X958369Y483659D01*
X958536Y483431D01*
X958725Y483206D01*
X958936Y482982D01*
X957140Y481186D01*
X956917Y481397D01*
X956691Y481586D01*
X956463Y481753D01*
X956234Y481897D01*
X956002Y482019D01*
X955769Y482118D01*
X955534Y482194D01*
X955296Y482248D01*
X955057Y482280D01*
X954817Y482288D01*
X957834Y485306D01*
X957843Y485065D01*
D02*
G37*
G36*
X1014081Y483759D02*
X1014310Y483569D01*
X1014546Y483402D01*
X1014789Y483256D01*
X1015038Y483133D01*
X1015294Y483033D01*
X1015556Y482955D01*
X1015826Y482899D01*
X1016102Y482865D01*
X1016385Y482854D01*
Y480822D01*
X1016102Y480811D01*
X1015826Y480777D01*
X1015556Y480721D01*
X1015294Y480643D01*
X1015038Y480543D01*
X1014789Y480420D01*
X1014546Y480274D01*
X1014310Y480107D01*
X1014081Y479917D01*
X1013859Y479704D01*
Y483972D01*
X1014081Y483759D01*
D02*
G37*
G36*
X911165Y482029D02*
X911357Y481883D01*
X911562Y481753D01*
X911783Y481641D01*
X912018Y481546D01*
X912267Y481468D01*
X912531Y481408D01*
X912810Y481365D01*
X913104Y481339D01*
X913412Y481330D01*
Y478790D01*
X913104Y478781D01*
X912810Y478755D01*
X912531Y478712D01*
X912267Y478652D01*
X912018Y478574D01*
X911783Y478479D01*
X911562Y478367D01*
X911357Y478237D01*
X911165Y478091D01*
X910989Y477926D01*
Y482194D01*
X911165Y482029D01*
D02*
G37*
G36*
X956827Y475471D02*
X956858Y475232D01*
X956912Y474995D01*
X956989Y474759D01*
X957087Y474526D01*
X957209Y474295D01*
X957353Y474065D01*
X957520Y473837D01*
X957709Y473611D01*
X957920Y473388D01*
X956124Y471592D01*
X955900Y471803D01*
X955675Y471992D01*
X955447Y472159D01*
X955218Y472303D01*
X954986Y472425D01*
X954753Y472523D01*
X954518Y472600D01*
X954280Y472654D01*
X954041Y472685D01*
X953801Y472694D01*
X956818Y475712D01*
X956827Y475471D01*
D02*
G37*
G36*
X919293Y475172D02*
X919484Y475025D01*
X919690Y474895D01*
X919911Y474783D01*
X920146Y474688D01*
X920395Y474610D01*
X920659Y474550D01*
X920938Y474506D01*
X921232Y474481D01*
X921540Y474472D01*
Y471932D01*
X921232Y471923D01*
X920938Y471898D01*
X920659Y471854D01*
X920395Y471794D01*
X920146Y471716D01*
X919911Y471621D01*
X919690Y471509D01*
X919484Y471379D01*
X919293Y471232D01*
X919117Y471068D01*
Y475336D01*
X919293Y475172D01*
D02*
G37*
G36*
X735670Y462094D02*
X735459Y461870D01*
X735270Y461645D01*
X735103Y461417D01*
X734959Y461188D01*
X734837Y460956D01*
X734738Y460723D01*
X734662Y460488D01*
X734608Y460250D01*
X734577Y460011D01*
X734568Y459771D01*
X731551Y462788D01*
X731791Y462797D01*
X732030Y462828D01*
X732268Y462882D01*
X732503Y462958D01*
X732736Y463057D01*
X732968Y463179D01*
X733197Y463323D01*
X733425Y463490D01*
X733651Y463679D01*
X733874Y463890D01*
X735670Y462094D01*
D02*
G37*
G36*
X897296Y463069D02*
X897523Y462881D01*
X897751Y462718D01*
X897981Y462580D01*
X898213Y462467D01*
X898446Y462378D01*
X898680Y462313D01*
X898917Y462273D01*
X899155Y462258D01*
X899394Y462268D01*
X896627Y459019D01*
X896600Y459258D01*
X896553Y459494D01*
X896485Y459729D01*
X896396Y459963D01*
X896287Y460194D01*
X896158Y460424D01*
X896007Y460652D01*
X895837Y460878D01*
X895646Y461103D01*
X895434Y461326D01*
X897071Y463280D01*
X897296Y463069D01*
D02*
G37*
G36*
X860104Y459325D02*
X859893Y459101D01*
X859704Y458876D01*
X859537Y458648D01*
X859393Y458418D01*
X859271Y458187D01*
X859172Y457954D01*
X859096Y457718D01*
X859042Y457481D01*
X859011Y457242D01*
X859002Y457001D01*
X855984Y460019D01*
X856225Y460028D01*
X856464Y460059D01*
X856701Y460113D01*
X856937Y460189D01*
X857170Y460288D01*
X857401Y460410D01*
X857631Y460554D01*
X857859Y460720D01*
X858084Y460910D01*
X858308Y461121D01*
X860104Y459325D01*
D02*
G37*
G36*
X891695Y456567D02*
X891921Y456378D01*
X892149Y456211D01*
X892378Y456067D01*
X892610Y455945D01*
X892843Y455846D01*
X893079Y455770D01*
X893316Y455716D01*
X893555Y455685D01*
X893795Y455676D01*
X890778Y452659D01*
X890769Y452899D01*
X890738Y453138D01*
X890684Y453376D01*
X890608Y453611D01*
X890509Y453844D01*
X890387Y454076D01*
X890243Y454305D01*
X890076Y454533D01*
X889887Y454758D01*
X889676Y454982D01*
X891472Y456778D01*
X891695Y456567D01*
D02*
G37*
G36*
X868695Y455581D02*
X868754Y455348D01*
X868832Y455117D01*
X868929Y454887D01*
X869046Y454658D01*
X869181Y454430D01*
X869336Y454204D01*
X869510Y453979D01*
X869703Y453756D01*
X869914Y453534D01*
X868397Y451460D01*
X868171Y451672D01*
X867944Y451858D01*
X867716Y452018D01*
X867486Y452152D01*
X867255Y452260D01*
X867024Y452342D01*
X866791Y452397D01*
X866557Y452427D01*
X866322Y452430D01*
X866085Y452408D01*
X868655Y455815D01*
X868695Y455581D01*
D02*
G37*
G36*
X949519Y453327D02*
X949710Y453181D01*
X949916Y453051D01*
X950137Y452939D01*
X950372Y452844D01*
X950621Y452766D01*
X950885Y452706D01*
X951164Y452663D01*
X951458Y452637D01*
X951766Y452628D01*
Y450088D01*
X951458Y450079D01*
X951164Y450053D01*
X950885Y450010D01*
X950621Y449950D01*
X950372Y449872D01*
X950137Y449777D01*
X949916Y449665D01*
X949710Y449535D01*
X949519Y449389D01*
X949343Y449224D01*
Y453492D01*
X949519Y453327D01*
D02*
G37*
G36*
X942153Y446469D02*
X942345Y446323D01*
X942550Y446193D01*
X942771Y446081D01*
X943006Y445986D01*
X943255Y445908D01*
X943519Y445848D01*
X943798Y445804D01*
X944092Y445779D01*
X944400Y445770D01*
Y443230D01*
X944092Y443221D01*
X943798Y443195D01*
X943519Y443152D01*
X943255Y443092D01*
X943006Y443014D01*
X942771Y442919D01*
X942550Y442807D01*
X942345Y442677D01*
X942153Y442531D01*
X941977Y442366D01*
Y446634D01*
X942153Y446469D01*
D02*
G37*
G36*
X873222Y436372D02*
X872981Y436363D01*
X872742Y436332D01*
X872505Y436278D01*
X872269Y436202D01*
X872036Y436103D01*
X871805Y435981D01*
X871575Y435837D01*
X871347Y435670D01*
X871122Y435481D01*
X870898Y435270D01*
X869102Y437066D01*
X869313Y437290D01*
X869502Y437515D01*
X869669Y437743D01*
X869813Y437972D01*
X869935Y438204D01*
X870033Y438437D01*
X870110Y438672D01*
X870164Y438910D01*
X870195Y439149D01*
X870204Y439389D01*
X873222Y436372D01*
D02*
G37*
G36*
X931104Y429462D02*
X931207Y429288D01*
X931337Y429134D01*
X931494Y429001D01*
X931677Y428888D01*
X931887Y428796D01*
X932123Y428724D01*
X932385Y428672D01*
X932675Y428642D01*
X932990Y428631D01*
X932657Y426091D01*
X932093Y426089D01*
X929292Y425926D01*
X929156Y425887D01*
X931026Y429657D01*
X931104Y429462D01*
D02*
G37*
G36*
X925069Y423462D02*
X925127Y423280D01*
X925207Y423092D01*
X925307Y422897D01*
X925428Y422696D01*
X925570Y422488D01*
X925918Y422054D01*
X926123Y421827D01*
X926348Y421594D01*
X924917Y419433D01*
X924700Y419638D01*
X924487Y419815D01*
X924277Y419965D01*
X924070Y420088D01*
X923867Y420183D01*
X923668Y420251D01*
X923472Y420291D01*
X923279Y420304D01*
X923090Y420289D01*
X922904Y420247D01*
X925031Y423638D01*
X925069Y423462D01*
D02*
G37*
G36*
X861831Y404697D02*
X861859Y404405D01*
X861906Y404128D01*
X861971Y403868D01*
X862054Y403625D01*
X862156Y403397D01*
X862277Y403186D01*
X862416Y402991D01*
X862574Y402813D01*
X862751Y402651D01*
X858498Y402295D01*
X858647Y402483D01*
X858781Y402685D01*
X858898Y402900D01*
X859000Y403128D01*
X859086Y403369D01*
X859157Y403623D01*
X859212Y403890D01*
X859251Y404171D01*
X859274Y404465D01*
X859282Y404772D01*
X861822Y405006D01*
X861831Y404697D01*
D02*
G37*
G36*
X940375Y396685D02*
X940566Y396539D01*
X940772Y396409D01*
X940993Y396297D01*
X941228Y396202D01*
X941477Y396124D01*
X941741Y396064D01*
X942020Y396021D01*
X942314Y395995D01*
X942622Y395986D01*
Y393446D01*
X942314Y393437D01*
X942020Y393411D01*
X941741Y393368D01*
X941477Y393308D01*
X941228Y393230D01*
X940993Y393135D01*
X940772Y393023D01*
X940566Y392893D01*
X940375Y392747D01*
X940199Y392582D01*
Y396850D01*
X940375Y396685D01*
D02*
G37*
G36*
X997746Y381525D02*
X997605Y381329D01*
X997482Y381118D01*
X997374Y380894D01*
X997283Y380655D01*
X997209Y380403D01*
X997151Y380137D01*
X997110Y379857D01*
X997085Y379564D01*
X997077Y379256D01*
X994537Y379140D01*
X994528Y379448D01*
X994501Y379741D01*
X994456Y380019D01*
X994393Y380281D01*
X994313Y380528D01*
X994214Y380759D01*
X994097Y380975D01*
X993962Y381175D01*
X993810Y381361D01*
X993639Y381530D01*
X997902Y381708D01*
X997746Y381525D01*
D02*
G37*
G36*
X888832Y379798D02*
X888621Y379575D01*
X888432Y379349D01*
X888265Y379121D01*
X888121Y378891D01*
X887999Y378660D01*
X887900Y378427D01*
X887824Y378191D01*
X887770Y377954D01*
X887739Y377715D01*
X887730Y377475D01*
X884713Y380492D01*
X884953Y380501D01*
X885192Y380532D01*
X885430Y380586D01*
X885665Y380662D01*
X885898Y380761D01*
X886130Y380883D01*
X886359Y381027D01*
X886587Y381194D01*
X886813Y381383D01*
X887036Y381594D01*
X888832Y379798D01*
D02*
G37*
G36*
X997086Y353342D02*
X997113Y353049D01*
X997158Y352771D01*
X997221Y352509D01*
X997301Y352262D01*
X997400Y352031D01*
X997517Y351815D01*
X997652Y351614D01*
X997804Y351429D01*
X997975Y351260D01*
X993712Y351082D01*
X993868Y351265D01*
X994009Y351461D01*
X994133Y351672D01*
X994240Y351896D01*
X994331Y352135D01*
X994405Y352387D01*
X994463Y352653D01*
X994504Y352933D01*
X994529Y353226D01*
X994537Y353534D01*
X997077Y353650D01*
X997086Y353342D01*
D02*
G37*
G36*
X932520Y344746D02*
X932309Y344523D01*
X932120Y344297D01*
X931953Y344069D01*
X931809Y343839D01*
X931687Y343608D01*
X931589Y343375D01*
X931512Y343139D01*
X931458Y342902D01*
X931427Y342663D01*
X931418Y342422D01*
X928400Y345440D01*
X928641Y345449D01*
X928880Y345480D01*
X929118Y345534D01*
X929353Y345611D01*
X929586Y345709D01*
X929818Y345831D01*
X930047Y345975D01*
X930275Y346142D01*
X930500Y346331D01*
X930724Y346542D01*
X932520Y344746D01*
D02*
G37*
G36*
X932266Y333570D02*
X932055Y333346D01*
X931866Y333121D01*
X931699Y332893D01*
X931555Y332663D01*
X931433Y332432D01*
X931335Y332199D01*
X931258Y331964D01*
X931204Y331726D01*
X931173Y331487D01*
X931164Y331246D01*
X928147Y334264D01*
X928387Y334273D01*
X928626Y334304D01*
X928864Y334358D01*
X929099Y334435D01*
X929332Y334533D01*
X929564Y334655D01*
X929793Y334799D01*
X930021Y334966D01*
X930247Y335155D01*
X930470Y335366D01*
X932266Y333570D01*
D02*
G37*
G36*
X296305Y698202D02*
X295157Y698161D01*
X293105Y697974D01*
X292201Y697828D01*
X291379Y697647D01*
X290639Y697431D01*
X289980Y697180D01*
X289402Y696894D01*
X288906Y696573D01*
X288492Y696217D01*
X286642Y697959D01*
X287009Y698387D01*
X287333Y698891D01*
X287614Y699472D01*
X287850Y700130D01*
X288044Y700865D01*
X288194Y701676D01*
X288300Y702565D01*
X288363Y703530D01*
X288358Y705691D01*
X296305Y698202D01*
D02*
G37*
G36*
X256530Y664255D02*
X256318Y664030D01*
X256131Y663803D01*
X255968Y663575D01*
X255829Y663345D01*
X255715Y663114D01*
X255626Y662880D01*
X255561Y662646D01*
X255520Y662409D01*
X255504Y662171D01*
X255513Y661932D01*
X252275Y664711D01*
X252514Y664737D01*
X252751Y664784D01*
X252986Y664852D01*
X253220Y664940D01*
X253451Y665048D01*
X253681Y665177D01*
X253909Y665327D01*
X254136Y665498D01*
X254361Y665689D01*
X254583Y665900D01*
X256530Y664255D01*
D02*
G37*
G36*
X832020Y591272D02*
X832016Y591039D01*
X832039Y590807D01*
X832089Y590576D01*
X832166Y590346D01*
X832271Y590116D01*
X832402Y589887D01*
X832561Y589659D01*
X832746Y589432D01*
X832959Y589206D01*
X830805Y587767D01*
X830583Y587979D01*
X830137Y588349D01*
X829912Y588507D01*
X829687Y588646D01*
X829461Y588767D01*
X829234Y588870D01*
X829006Y588954D01*
X828777Y589021D01*
X828547Y589069D01*
X832050Y591505D01*
X832020Y591272D01*
D02*
G37*
G36*
X846579Y575595D02*
X847025Y575225D01*
X847250Y575067D01*
X847475Y574928D01*
X847701Y574807D01*
X847928Y574704D01*
X848156Y574620D01*
X848385Y574553D01*
X848615Y574505D01*
X845111Y572069D01*
X845143Y572302D01*
X845146Y572535D01*
X845123Y572767D01*
X845073Y572998D01*
X844996Y573228D01*
X844891Y573458D01*
X844760Y573687D01*
X844602Y573915D01*
X844416Y574142D01*
X844203Y574368D01*
X846357Y575807D01*
X846579Y575595D01*
D02*
G37*
G36*
X748177Y571592D02*
X748363Y571440D01*
X748563Y571305D01*
X748779Y571188D01*
X749010Y571090D01*
X749257Y571009D01*
X749519Y570946D01*
X749797Y570901D01*
X750090Y570874D01*
X750398Y570865D01*
X750282Y568325D01*
X749974Y568317D01*
X749680Y568292D01*
X749401Y568251D01*
X749135Y568193D01*
X748883Y568119D01*
X748644Y568028D01*
X748420Y567920D01*
X748209Y567797D01*
X748013Y567656D01*
X747830Y567500D01*
X748008Y571763D01*
X748177Y571592D01*
D02*
G37*
G36*
X803170Y567427D02*
X803001Y567598D01*
X802815Y567750D01*
X802615Y567885D01*
X802399Y568002D01*
X802168Y568101D01*
X801921Y568181D01*
X801659Y568244D01*
X801381Y568289D01*
X801088Y568316D01*
X800780Y568325D01*
X800896Y570865D01*
X801204Y570873D01*
X801497Y570898D01*
X801777Y570939D01*
X802043Y570997D01*
X802295Y571071D01*
X802534Y571162D01*
X802758Y571269D01*
X802969Y571393D01*
X803165Y571534D01*
X803348Y571690D01*
X803170Y567427D01*
D02*
G37*
G36*
X1446546Y583351D02*
X1446775Y583263D01*
X1447089Y583185D01*
X1447489Y583117D01*
X1448542Y583013D01*
X1449935Y582951D01*
X1451668Y582930D01*
Y572770D01*
X1450759Y572765D01*
X1447089Y572515D01*
X1446775Y572437D01*
X1446546Y572349D01*
X1446401Y572250D01*
Y583450D01*
X1446546Y583351D01*
D02*
G37*
G36*
X1520699Y533019D02*
X1520435Y533236D01*
X1520090Y533430D01*
X1519663Y533602D01*
X1519157Y533750D01*
X1518569Y533876D01*
X1517900Y533979D01*
X1516321Y534116D01*
X1514418Y534162D01*
Y544322D01*
X1515410Y544333D01*
X1517900Y544505D01*
X1518569Y544608D01*
X1519157Y544734D01*
X1519663Y544882D01*
X1520090Y545053D01*
X1520435Y545248D01*
X1520699Y545465D01*
Y533019D01*
D02*
G37*
G36*
X1297559Y482860D02*
X1297569Y482313D01*
X1297647Y481328D01*
X1297716Y480890D01*
X1297804Y480488D01*
X1297911Y480123D01*
X1298038Y479794D01*
X1298185Y479502D01*
X1298352Y479246D01*
X1298538Y479026D01*
X1291428Y479204D01*
X1291628Y479418D01*
X1291806Y479669D01*
X1291964Y479958D01*
X1292101Y480283D01*
X1292216Y480644D01*
X1292311Y481043D01*
X1292384Y481479D01*
X1292437Y481951D01*
X1292479Y483006D01*
X1297559Y482860D01*
D02*
G37*
G36*
X1167418Y426737D02*
X1167277Y426541D01*
X1167153Y426330D01*
X1167046Y426106D01*
X1166955Y425867D01*
X1166881Y425615D01*
X1166823Y425349D01*
X1166782Y425070D01*
X1166757Y424776D01*
X1166749Y424468D01*
X1164209Y424352D01*
X1164200Y424660D01*
X1164173Y424953D01*
X1164128Y425231D01*
X1164065Y425493D01*
X1163985Y425740D01*
X1163886Y425971D01*
X1163769Y426187D01*
X1163634Y426387D01*
X1163482Y426573D01*
X1163311Y426742D01*
X1167574Y426920D01*
X1167418Y426737D01*
D02*
G37*
G36*
X1174643Y416941D02*
X1174845Y416808D01*
X1175060Y416690D01*
X1175287Y416588D01*
X1175529Y416502D01*
X1175783Y416431D01*
X1176050Y416376D01*
X1176331Y416337D01*
X1176625Y416314D01*
X1176932Y416306D01*
X1177167Y413766D01*
X1176858Y413757D01*
X1176565Y413729D01*
X1176288Y413682D01*
X1176028Y413617D01*
X1175785Y413534D01*
X1175557Y413432D01*
X1175346Y413311D01*
X1175151Y413172D01*
X1174973Y413014D01*
X1174811Y412837D01*
X1174455Y417090D01*
X1174643Y416941D01*
D02*
G37*
G36*
X1205767Y410212D02*
X1205992Y410023D01*
X1206220Y409856D01*
X1206450Y409712D01*
X1206681Y409590D01*
X1206914Y409492D01*
X1207150Y409415D01*
X1207387Y409361D01*
X1207626Y409330D01*
X1207867Y409321D01*
X1204849Y406303D01*
X1204840Y406544D01*
X1204809Y406783D01*
X1204755Y407020D01*
X1204678Y407256D01*
X1204580Y407489D01*
X1204458Y407720D01*
X1204314Y407950D01*
X1204147Y408178D01*
X1203958Y408404D01*
X1203747Y408627D01*
X1205543Y410423D01*
X1205767Y410212D01*
D02*
G37*
G36*
X1166758Y400586D02*
X1166785Y400293D01*
X1166830Y400015D01*
X1166893Y399753D01*
X1166973Y399506D01*
X1167072Y399275D01*
X1167189Y399059D01*
X1167324Y398858D01*
X1167476Y398673D01*
X1167647Y398504D01*
X1163384Y398326D01*
X1163540Y398509D01*
X1163681Y398705D01*
X1163804Y398916D01*
X1163912Y399140D01*
X1164003Y399379D01*
X1164077Y399631D01*
X1164135Y399897D01*
X1164176Y400177D01*
X1164201Y400470D01*
X1164209Y400778D01*
X1166749Y400894D01*
X1166758Y400586D01*
D02*
G37*
G36*
X1159446Y356553D02*
X1159637Y355473D01*
X1159955Y354520D01*
X1160399Y353695D01*
X1160971Y352996D01*
X1161669Y352425D01*
X1162495Y351981D01*
X1163447Y351663D01*
X1164527Y351473D01*
X1165733Y351409D01*
X1156208Y345059D01*
X1146683Y351409D01*
X1147889Y351473D01*
X1148969Y351663D01*
X1149921Y351981D01*
X1150747Y352425D01*
X1151445Y352996D01*
X1152017Y353695D01*
X1152461Y354520D01*
X1152779Y355473D01*
X1152970Y356553D01*
X1153033Y357759D01*
X1159383D01*
X1159446Y356553D01*
D02*
G37*
G36*
X1105283Y353981D02*
X1105474Y353441D01*
X1105793Y352965D01*
X1106240Y352552D01*
X1106814Y352203D01*
X1107516Y351917D01*
X1108345Y351695D01*
X1109303Y351536D01*
X1110387Y351441D01*
X1111600Y351409D01*
Y345059D01*
X1110387Y345027D01*
X1109303Y344932D01*
X1108345Y344773D01*
X1107516Y344551D01*
X1106814Y344265D01*
X1106240Y343916D01*
X1105793Y343503D01*
X1105474Y343027D01*
X1105283Y342487D01*
X1105219Y341884D01*
Y354584D01*
X1105283Y353981D01*
D02*
G37*
G36*
X794267Y439911D02*
X794298Y439672D01*
X794352Y439435D01*
X794428Y439199D01*
X794527Y438966D01*
X794649Y438735D01*
X794793Y438505D01*
X794960Y438277D01*
X795149Y438051D01*
X795360Y437828D01*
X793564Y436032D01*
X793341Y436243D01*
X793115Y436432D01*
X792887Y436599D01*
X792657Y436743D01*
X792426Y436865D01*
X792193Y436964D01*
X791957Y437040D01*
X791720Y437094D01*
X791481Y437125D01*
X791240Y437134D01*
X794258Y440151D01*
X794267Y439911D01*
D02*
G37*
G36*
X838055Y422554D02*
X837879Y422719D01*
X837688Y422865D01*
X837482Y422995D01*
X837261Y423107D01*
X837026Y423202D01*
X836777Y423280D01*
X836513Y423340D01*
X836234Y423383D01*
X835940Y423409D01*
X835632Y423418D01*
Y425958D01*
X835940Y425967D01*
X836234Y425993D01*
X836513Y426036D01*
X836777Y426096D01*
X837026Y426174D01*
X837261Y426269D01*
X837482Y426381D01*
X837688Y426511D01*
X837879Y426657D01*
X838055Y426822D01*
Y422554D01*
D02*
G37*
G36*
X845150Y416409D02*
X845088Y416428D01*
X845014Y416427D01*
X844928Y416404D01*
X844829Y416361D01*
X844718Y416296D01*
X844595Y416211D01*
X844459Y416105D01*
X844151Y415830D01*
X843978Y415662D01*
X842253Y417530D01*
X842498Y417776D01*
X843525Y418938D01*
X843536Y418982D01*
X845150Y416409D01*
D02*
G37*
G36*
X775783Y418530D02*
X775975Y418383D01*
X776180Y418253D01*
X776401Y418141D01*
X776636Y418046D01*
X776885Y417968D01*
X777149Y417908D01*
X777428Y417864D01*
X777722Y417839D01*
X778030Y417830D01*
Y415290D01*
X777722Y415281D01*
X777428Y415256D01*
X777149Y415212D01*
X776885Y415152D01*
X776636Y415074D01*
X776401Y414979D01*
X776180Y414867D01*
X775975Y414737D01*
X775783Y414590D01*
X775607Y414426D01*
Y418694D01*
X775783Y418530D01*
D02*
G37*
G36*
X565669Y414979D02*
X566058Y408375D01*
X566203Y407664D01*
X566369Y407156D01*
X566558Y406851D01*
X566769Y406749D01*
X550830D01*
X551717Y406851D01*
X552511Y407156D01*
X553211Y407664D01*
X553818Y408375D01*
X554331Y409290D01*
X554751Y410407D01*
X555078Y411728D01*
X555311Y413252D01*
X555451Y414979D01*
X555498Y416909D01*
X565658D01*
X565669Y414979D01*
D02*
G37*
G36*
X872753Y370823D02*
X872784Y370584D01*
X872838Y370346D01*
X872915Y370111D01*
X873013Y369878D01*
X873135Y369646D01*
X873279Y369417D01*
X873446Y369189D01*
X873635Y368964D01*
X873846Y368740D01*
X872050Y366944D01*
X871826Y367155D01*
X871601Y367344D01*
X871373Y367511D01*
X871143Y367655D01*
X870912Y367777D01*
X870679Y367876D01*
X870443Y367952D01*
X870206Y368006D01*
X869967Y368037D01*
X869726Y368046D01*
X872744Y371063D01*
X872753Y370823D01*
D02*
G37*
G36*
X866403Y365743D02*
X866434Y365504D01*
X866488Y365266D01*
X866564Y365031D01*
X866663Y364798D01*
X866785Y364566D01*
X866929Y364337D01*
X867096Y364109D01*
X867285Y363884D01*
X867496Y363660D01*
X865700Y361864D01*
X865477Y362075D01*
X865251Y362264D01*
X865023Y362431D01*
X864793Y362575D01*
X864562Y362697D01*
X864329Y362795D01*
X864093Y362872D01*
X863856Y362926D01*
X863617Y362957D01*
X863376Y362966D01*
X866394Y365984D01*
X866403Y365743D01*
D02*
G37*
G36*
X896590Y346011D02*
X896816Y345828D01*
X897037Y345679D01*
X897254Y345563D01*
X897466Y345481D01*
X897674Y345433D01*
X897877Y345418D01*
X898075Y345436D01*
X898269Y345488D01*
X898458Y345574D01*
X897175Y341580D01*
X897111Y341688D01*
X897010Y341831D01*
X896691Y342217D01*
X895925Y343047D01*
X894814Y344180D01*
X896359Y346227D01*
X896590Y346011D01*
D02*
G37*
G36*
X895760Y335409D02*
X895985Y335220D01*
X896213Y335053D01*
X896442Y334909D01*
X896674Y334787D01*
X896907Y334688D01*
X897142Y334612D01*
X897380Y334558D01*
X897619Y334527D01*
X897859Y334518D01*
X894842Y331501D01*
X894833Y331741D01*
X894802Y331980D01*
X894748Y332217D01*
X894671Y332453D01*
X894573Y332686D01*
X894451Y332918D01*
X894307Y333147D01*
X894140Y333375D01*
X893951Y333601D01*
X893740Y333824D01*
X895536Y335620D01*
X895760Y335409D01*
D02*
G37*
G36*
X1167321Y330387D02*
X1167175Y330196D01*
X1167045Y329990D01*
X1166933Y329769D01*
X1166838Y329534D01*
X1166760Y329285D01*
X1166700Y329021D01*
X1166656Y328742D01*
X1166631Y328448D01*
X1166622Y328140D01*
X1164082D01*
X1164073Y328448D01*
X1164047Y328742D01*
X1164004Y329021D01*
X1163944Y329285D01*
X1163866Y329534D01*
X1163771Y329769D01*
X1163659Y329990D01*
X1163529Y330196D01*
X1163382Y330387D01*
X1163218Y330563D01*
X1167486D01*
X1167321Y330387D01*
D02*
G37*
G36*
X868493Y319216D02*
X868684Y319069D01*
X868890Y318939D01*
X869111Y318827D01*
X869346Y318732D01*
X869595Y318654D01*
X869859Y318594D01*
X870138Y318550D01*
X870432Y318525D01*
X870740Y318516D01*
Y315976D01*
X870432Y315967D01*
X870138Y315942D01*
X869859Y315898D01*
X869595Y315838D01*
X869346Y315760D01*
X869111Y315665D01*
X868890Y315553D01*
X868684Y315423D01*
X868493Y315277D01*
X868317Y315112D01*
Y319380D01*
X868493Y319216D01*
D02*
G37*
G36*
X1001551Y216859D02*
X1001782Y213608D01*
X1001984Y212287D01*
X1002244Y211169D01*
X1002562Y210255D01*
X1002938Y209544D01*
X1003371Y209036D01*
X1003863Y208731D01*
X1004411Y208629D01*
X988473D01*
X989022Y208731D01*
X989513Y209036D01*
X989946Y209544D01*
X990322Y210255D01*
X990640Y211169D01*
X990900Y212287D01*
X991102Y213608D01*
X991246Y215132D01*
X991362Y218790D01*
X1001522D01*
X1001551Y216859D01*
D02*
G37*
G36*
X1003863Y192589D02*
X1003371Y192284D01*
X1002938Y191776D01*
X1002562Y191065D01*
X1002244Y190151D01*
X1001984Y189033D01*
X1001782Y187712D01*
X1001638Y186188D01*
X1001522Y182530D01*
X991362D01*
X991333Y184461D01*
X991102Y187712D01*
X990900Y189033D01*
X990640Y190151D01*
X990322Y191065D01*
X989946Y191776D01*
X989513Y192284D01*
X989022Y192589D01*
X988473Y192691D01*
X1004411D01*
X1003863Y192589D01*
D02*
G37*
G36*
X1090649Y56193D02*
X1090077Y55813D01*
X1089571Y55177D01*
X1089133Y54289D01*
X1088762Y53145D01*
X1088459Y51748D01*
X1088223Y50097D01*
X1088055Y48193D01*
X1087920Y43621D01*
X1075220D01*
X1075186Y46034D01*
X1074681Y51748D01*
X1074378Y53145D01*
X1074007Y54289D01*
X1073569Y55177D01*
X1073064Y55813D01*
X1072491Y56193D01*
X1071851Y56321D01*
X1091290D01*
X1090649Y56193D01*
D02*
G37*
G36*
X686285Y50919D02*
X685863Y50692D01*
X685491Y50314D01*
X685169Y49785D01*
X684896Y49104D01*
X684673Y48273D01*
X684499Y47290D01*
X684375Y46156D01*
X684276Y43434D01*
X674116D01*
X674091Y44871D01*
X673893Y47290D01*
X673719Y48273D01*
X673496Y49104D01*
X673223Y49785D01*
X672901Y50314D01*
X672529Y50692D01*
X672107Y50919D01*
X671636Y50995D01*
X686757D01*
X686285Y50919D01*
D02*
G37*
G36*
X286367Y49692D02*
X286238Y49384D01*
X286123Y48971D01*
X286024Y48452D01*
X285940Y47828D01*
X285819Y46263D01*
X285750Y43123D01*
X273050D01*
X273042Y44275D01*
X272776Y48452D01*
X272677Y48971D01*
X272562Y49384D01*
X272433Y49692D01*
X272288Y49894D01*
X286512D01*
X286367Y49692D01*
D02*
G37*
G36*
X945007Y35687D02*
X945388Y33528D01*
X945888Y32030D01*
X946500D01*
X946193Y31902D01*
X946013Y31654D01*
X946023Y31623D01*
X946912Y29972D01*
X948055Y28575D01*
X949452Y27432D01*
X951103Y26543D01*
X953008Y25908D01*
X955167Y25527D01*
X957580Y25400D01*
X938530Y12700D01*
X919480Y25400D01*
X921893Y25527D01*
X924052Y25908D01*
X925957Y26543D01*
X927608Y27432D01*
X929005Y28575D01*
X930148Y29972D01*
X931037Y31623D01*
X931047Y31654D01*
X930867Y31902D01*
X930559Y32030D01*
X931172D01*
X931672Y33528D01*
X932053Y35687D01*
X932180Y38100D01*
X944880D01*
X945007Y35687D01*
D02*
G37*
D29*
X1454658Y319024D02*
X1610588D01*
X1610666Y318946D01*
X1455388Y448851D02*
X1610634D01*
X1454658Y192780D02*
X1611646D01*
D30*
X36576Y581914D02*
X98298Y520192D01*
X36576Y581914D02*
Y605536D01*
X687324Y482092D02*
X778256D01*
X687324Y473710D02*
Y482092D01*
X687074D02*
Y588006D01*
X687070Y588010D02*
Y630936D01*
X1177888Y348234D02*
X1189482Y359828D01*
Y395732D01*
X1156208Y348234D02*
Y422402D01*
X687070Y630936D02*
X750062Y693928D01*
X795020D01*
X1156208Y348234D02*
X1177888D01*
X1097280D02*
X1156208D01*
D31*
X1011682Y481838D02*
X1054608D01*
X1133602Y560832D01*
X236474Y183896D02*
X255778Y203200D01*
X186944Y183896D02*
X236474D01*
X255778Y203200D02*
X263709D01*
X929640Y608500D02*
Y609600D01*
X926846Y508508D02*
Y605706D01*
X932942Y603504D02*
X938784Y609346D01*
X926846Y605706D02*
X929640Y608500D01*
X932942Y501650D02*
Y603504D01*
X938530Y493522D02*
Y599440D01*
X943356Y486156D02*
Y594614D01*
X931164Y486156D02*
X938530Y493522D01*
Y599440D02*
X948436Y609346D01*
X937260Y480060D02*
X943356Y486156D01*
X936752Y480060D02*
X937260D01*
X932434Y501142D02*
X932942Y501650D01*
X943356Y594614D02*
X957834Y609092D01*
D32*
X387477Y422275D02*
X387858Y421894D01*
X387096Y537210D02*
X387477Y536829D01*
Y422275D02*
Y536829D01*
X279400Y33274D02*
Y57150D01*
Y33274D02*
X293624Y19050D01*
X938530D01*
X1074130D02*
X1081570Y26490D01*
Y66040D01*
X938530Y19050D02*
X1074130D01*
X936880Y38350D02*
X938530Y40000D01*
Y19050D02*
Y40000D01*
D33*
X560070Y497840D02*
Y663702D01*
X1267968Y724662D02*
X1362964D01*
X1399032Y599186D02*
Y688594D01*
X1362964Y724662D02*
X1399032Y688594D01*
X1472184Y577850D02*
X1510792Y539242D01*
X1527048D01*
X1440688Y577850D02*
X1472184D01*
X686054Y36576D02*
X879348D01*
X996442Y153670D02*
Y200660D01*
X879348Y36576D02*
X996442Y153670D01*
X558800Y398780D02*
X560578Y400558D01*
Y473456D01*
X796544Y970788D02*
X808228Y982472D01*
X1039114D02*
X1057402Y964184D01*
X808228Y982472D02*
X1039114D01*
X796544Y915162D02*
Y970788D01*
X1057148Y815086D02*
X1057783Y814451D01*
X1191387D01*
X1192276Y813562D01*
X679196Y43434D02*
X686054Y36576D01*
X679196Y43434D02*
Y58964D01*
X703040Y782320D02*
X705072Y784352D01*
X1027430Y275844D02*
X1143000D01*
X996442Y244856D02*
X1027430Y275844D01*
X996442Y200660D02*
Y244856D01*
D34*
X885190Y497078D02*
X914146Y526034D01*
Y651510D02*
X922274Y659638D01*
X914146Y526034D02*
Y651510D01*
X1074764Y461010D02*
X1106424Y492670D01*
Y493268D01*
X939848Y461010D02*
X1074764D01*
X1069594Y891032D02*
Y977392D01*
X1044194Y865632D02*
X1069594Y891032D01*
X1516634Y848868D02*
Y873506D01*
X739140Y467360D02*
X879094D01*
X731520Y459740D02*
X739140Y467360D01*
X731520Y469900D02*
X732482D01*
X734514Y471932D02*
X886624D01*
X732482Y469900D02*
X734514Y471932D01*
X954786Y485336D02*
X964634Y475488D01*
X1057566D01*
X1064424Y470916D02*
X1135634Y542126D01*
X953770Y475742D02*
X958596Y470916D01*
X1057566Y475488D02*
X1134000Y551923D01*
X958596Y470916D02*
X1064424D01*
X1070356Y465582D02*
X1091692Y486918D01*
X927264Y480060D02*
X941742Y465582D01*
X1070356D01*
X927656Y473202D02*
X939848Y461010D01*
X791210Y440182D02*
X806704Y424688D01*
X840232D01*
X843080Y416560D02*
X845620Y419100D01*
X846582D01*
X773430Y416560D02*
X843080D01*
X905510Y398272D02*
Y416142D01*
X884682Y377444D02*
X905510Y398272D01*
X860552Y400558D02*
X860806Y400304D01*
X860552Y400558D02*
Y426720D01*
X873252Y439420D01*
X866230Y455422D02*
X905510Y416142D01*
X869696Y371094D02*
X897210Y343580D01*
X899242D01*
X899922Y342900D01*
X863346Y366014D02*
X897890Y331470D01*
X886624Y471932D02*
X899324Y459232D01*
X879094Y467360D02*
X893826Y452628D01*
X1156970Y317246D02*
X1165352Y325628D01*
X866140Y317246D02*
X1156970D01*
X916940Y473202D02*
X927656D01*
X908812Y480060D02*
X927264D01*
X887730Y479298D02*
X907796Y499364D01*
X902316Y524364D02*
Y609834D01*
X885190Y507238D02*
X902316Y524364D01*
X1172464Y414782D02*
X1172718Y415036D01*
X1199134D01*
X1165479Y396367D02*
Y428879D01*
X1165352Y429006D02*
X1165479Y428879D01*
Y396367D02*
X1165606Y396240D01*
X1165352Y325628D02*
Y332740D01*
X1199134Y415036D02*
X1207897Y406273D01*
X1135634Y542126D02*
Y542290D01*
X922274Y659638D02*
Y659892D01*
X920750Y514096D02*
Y609690D01*
X952918Y641858D01*
X749564Y751596D02*
X753840Y755872D01*
Y782320D01*
X717540Y751596D02*
X749564D01*
X775970Y509778D02*
X813816D01*
X937514Y434086D02*
X1063244D01*
X914400Y457200D02*
X937514Y434086D01*
X930469Y427361D02*
X1092587D01*
X1246378Y581152D01*
X928116Y428752D02*
X929078D01*
X930469Y427361D01*
X881634Y483870D02*
X906526Y508762D01*
X865378Y483870D02*
X881634D01*
X860552Y479298D02*
X887730D01*
X826516Y522732D02*
X865378Y483870D01*
X829818Y510032D02*
X860552Y479298D01*
X939800Y444500D02*
X1091184D01*
X1154430Y507746D01*
X1085850Y451358D02*
X1142492Y508000D01*
X947166Y451358D02*
X1085850D01*
X1107186Y403352D02*
X1286256Y582422D01*
X1102360Y407924D02*
X1288796Y594360D01*
X1094537Y420331D02*
X1259376Y585170D01*
X1098765Y413981D02*
X1274064Y589280D01*
X1112774Y398526D02*
X1282446Y568198D01*
X925815Y420331D02*
X1094537D01*
X916725Y413981D02*
X1098765D01*
X928370Y342392D02*
X989330Y403352D01*
X1107186D01*
X963814Y394716D02*
X977022Y407924D01*
X1102360D01*
X829056Y591312D02*
Y592074D01*
Y591312D02*
X848106Y572262D01*
Y571500D02*
Y572262D01*
X745744Y569722D02*
X745871Y569595D01*
X805307D01*
X805434Y569468D01*
X825754Y559054D02*
X852932Y531876D01*
Y512318D02*
Y531876D01*
X878840Y591820D02*
X879042Y592022D01*
X878840Y558546D02*
Y591820D01*
Y558546D02*
X886714Y550672D01*
X888746Y566420D02*
X895604Y559562D01*
X888746Y566420D02*
Y637286D01*
X296152Y705673D02*
Y706000D01*
X252476Y661670D02*
Y661997D01*
X296152Y705673D01*
X731520Y975614D02*
X750824Y994918D01*
X731520Y960000D02*
Y975614D01*
X750824Y994918D02*
X1052068D01*
X1069594Y977392D01*
X822568Y482208D02*
Y501026D01*
X813816Y509778D02*
X822568Y501026D01*
X867918Y462788D02*
X916725Y413981D01*
X938022Y394716D02*
X963814D01*
X952918Y641858D02*
X1001776D01*
X995426Y398526D02*
X1112774D01*
X928266Y331366D02*
X995426Y398526D01*
X1134000Y551923D02*
X1134313D01*
X1564386Y692658D02*
Y959746D01*
X1564640Y960000D01*
X1564132Y692404D02*
X1564386Y692658D01*
X1121943Y858241D02*
X1148819D01*
X1516634Y873506D02*
X1516888Y873760D01*
X1516380Y848614D02*
X1516634Y848868D01*
Y822452D02*
Y848360D01*
Y822452D02*
X1516888Y822198D01*
X1516380Y848614D02*
X1516634Y848360D01*
X995807Y349123D02*
X995934Y348996D01*
X995680Y383794D02*
X995807Y383667D01*
Y349123D02*
Y383667D01*
X861771Y462788D02*
X867918D01*
X855954Y456971D02*
X861771Y462788D01*
X899324Y459232D02*
X899668D01*
X922020Y423164D02*
X922982D01*
X925815Y420331D01*
X865632Y455422D02*
X866230D01*
X731520Y956358D02*
Y960000D01*
Y956358D02*
X735486Y952392D01*
Y952344D02*
Y952392D01*
X852932Y512318D02*
X866443Y498807D01*
Y498807D02*
Y498807D01*
Y498807D02*
X875030Y490220D01*
X875030D01*
D35*
X1241806Y669544D02*
X1297686D01*
X1143762D02*
X1241806D01*
X1244875Y101600D02*
X1248685Y105410D01*
X1244600Y101600D02*
X1244875D01*
X1248685Y105410D02*
X1309624D01*
X1310132Y232712D02*
X1310290Y232870D01*
X1309624Y105410D02*
Y231868D01*
X1310290Y232870D02*
Y361600D01*
X1310386Y361696D01*
X1309624Y231868D02*
X1310193Y232437D01*
Y232712D01*
X965200Y669036D02*
X1027430D01*
X1297686Y669544D02*
X1333500Y633730D01*
Y532384D02*
Y633730D01*
X1295019Y475615D02*
Y499491D01*
X1294892Y475488D02*
X1295019Y475615D01*
Y499491D02*
X1295146Y499618D01*
X1295019Y499745D02*
X1295146Y499618D01*
X1295019Y499745D02*
Y532257D01*
X1294892Y532384D02*
X1295019Y532257D01*
X1576756Y908304D02*
X1634236D01*
D37*
X876808Y375979D02*
Y385826D01*
Y375979D02*
X884486Y368300D01*
X936752D01*
X876808Y385826D02*
X877062Y386080D01*
X762000Y523748D02*
Y558800D01*
Y523748D02*
X775970Y509778D01*
D38*
X1464310Y857758D02*
X1480312Y873760D01*
X1516888D01*
X1435354Y857758D02*
X1464310D01*
X1249376Y858520D02*
X1249655Y858241D01*
X1241806Y858520D02*
X1249376D01*
X1243076Y783844D02*
Y857250D01*
X1241806Y858520D02*
X1243076Y857250D01*
X1224026Y858520D02*
X1241806D01*
X1333133Y858241D02*
X1361186D01*
D42*
X1081570Y66040D02*
D03*
D43*
X1131570D02*
D03*
D44*
X533400Y398780D02*
D03*
X508000D02*
D03*
X728440Y782320D02*
D03*
X753840D02*
D03*
X963930Y40000D02*
D03*
X1440688Y527050D02*
D03*
Y577850D02*
D03*
Y552450D02*
D03*
X1046480Y348234D02*
D03*
X1071880D02*
D03*
X795020Y643128D02*
D03*
Y668528D02*
D03*
X990029Y780996D02*
D03*
X964629D02*
D03*
X534670Y588010D02*
D03*
X509270D02*
D03*
X938530Y276860D02*
D03*
X913130Y276860D02*
D03*
X887730Y276860D02*
D03*
X862330Y276860D02*
D03*
X731520Y960000D02*
D03*
X706120D02*
D03*
X534670Y497840D02*
D03*
X509270D02*
D03*
X1301750Y960000D02*
D03*
X1403350D02*
D03*
X1200150D02*
D03*
X838200D02*
D03*
X863600D02*
D03*
X965200D02*
D03*
X990600D02*
D03*
X939800D02*
D03*
X914400D02*
D03*
X889000D02*
D03*
X1600200Y746760D02*
D03*
Y772160D02*
D03*
Y797560D02*
D03*
Y848360D02*
D03*
Y822960D02*
D03*
Y721360D02*
D03*
X1097280Y960000D02*
D03*
X1047242Y200660D02*
D03*
X1021842D02*
D03*
X1072642D02*
D03*
X856996Y58964D02*
D03*
X831596D02*
D03*
X729996D02*
D03*
X704596D02*
D03*
X755396D02*
D03*
X780796D02*
D03*
X806196D02*
D03*
X1513840Y960000D02*
D03*
X1564640D02*
D03*
X1539240D02*
D03*
X1242568Y724662D02*
D03*
X1217168D02*
D03*
X1191768D02*
D03*
X1166368D02*
D03*
X1140968D02*
D03*
X1610000Y615950D02*
D03*
Y565150D02*
D03*
Y590550D02*
D03*
X1346454Y527050D02*
D03*
Y577850D02*
D03*
Y552450D02*
D03*
X636270Y588010D02*
D03*
X661670D02*
D03*
X87376Y605536D02*
D03*
X112776D02*
D03*
X138176D02*
D03*
X188976D02*
D03*
X163576D02*
D03*
X61976D02*
D03*
X36576D02*
D03*
D45*
X558800Y398780D02*
D03*
X703040Y782320D02*
D03*
X1097280Y348234D02*
D03*
X939229Y780996D02*
D03*
X560070Y588010D02*
D03*
X963930Y276860D02*
D03*
X756920Y960000D02*
D03*
X560070Y497840D02*
D03*
X1327150Y960000D02*
D03*
X1428750D02*
D03*
X1225550D02*
D03*
X1016000D02*
D03*
X1122680D02*
D03*
X996442Y200660D02*
D03*
X679196Y58964D02*
D03*
X1590040Y960000D02*
D03*
X1267968Y724662D02*
D03*
X687070Y588010D02*
D03*
X214376Y605536D02*
D03*
D46*
X179400Y57150D02*
D03*
X279400D02*
D03*
D47*
X42310Y196850D02*
D03*
X1611646Y192780D02*
D03*
X1610666Y318946D02*
D03*
X1610634Y448851D02*
D03*
X1611634Y78741D02*
D03*
D48*
X92310Y196850D02*
D03*
D49*
X616458Y834390D02*
D03*
Y185551D02*
D03*
X1358900Y50038D02*
D03*
D50*
X938530Y40000D02*
D03*
D51*
X1440688Y603250D02*
D03*
X795020Y693928D02*
D03*
X1600200Y873760D02*
D03*
X1610000Y539750D02*
D03*
X1346454Y603250D02*
D03*
D52*
X1611646Y154681D02*
D03*
X1610666Y280846D02*
D03*
X1610634Y410751D02*
D03*
X1611634Y40641D02*
D03*
D53*
X1387320Y154651D02*
D03*
Y200651D02*
D03*
Y280846D02*
D03*
Y326846D02*
D03*
Y410751D02*
D03*
Y456750D02*
D03*
X1503172Y63501D02*
D03*
X1553972Y40641D02*
D03*
D54*
X1502320Y154651D02*
D03*
X1572320D02*
D03*
X1502320Y280846D02*
D03*
X1572320D02*
D03*
X1502320Y410751D02*
D03*
X1572320D02*
D03*
D55*
X990637Y564097D02*
D03*
D56*
X1025144Y529590D02*
D03*
D57*
X42152Y706000D02*
D03*
X67552D02*
D03*
X92952D02*
D03*
X118352D02*
D03*
X143752D02*
D03*
X169152D02*
D03*
X194552D02*
D03*
X219952D02*
D03*
X245352D02*
D03*
X270752D02*
D03*
X296152D02*
D03*
X321552D02*
D03*
X346952D02*
D03*
X372352D02*
D03*
X397752D02*
D03*
X423152D02*
D03*
X448552D02*
D03*
X473952D02*
D03*
X499352D02*
D03*
X67552Y960000D02*
D03*
X92952D02*
D03*
X118352D02*
D03*
X143752D02*
D03*
X169152D02*
D03*
X194552D02*
D03*
X219952D02*
D03*
X245352D02*
D03*
X270752D02*
D03*
X296152D02*
D03*
X321552D02*
D03*
X346952D02*
D03*
X372352D02*
D03*
X397752D02*
D03*
X423152D02*
D03*
X448552D02*
D03*
X42152D02*
D03*
X473952D02*
D03*
D58*
X499352D02*
D03*
D59*
X276860Y407924D02*
D03*
Y331724D02*
D03*
Y357124D02*
D03*
Y382524D02*
D03*
Y458724D02*
D03*
Y433324D02*
D03*
D60*
Y484124D02*
D03*
D61*
X115570Y81280D02*
D03*
X52070D02*
D03*
D62*
X90170Y30480D02*
D03*
D63*
X98298Y520192D02*
D03*
X1294892Y475488D02*
D03*
D64*
X387096Y537210D02*
D03*
X560070Y538226D02*
D03*
X1527048Y539242D02*
D03*
X387858Y421894D02*
D03*
X1057148Y815086D02*
D03*
X1057402Y964184D02*
D03*
X796544Y915162D02*
D03*
X560070Y663702D02*
D03*
X1192276Y813562D02*
D03*
X1399032Y599186D02*
D03*
D65*
X1044194Y865632D02*
D03*
X1011682Y481838D02*
D03*
X840232Y424688D02*
D03*
X846582Y419100D02*
D03*
X884682Y377444D02*
D03*
X869442Y400304D02*
D03*
X860806D02*
D03*
X869696Y371094D02*
D03*
X863346Y366014D02*
D03*
X877062Y386080D02*
D03*
X942594Y474218D02*
D03*
X263709Y203200D02*
D03*
X186944Y183896D02*
D03*
X915416Y490982D02*
D03*
X76200Y101600D02*
D03*
X203200Y50800D02*
D03*
X101600D02*
D03*
X228600Y101600D02*
D03*
X304800Y50800D02*
D03*
X330200Y101600D02*
D03*
X355600Y152400D02*
D03*
X152400Y254000D02*
D03*
X50800D02*
D03*
X203200D02*
D03*
X228600Y304800D02*
D03*
X127000D02*
D03*
X177800D02*
D03*
X203200Y355600D02*
D03*
X254000Y254000D02*
D03*
X330200Y304800D02*
D03*
X304800Y355600D02*
D03*
X254000D02*
D03*
X355600D02*
D03*
X381000Y101600D02*
D03*
X533400D02*
D03*
X482600D02*
D03*
X457200Y152400D02*
D03*
X406400D02*
D03*
X508000D02*
D03*
X533400Y203200D02*
D03*
X584200Y101600D02*
D03*
X685800D02*
D03*
X660400Y152400D02*
D03*
X584200Y203200D02*
D03*
X685800D02*
D03*
X635000D02*
D03*
X482600Y304800D02*
D03*
X508000Y355600D02*
D03*
X609600D02*
D03*
X457200D02*
D03*
X431800Y406400D02*
D03*
X482600D02*
D03*
X685800Y304800D02*
D03*
X660400Y355600D02*
D03*
X711200D02*
D03*
X736600Y406400D02*
D03*
X152400Y457200D02*
D03*
X177800Y406400D02*
D03*
X50800Y660400D02*
D03*
X228600Y609600D02*
D03*
X330200Y508000D02*
D03*
X279400D02*
D03*
X254000Y762000D02*
D03*
X330200Y609600D02*
D03*
X304800Y660400D02*
D03*
X76200Y812800D02*
D03*
X152400Y863600D02*
D03*
X203200D02*
D03*
X177800Y914400D02*
D03*
X228600Y812800D02*
D03*
X355600Y762000D02*
D03*
X330200Y812800D02*
D03*
X304800Y863600D02*
D03*
X279400Y914400D02*
D03*
X330200D02*
D03*
X584200Y406400D02*
D03*
Y508000D02*
D03*
Y609600D02*
D03*
X431800D02*
D03*
X381000D02*
D03*
X457200Y660400D02*
D03*
X635000Y406400D02*
D03*
Y508000D02*
D03*
X762000Y558800D02*
D03*
X609600D02*
D03*
X635000Y609600D02*
D03*
X711200Y558800D02*
D03*
X660400D02*
D03*
X406400Y762000D02*
D03*
X508000Y660400D02*
D03*
X685800Y711200D02*
D03*
X381000Y812800D02*
D03*
Y914400D02*
D03*
X406400Y863600D02*
D03*
X685800Y812800D02*
D03*
X762000Y660400D02*
D03*
X838200Y101600D02*
D03*
X889000D02*
D03*
Y203200D02*
D03*
X914400Y254000D02*
D03*
X965200D02*
D03*
X990600Y304800D02*
D03*
X914400Y457200D02*
D03*
X787400Y508000D02*
D03*
X990600D02*
D03*
X1117600Y50800D02*
D03*
X1092200Y101600D02*
D03*
X1168400Y152400D02*
D03*
X1193800Y101600D02*
D03*
X1244600D02*
D03*
X1092200Y304800D02*
D03*
X1117600Y254000D02*
D03*
X1270000Y457200D02*
D03*
X1244600Y508000D02*
D03*
X1346200Y304800D02*
D03*
X1371600Y254000D02*
D03*
Y355600D02*
D03*
X1498600Y508000D02*
D03*
X1600200D02*
D03*
X787400Y609600D02*
D03*
X1041400D02*
D03*
X1092200D02*
D03*
X762000Y762000D02*
D03*
X812800D02*
D03*
X990600Y914400D02*
D03*
Y812800D02*
D03*
X1066800Y762000D02*
D03*
X1143000Y609600D02*
D03*
X1016000Y762000D02*
D03*
X1041400Y812800D02*
D03*
X1092200Y914400D02*
D03*
X1244600Y609600D02*
D03*
X1270000Y660400D02*
D03*
X1422400D02*
D03*
X1219200Y762000D02*
D03*
X1447800Y711200D02*
D03*
X1320800Y762000D02*
D03*
X1371600D02*
D03*
X1473200Y660400D02*
D03*
X1574800D02*
D03*
X1498600Y711200D02*
D03*
X1549400D02*
D03*
X1574800Y762000D02*
D03*
X1193800Y914400D02*
D03*
X1168400Y965200D02*
D03*
X1447800Y812800D02*
D03*
X1172464Y414782D02*
D03*
X1165352Y429006D02*
D03*
Y332740D02*
D03*
X1165606Y396240D02*
D03*
X1189482Y395732D02*
D03*
X1549400Y508000D02*
D03*
X1473200Y965200D02*
D03*
X1498600Y609600D02*
D03*
X1371600Y965200D02*
D03*
X1397000Y914400D02*
D03*
X1346200Y812800D02*
D03*
X1168400Y254000D02*
D03*
X1193800Y203200D02*
D03*
X1168400Y50800D02*
D03*
X1117600Y660400D02*
D03*
X1143000Y406400D02*
D03*
X1066800Y660400D02*
D03*
X1016000Y152400D02*
D03*
X914400Y762000D02*
D03*
X939800Y711200D02*
D03*
X812800Y152400D02*
D03*
X762000Y863600D02*
D03*
X736600Y812800D02*
D03*
X660400Y254000D02*
D03*
X635000Y304800D02*
D03*
X609600Y254000D02*
D03*
X533400Y304800D02*
D03*
X406400Y660400D02*
D03*
X304800Y762000D02*
D03*
X330200Y203200D02*
D03*
X254000Y457200D02*
D03*
X279400Y304800D02*
D03*
X203200Y762000D02*
D03*
X152400Y355600D02*
D03*
X127000Y508000D02*
D03*
X50800Y152400D02*
D03*
Y50800D02*
D03*
X1091692Y486918D02*
D03*
X1106424Y493268D02*
D03*
X1207897Y406273D02*
D03*
X866140Y317246D02*
D03*
X922274Y659892D02*
D03*
X1574800Y863600D02*
D03*
X1549400Y914400D02*
D03*
X1320800Y152400D02*
D03*
X1295400Y812800D02*
D03*
X1219200Y50800D02*
D03*
X1168400Y762000D02*
D03*
Y558800D02*
D03*
X1117600D02*
D03*
X1092200Y711200D02*
D03*
Y203200D02*
D03*
X1016000Y355600D02*
D03*
X1041400Y101600D02*
D03*
X838200Y406400D02*
D03*
X762000Y457200D02*
D03*
Y355600D02*
D03*
X685800Y914400D02*
D03*
Y406400D02*
D03*
X609600Y152400D02*
D03*
X584200Y304800D02*
D03*
X533400Y609600D02*
D03*
X406400Y355600D02*
D03*
X355600Y863600D02*
D03*
X304800Y254000D02*
D03*
X228600Y508000D02*
D03*
Y406400D02*
D03*
X635000Y101600D02*
D03*
X1016000Y50800D02*
D03*
X1473200Y762000D02*
D03*
X482600Y609600D02*
D03*
X279400Y101600D02*
D03*
X101600Y660400D02*
D03*
X1143000Y711200D02*
D03*
X1270000Y965200D02*
D03*
X101600Y457200D02*
D03*
X482600Y508000D02*
D03*
X177800D02*
D03*
Y812800D02*
D03*
X1066800Y50800D02*
D03*
X1295400Y914400D02*
D03*
X1524000Y660400D02*
D03*
X1498600Y914400D02*
D03*
X279400Y609600D02*
D03*
X838200Y304800D02*
D03*
X965200Y152400D02*
D03*
X50800Y762000D02*
D03*
X1143000Y101600D02*
D03*
X1524000Y762000D02*
D03*
X717540Y699018D02*
D03*
Y751596D02*
D03*
X1310386Y361696D02*
D03*
X1309624Y105410D02*
D03*
X1310193Y232712D02*
D03*
X1063244Y434086D02*
D03*
X953770Y475742D02*
D03*
X939800Y444500D02*
D03*
X947166Y451358D02*
D03*
X848106Y571500D02*
D03*
X829056Y592074D02*
D03*
X805434Y569468D02*
D03*
X745744Y569722D02*
D03*
X825754Y559054D02*
D03*
X879042Y592022D02*
D03*
X886714Y550672D02*
D03*
X252476Y661670D02*
D03*
X895604Y559562D02*
D03*
X965200Y669036D02*
D03*
X888746Y637286D02*
D03*
X897890Y331470D02*
D03*
X899922Y342900D02*
D03*
X822568Y482208D02*
D03*
X778256Y482092D02*
D03*
X936752Y368300D02*
D03*
X952246Y539242D02*
D03*
X775970Y509778D02*
D03*
X938022Y394716D02*
D03*
X1241806Y669544D02*
D03*
X1143762D02*
D03*
X1001776Y641858D02*
D03*
X1027430Y669036D02*
D03*
X1156208Y422402D02*
D03*
X928370Y342392D02*
D03*
X928116Y331216D02*
D03*
X1286256Y582422D02*
D03*
X1282446Y568198D02*
D03*
X1333500Y532384D02*
D03*
X931164Y486156D02*
D03*
X1154430Y507746D02*
D03*
X1142492Y508000D02*
D03*
X929640Y609600D02*
D03*
X916940Y473202D02*
D03*
X908812Y480060D02*
D03*
X1295146Y499618D02*
D03*
X1576756Y908304D02*
D03*
X1634236D02*
D03*
X1121943Y858241D02*
D03*
X1435354Y857758D02*
D03*
X1135634Y542290D02*
D03*
X1224026Y858520D02*
D03*
X1148819Y858241D02*
D03*
X1516380Y848614D02*
D03*
X1516888Y873760D02*
D03*
Y822198D02*
D03*
X1333133Y858241D02*
D03*
X1249655D02*
D03*
X1361186D02*
D03*
X1243076Y783844D02*
D03*
X1294892Y532384D02*
D03*
X1133602Y560832D02*
D03*
X954786Y485336D02*
D03*
X893826Y452628D02*
D03*
X936752Y480060D02*
D03*
X932434Y501142D02*
D03*
X926846Y508508D02*
D03*
X922020Y423164D02*
D03*
X928116Y428752D02*
D03*
X1134313Y551923D02*
D03*
X873252Y439420D02*
D03*
X995680Y383794D02*
D03*
X855954Y456971D02*
D03*
X865632Y455422D02*
D03*
X899668Y459232D02*
D03*
X1288796Y594360D02*
D03*
X1564132Y692404D02*
D03*
X1274064Y589280D02*
D03*
X1259376Y585170D02*
D03*
X1246378Y581152D02*
D03*
X957834Y609092D02*
D03*
X948436Y609346D02*
D03*
X938784D02*
D03*
X920750Y514096D02*
D03*
X902316Y609834D02*
D03*
X885190Y507238D02*
D03*
Y497078D02*
D03*
X875030Y490220D02*
D03*
X906526Y508762D02*
D03*
X907796Y499364D02*
D03*
X1034288Y573786D02*
D03*
X846582Y513334D02*
D03*
X826516Y522732D02*
D03*
X687324Y473710D02*
D03*
X995934Y348996D02*
D03*
X791210Y440182D02*
D03*
X829818Y510032D02*
D03*
X773430Y416560D02*
D03*
X731520Y469900D02*
D03*
Y459740D02*
D03*
D66*
X560578Y473456D02*
D03*
X1143000Y275844D02*
D03*
D67*
X1455388Y448851D02*
D03*
D68*
X1454658Y319024D02*
D03*
Y192780D02*
D03*
%TF.MD5,1d5abec3722162d209352dd44b1fbe7b*%
M02*
