%TF.GenerationSoftware,Altium Limited,Altium Designer,24.9.1 (31)*%
G04 Layer_Color=255*
%FSLAX44Y44*%
%MOMM*%
%TF.SameCoordinates,F87BDF86-A0D3-4CC8-9358-94790697CDC4*%
%TF.FilePolarity,Positive*%
%TF.FileFunction,Pads,Top*%
%TF.Part,Single*%
G01*
G75*
%TA.AperFunction,SMDPad,CuDef*%
%ADD10R,0.9000X0.5500*%
%ADD11R,1.2000X0.8500*%
%ADD12R,1.5500X2.1000*%
%ADD13R,0.8500X1.2000*%
%ADD14R,1.9000X3.8000*%
G04:AMPARAMS|DCode=15|XSize=1.21mm|YSize=0.59mm|CornerRadius=0.1475mm|HoleSize=0mm|Usage=FLASHONLY|Rotation=270.000|XOffset=0mm|YOffset=0mm|HoleType=Round|Shape=RoundedRectangle|*
%AMROUNDEDRECTD15*
21,1,1.2100,0.2950,0,0,270.0*
21,1,0.9150,0.5900,0,0,270.0*
1,1,0.2950,-0.1475,-0.4575*
1,1,0.2950,-0.1475,0.4575*
1,1,0.2950,0.1475,0.4575*
1,1,0.2950,0.1475,-0.4575*
%
%ADD15ROUNDEDRECTD15*%
%ADD16R,0.5500X0.9000*%
%ADD17R,2.1000X1.5500*%
G04:AMPARAMS|DCode=18|XSize=0.9mm|YSize=0.55mm|CornerRadius=0mm|HoleSize=0mm|Usage=FLASHONLY|Rotation=135.000|XOffset=0mm|YOffset=0mm|HoleType=Round|Shape=Rectangle|*
%AMROTATEDRECTD18*
4,1,4,0.5127,-0.1237,0.1237,-0.5127,-0.5127,0.1237,-0.1237,0.5127,0.5127,-0.1237,0.0*
%
%ADD18ROTATEDRECTD18*%

%ADD19R,1.7000X1.0000*%
G04:AMPARAMS|DCode=20|XSize=0.9mm|YSize=0.55mm|CornerRadius=0mm|HoleSize=0mm|Usage=FLASHONLY|Rotation=225.000|XOffset=0mm|YOffset=0mm|HoleType=Round|Shape=Rectangle|*
%AMROTATEDRECTD20*
4,1,4,0.1237,0.5127,0.5127,0.1237,-0.1237,-0.5127,-0.5127,-0.1237,0.1237,0.5127,0.0*
%
%ADD20ROTATEDRECTD20*%

%ADD21R,2.1500X3.2500*%
%ADD22R,2.1500X0.9000*%
%ADD23R,1.1000X1.2000*%
%ADD24O,1.5000X0.6000*%
G04:AMPARAMS|DCode=25|XSize=1.49mm|YSize=0.28mm|CornerRadius=0.07mm|HoleSize=0mm|Usage=FLASHONLY|Rotation=225.000|XOffset=0mm|YOffset=0mm|HoleType=Round|Shape=RoundedRectangle|*
%AMROUNDEDRECTD25*
21,1,1.4900,0.1400,0,0,225.0*
21,1,1.3500,0.2800,0,0,225.0*
1,1,0.1400,-0.5268,-0.4278*
1,1,0.1400,0.4278,0.5268*
1,1,0.1400,0.5268,0.4278*
1,1,0.1400,-0.4278,-0.5268*
%
%ADD25ROUNDEDRECTD25*%
G04:AMPARAMS|DCode=26|XSize=1.49mm|YSize=0.28mm|CornerRadius=0.07mm|HoleSize=0mm|Usage=FLASHONLY|Rotation=315.000|XOffset=0mm|YOffset=0mm|HoleType=Round|Shape=RoundedRectangle|*
%AMROUNDEDRECTD26*
21,1,1.4900,0.1400,0,0,315.0*
21,1,1.3500,0.2800,0,0,315.0*
1,1,0.1400,0.4278,-0.5268*
1,1,0.1400,-0.5268,0.4278*
1,1,0.1400,-0.4278,0.5268*
1,1,0.1400,0.5268,-0.4278*
%
%ADD26ROUNDEDRECTD26*%
%ADD27R,2.2000X1.6000*%
%ADD28R,1.6000X3.2000*%
%TA.AperFunction,ComponentPad*%
%ADD42R,1.9500X1.9500*%
%ADD43C,1.9500*%
%ADD44C,1.6000*%
%ADD45R,1.6000X1.6000*%
%ADD46C,2.0320*%
%ADD47C,2.2000*%
%ADD48R,2.2000X2.2000*%
%TA.AperFunction,ViaPad*%
%ADD49C,1.5240*%
%TA.AperFunction,ComponentPad*%
%ADD50R,1.6002X1.6002*%
%ADD51R,1.6000X1.6000*%
G04:AMPARAMS|DCode=52|XSize=2.2mm|YSize=2.2mm|CornerRadius=0.55mm|HoleSize=0mm|Usage=FLASHONLY|Rotation=90.000|XOffset=0mm|YOffset=0mm|HoleType=Round|Shape=RoundedRectangle|*
%AMROUNDEDRECTD52*
21,1,2.2000,1.1000,0,0,90.0*
21,1,1.1000,2.2000,0,0,90.0*
1,1,1.1000,0.5500,0.5500*
1,1,1.1000,0.5500,-0.5500*
1,1,1.1000,-0.5500,-0.5500*
1,1,1.1000,-0.5500,0.5500*
%
%ADD52ROUNDEDRECTD52*%
%ADD53C,1.8000*%
%ADD54O,2.0000X2.2000*%
%ADD55C,1.2446*%
%ADD56P,1.7601X4X180.0*%
%ADD57C,1.5600*%
%ADD58R,1.5600X1.5600*%
%ADD59C,1.5200*%
%ADD60R,1.5200X1.5200*%
%ADD61R,2.5400X4.0640*%
%ADD62R,4.0640X2.5400*%
D10*
X996379Y710246D02*
D03*
Y724746D02*
D03*
X1218200Y249387D02*
D03*
Y234887D02*
D03*
X985520Y117994D02*
D03*
Y103494D02*
D03*
X916686Y117994D02*
D03*
Y103494D02*
D03*
X922528Y354954D02*
D03*
Y369454D02*
D03*
X900176Y354954D02*
D03*
Y369454D02*
D03*
X1063244Y448426D02*
D03*
Y462926D02*
D03*
X1031748Y455738D02*
D03*
Y470238D02*
D03*
X1008380Y455792D02*
D03*
Y470292D02*
D03*
X930910Y567044D02*
D03*
Y581544D02*
D03*
X908050D02*
D03*
Y567044D02*
D03*
X884682Y581544D02*
D03*
Y567044D02*
D03*
X790702Y482208D02*
D03*
Y496708D02*
D03*
X970979Y724746D02*
D03*
Y710246D02*
D03*
X758920Y724746D02*
D03*
Y710246D02*
D03*
X734790Y710300D02*
D03*
Y724800D02*
D03*
X1556258Y590550D02*
D03*
Y605050D02*
D03*
X1555750Y539750D02*
D03*
Y554250D02*
D03*
X60960Y867272D02*
D03*
Y881772D02*
D03*
X388112Y43982D02*
D03*
Y29482D02*
D03*
X208280Y198490D02*
D03*
Y212990D02*
D03*
X186690Y198490D02*
D03*
Y212990D02*
D03*
X163830Y198490D02*
D03*
Y212990D02*
D03*
X810514Y482208D02*
D03*
Y496708D02*
D03*
X990594Y846138D02*
D03*
Y831638D02*
D03*
X968517Y846138D02*
D03*
Y831638D02*
D03*
X1295400Y540628D02*
D03*
Y555128D02*
D03*
X1295146Y523886D02*
D03*
Y509386D02*
D03*
X940054Y202830D02*
D03*
Y188330D02*
D03*
X826770D02*
D03*
Y202830D02*
D03*
X771144Y650378D02*
D03*
Y635878D02*
D03*
X1290332Y121290D02*
D03*
Y106790D02*
D03*
X1215660Y364156D02*
D03*
Y378657D02*
D03*
X1219212Y106844D02*
D03*
Y121344D02*
D03*
X1289320Y249333D02*
D03*
Y234833D02*
D03*
Y378602D02*
D03*
Y364103D02*
D03*
X254762Y575288D02*
D03*
Y589788D02*
D03*
X242062Y483892D02*
D03*
Y469392D02*
D03*
X90678Y867272D02*
D03*
Y881772D02*
D03*
X1066800Y145680D02*
D03*
Y131180D02*
D03*
X1150620D02*
D03*
Y145680D02*
D03*
X571500Y44464D02*
D03*
Y58964D02*
D03*
X546100Y44464D02*
D03*
Y58964D02*
D03*
X413512Y29482D02*
D03*
Y43982D02*
D03*
D11*
X1325080Y251610D02*
D03*
X1325134Y232712D02*
D03*
X1350080Y242110D02*
D03*
X1325080Y380880D02*
D03*
X1325134Y361982D02*
D03*
X1350080Y371380D02*
D03*
X1326092Y124810D02*
D03*
X1326146Y105912D02*
D03*
X1351092Y115310D02*
D03*
D12*
X1339862Y200623D02*
D03*
Y156622D02*
D03*
X1023620Y26260D02*
D03*
Y70260D02*
D03*
X1338850Y282787D02*
D03*
Y326788D02*
D03*
Y412692D02*
D03*
Y456693D02*
D03*
X319278Y225200D02*
D03*
Y181200D02*
D03*
D13*
X1108710Y125903D02*
D03*
X1099312Y150849D02*
D03*
X1118210Y150903D02*
D03*
D14*
X462280Y254000D02*
D03*
X366280D02*
D03*
D15*
X941730Y120271D02*
D03*
X951230Y95171D02*
D03*
X960730Y120271D02*
D03*
D16*
X1016138Y433324D02*
D03*
X1001638D02*
D03*
X1034150Y433070D02*
D03*
X1048650D02*
D03*
X576210Y338582D02*
D03*
X561710D02*
D03*
X1079870Y895350D02*
D03*
X1094370D02*
D03*
X1224704Y872236D02*
D03*
X1239204D02*
D03*
X1239150Y895350D02*
D03*
X1224650D02*
D03*
X1201950D02*
D03*
X1187450D02*
D03*
X1347978Y895604D02*
D03*
X1333478D02*
D03*
X1303528D02*
D03*
X1289028D02*
D03*
X1448700Y895350D02*
D03*
X1434200D02*
D03*
X1404250D02*
D03*
X1389750D02*
D03*
X837714Y905256D02*
D03*
X823214D02*
D03*
X1528710Y901700D02*
D03*
X1514210D02*
D03*
X1067932Y318262D02*
D03*
X1082432D02*
D03*
X855080Y250190D02*
D03*
X869580Y250190D02*
D03*
X349780Y38100D02*
D03*
X335280D02*
D03*
X211720Y157480D02*
D03*
X197220D02*
D03*
X177800D02*
D03*
X163300D02*
D03*
X352044Y632897D02*
D03*
X337544D02*
D03*
X352044Y650431D02*
D03*
X337544D02*
D03*
X857620Y24892D02*
D03*
X872120D02*
D03*
X1435216Y872236D02*
D03*
X1449716D02*
D03*
X717540Y712470D02*
D03*
X703040D02*
D03*
X717540Y737870D02*
D03*
X703040D02*
D03*
X1333532Y872236D02*
D03*
X1348032D02*
D03*
X245110Y157480D02*
D03*
X230610D02*
D03*
X1537070Y873760D02*
D03*
X1551570D02*
D03*
X1537070Y822960D02*
D03*
X1551570D02*
D03*
X1537070Y848360D02*
D03*
X1551570D02*
D03*
X1121780Y895350D02*
D03*
X1136280D02*
D03*
X1136334Y872236D02*
D03*
X1121834D02*
D03*
X313744Y142796D02*
D03*
X299244D02*
D03*
X299190Y118110D02*
D03*
X313690D02*
D03*
X245164Y128270D02*
D03*
X230664D02*
D03*
X278130D02*
D03*
X263630D02*
D03*
X279030Y157480D02*
D03*
X264530D02*
D03*
X264044Y231648D02*
D03*
X249544D02*
D03*
D17*
X109122Y921258D02*
D03*
X65122D02*
D03*
X162150Y125730D02*
D03*
X206150D02*
D03*
D18*
X855518Y347772D02*
D03*
X845266Y337519D02*
D03*
X829518Y367491D02*
D03*
X839771Y377744D02*
D03*
X793704Y402035D02*
D03*
X803957Y412289D02*
D03*
X810975Y385271D02*
D03*
X821228Y395524D02*
D03*
D19*
X850896Y213310D02*
D03*
X913896D02*
D03*
Y175310D02*
D03*
X850896D02*
D03*
D20*
X1017477Y590850D02*
D03*
X1027730Y580597D02*
D03*
X1041053Y566513D02*
D03*
X1051306Y556260D02*
D03*
D21*
X511900Y50800D02*
D03*
D22*
X453300Y27900D02*
D03*
Y50800D02*
D03*
Y73700D02*
D03*
D23*
X337480Y72390D02*
D03*
X358480D02*
D03*
D24*
X285310Y177800D02*
D03*
Y190500D02*
D03*
Y203200D02*
D03*
Y215900D02*
D03*
X230310Y177800D02*
D03*
Y190500D02*
D03*
Y203200D02*
D03*
Y215900D02*
D03*
D25*
X973759Y483096D02*
D03*
X970224Y486632D02*
D03*
X966688Y490168D02*
D03*
X963153Y493703D02*
D03*
X959617Y497239D02*
D03*
X956082Y500774D02*
D03*
X952546Y504310D02*
D03*
X949011Y507845D02*
D03*
X945475Y511381D02*
D03*
X941940Y514916D02*
D03*
X938404Y518452D02*
D03*
X934869Y521987D02*
D03*
X931333Y525523D02*
D03*
X927797Y529058D02*
D03*
X924262Y532594D02*
D03*
X920726Y536129D02*
D03*
X840541Y455943D02*
D03*
X844076Y452408D02*
D03*
X847612Y448872D02*
D03*
X851147Y445337D02*
D03*
X854683Y441801D02*
D03*
X858218Y438266D02*
D03*
X861754Y434730D02*
D03*
X865289Y431195D02*
D03*
X868825Y427659D02*
D03*
X872360Y424124D02*
D03*
X875896Y420588D02*
D03*
X879431Y417053D02*
D03*
X882967Y413517D02*
D03*
X886503Y409982D02*
D03*
X890038Y406446D02*
D03*
X893574Y402910D02*
D03*
D26*
Y536129D02*
D03*
X890038Y532594D02*
D03*
X886503Y529058D02*
D03*
X882967Y525523D02*
D03*
X879431Y521987D02*
D03*
X875896Y518452D02*
D03*
X872360Y514916D02*
D03*
X868825Y511381D02*
D03*
X865289Y507845D02*
D03*
X861754Y504310D02*
D03*
X858218Y500774D02*
D03*
X854683Y497239D02*
D03*
X851147Y493703D02*
D03*
X847612Y490168D02*
D03*
X844076Y486632D02*
D03*
X840541Y483096D02*
D03*
X920726Y402910D02*
D03*
X924262Y406446D02*
D03*
X927797Y409982D02*
D03*
X931333Y413517D02*
D03*
X934869Y417053D02*
D03*
X938404Y420588D02*
D03*
X941940Y424124D02*
D03*
X945475Y427659D02*
D03*
X949011Y431195D02*
D03*
X952546Y434730D02*
D03*
X956082Y438266D02*
D03*
X959617Y441801D02*
D03*
X963153Y445337D02*
D03*
X966688Y448872D02*
D03*
X970224Y452408D02*
D03*
X973759Y455943D02*
D03*
D27*
X1296813Y315996D02*
D03*
Y290596D02*
D03*
X1208167D02*
D03*
Y315996D02*
D03*
X1209179Y189830D02*
D03*
Y164431D02*
D03*
X1297825D02*
D03*
Y189830D02*
D03*
X1207897Y445897D02*
D03*
Y420497D02*
D03*
X1296543D02*
D03*
Y445897D02*
D03*
D28*
X387350Y176400D02*
D03*
Y128400D02*
D03*
X462280Y176400D02*
D03*
Y128400D02*
D03*
D42*
X1081570Y66040D02*
D03*
D43*
X1131570D02*
D03*
D44*
X533400Y398780D02*
D03*
X508000D02*
D03*
X728440Y782320D02*
D03*
X753840D02*
D03*
X963930Y40000D02*
D03*
X1440688Y527050D02*
D03*
Y577850D02*
D03*
Y552450D02*
D03*
X1046480Y348234D02*
D03*
X1071880D02*
D03*
X795020Y643128D02*
D03*
Y668528D02*
D03*
X990029Y780996D02*
D03*
X964629D02*
D03*
X534670Y588010D02*
D03*
X509270D02*
D03*
X938530Y276860D02*
D03*
X913130Y276860D02*
D03*
X887730Y276860D02*
D03*
X862330Y276860D02*
D03*
X731520Y960000D02*
D03*
X706120D02*
D03*
X534670Y497840D02*
D03*
X509270D02*
D03*
X1301750Y960000D02*
D03*
X1403350D02*
D03*
X1200150D02*
D03*
X838200D02*
D03*
X863600D02*
D03*
X965200D02*
D03*
X990600D02*
D03*
X939800D02*
D03*
X914400D02*
D03*
X889000D02*
D03*
X1600200Y746760D02*
D03*
Y772160D02*
D03*
Y797560D02*
D03*
Y848360D02*
D03*
Y822960D02*
D03*
Y721360D02*
D03*
X1097280Y960000D02*
D03*
X1047242Y200660D02*
D03*
X1021842D02*
D03*
X1072642D02*
D03*
X856996Y58964D02*
D03*
X831596D02*
D03*
X729996D02*
D03*
X704596D02*
D03*
X755396D02*
D03*
X780796D02*
D03*
X806196D02*
D03*
X1513840Y960000D02*
D03*
X1564640D02*
D03*
X1539240D02*
D03*
X1242568Y724662D02*
D03*
X1217168D02*
D03*
X1191768D02*
D03*
X1166368D02*
D03*
X1140968D02*
D03*
X1610000Y615950D02*
D03*
Y565150D02*
D03*
Y590550D02*
D03*
X1346454Y527050D02*
D03*
Y577850D02*
D03*
Y552450D02*
D03*
X636270Y588010D02*
D03*
X661670D02*
D03*
X87376Y605536D02*
D03*
X112776D02*
D03*
X138176D02*
D03*
X188976D02*
D03*
X163576D02*
D03*
X61976D02*
D03*
X36576D02*
D03*
D45*
X558800Y398780D02*
D03*
X703040Y782320D02*
D03*
X1097280Y348234D02*
D03*
X939229Y780996D02*
D03*
X560070Y588010D02*
D03*
X963930Y276860D02*
D03*
X756920Y960000D02*
D03*
X560070Y497840D02*
D03*
X1327150Y960000D02*
D03*
X1428750D02*
D03*
X1225550D02*
D03*
X1016000D02*
D03*
X1122680D02*
D03*
X996442Y200660D02*
D03*
X679196Y58964D02*
D03*
X1590040Y960000D02*
D03*
X1267968Y724662D02*
D03*
X687070Y588010D02*
D03*
X214376Y605536D02*
D03*
D46*
X179400Y57150D02*
D03*
X279400D02*
D03*
D47*
X42310Y196850D02*
D03*
X1611646Y192780D02*
D03*
X1610666Y318946D02*
D03*
X1610634Y448851D02*
D03*
X1611634Y78741D02*
D03*
D48*
X92310Y196850D02*
D03*
D49*
X616458Y834390D02*
D03*
Y185551D02*
D03*
X1358900Y50038D02*
D03*
D50*
X938530Y40000D02*
D03*
D51*
X1440688Y603250D02*
D03*
X795020Y693928D02*
D03*
X1600200Y873760D02*
D03*
X1610000Y539750D02*
D03*
X1346454Y603250D02*
D03*
D52*
X1611646Y154681D02*
D03*
X1610666Y280846D02*
D03*
X1610634Y410751D02*
D03*
X1611634Y40641D02*
D03*
D53*
X1387320Y154651D02*
D03*
Y200651D02*
D03*
Y280846D02*
D03*
Y326846D02*
D03*
Y410751D02*
D03*
Y456750D02*
D03*
X1503172Y63501D02*
D03*
X1553972Y40641D02*
D03*
D54*
X1502320Y154651D02*
D03*
X1572320D02*
D03*
X1502320Y280846D02*
D03*
X1572320D02*
D03*
X1502320Y410751D02*
D03*
X1572320D02*
D03*
D55*
X990637Y564097D02*
D03*
D56*
X1025144Y529590D02*
D03*
D57*
X42152Y706000D02*
D03*
X67552D02*
D03*
X92952D02*
D03*
X118352D02*
D03*
X143752D02*
D03*
X169152D02*
D03*
X194552D02*
D03*
X219952D02*
D03*
X245352D02*
D03*
X270752D02*
D03*
X296152D02*
D03*
X321552D02*
D03*
X346952D02*
D03*
X372352D02*
D03*
X397752D02*
D03*
X423152D02*
D03*
X448552D02*
D03*
X473952D02*
D03*
X499352D02*
D03*
X67552Y960000D02*
D03*
X92952D02*
D03*
X118352D02*
D03*
X143752D02*
D03*
X169152D02*
D03*
X194552D02*
D03*
X219952D02*
D03*
X245352D02*
D03*
X270752D02*
D03*
X296152D02*
D03*
X321552D02*
D03*
X346952D02*
D03*
X372352D02*
D03*
X397752D02*
D03*
X423152D02*
D03*
X448552D02*
D03*
X42152D02*
D03*
X473952D02*
D03*
D58*
X499352D02*
D03*
D59*
X276860Y407924D02*
D03*
Y331724D02*
D03*
Y357124D02*
D03*
Y382524D02*
D03*
Y458724D02*
D03*
Y433324D02*
D03*
D60*
Y484124D02*
D03*
D61*
X115570Y81280D02*
D03*
X52070D02*
D03*
D62*
X90170Y30480D02*
D03*
%TF.MD5,3730daa0220dc34edf693cb4a33fb688*%
M02*
